<?xml version="1.0" encoding="UTF-8"?>
<svg xmlns="http://www.w3.org/2000/svg" xmlns:xlink="http://www.w3.org/1999/xlink" width="576pt" height="360pt" viewBox="0 0 576 360">
<rect width="100%" height="100%" fill="#ffffff"/>
<defs>
<g>
<g id="glyph-0-0">
</g>
<g id="glyph-1-0">
<path d="M 1.984375 -5.125 C 2.648438 -5.125 3.128906 -4.847656 3.421875 -4.296875 C 3.648438 -3.878906 3.765625 -3.300781 3.765625 -2.5625 C 3.765625 -1.875 3.660156 -1.300781 3.453125 -0.84375 C 3.148438 -0.1875 2.660156 0.140625 1.984375 0.140625 C 1.367188 0.140625 0.910156 -0.125 0.609375 -0.65625 C 0.359375 -1.101562 0.234375 -1.703125 0.234375 -2.453125 C 0.234375 -3.035156 0.304688 -3.535156 0.453125 -3.953125 C 0.734375 -4.734375 1.242188 -5.125 1.984375 -5.125 Z M 1.96875 -0.453125 C 2.300781 -0.453125 2.566406 -0.597656 2.765625 -0.890625 C 2.960938 -1.179688 3.0625 -1.734375 3.0625 -2.546875 C 3.0625 -3.128906 2.988281 -3.609375 2.84375 -3.984375 C 2.707031 -4.359375 2.429688 -4.546875 2.015625 -4.546875 C 1.640625 -4.546875 1.363281 -4.363281 1.1875 -4 C 1.007812 -3.644531 0.921875 -3.125 0.921875 -2.4375 C 0.921875 -1.914062 0.976562 -1.492188 1.09375 -1.171875 C 1.269531 -0.691406 1.5625 -0.453125 1.96875 -0.453125 Z M 1.96875 -0.453125 "/>
</g>
<g id="glyph-1-1">
<path d="M 0.90625 -1.3125 C 0.945312 -0.9375 1.117188 -0.679688 1.421875 -0.546875 C 1.566406 -0.472656 1.742188 -0.4375 1.953125 -0.4375 C 2.328125 -0.4375 2.601562 -0.554688 2.78125 -0.796875 C 2.96875 -1.046875 3.0625 -1.316406 3.0625 -1.609375 C 3.0625 -1.960938 2.953125 -2.238281 2.734375 -2.4375 C 2.523438 -2.632812 2.265625 -2.734375 1.953125 -2.734375 C 1.734375 -2.734375 1.546875 -2.6875 1.390625 -2.59375 C 1.234375 -2.507812 1.097656 -2.394531 0.984375 -2.25 L 0.421875 -2.28125 L 0.8125 -5.03125 L 3.46875 -5.03125 L 3.46875 -4.421875 L 1.296875 -4.421875 L 1.078125 -2.984375 C 1.191406 -3.078125 1.304688 -3.148438 1.421875 -3.203125 C 1.609375 -3.273438 1.828125 -3.3125 2.078125 -3.3125 C 2.546875 -3.3125 2.941406 -3.160156 3.265625 -2.859375 C 3.597656 -2.554688 3.765625 -2.171875 3.765625 -1.703125 C 3.765625 -1.222656 3.613281 -0.796875 3.3125 -0.421875 C 3.007812 -0.0546875 2.53125 0.125 1.875 0.125 C 1.457031 0.125 1.085938 0.0078125 0.765625 -0.21875 C 0.453125 -0.457031 0.273438 -0.820312 0.234375 -1.3125 Z M 0.90625 -1.3125 "/>
</g>
<g id="glyph-1-2">
<path d="M 0.109375 -3.828125 L 0.9375 -3.828125 L 1.828125 -2.484375 L 2.71875 -3.828125 L 3.5 -3.8125 L 2.203125 -1.96875 L 3.546875 0 L 2.734375 0 L 1.78125 -1.4375 L 0.859375 0 L 0.046875 0 L 1.390625 -1.96875 Z M 0.109375 -3.828125 "/>
</g>
<g id="glyph-1-3">
<path d="M 0.703125 -3.625 L 0.703125 -4.125 C 1.171875 -4.164062 1.492188 -4.238281 1.671875 -4.34375 C 1.859375 -4.457031 2 -4.710938 2.09375 -5.109375 L 2.59375 -5.109375 L 2.59375 0 L 1.90625 0 L 1.90625 -3.625 Z M 0.703125 -3.625 "/>
</g>
<g id="glyph-1-4">
<path d="M 0.625 -0.78125 L 1.375 -0.78125 L 1.375 0 L 0.625 0 Z M 0.625 -0.78125 "/>
</g>
<g id="glyph-1-5">
<path d="M 0.234375 0 C 0.253906 -0.4375 0.34375 -0.816406 0.5 -1.140625 C 0.65625 -1.472656 0.96875 -1.773438 1.4375 -2.046875 L 2.125 -2.4375 C 2.425781 -2.613281 2.640625 -2.765625 2.765625 -2.890625 C 2.960938 -3.097656 3.0625 -3.328125 3.0625 -3.578125 C 3.0625 -3.878906 2.96875 -4.113281 2.78125 -4.28125 C 2.601562 -4.457031 2.367188 -4.546875 2.078125 -4.546875 C 1.628906 -4.546875 1.320312 -4.378906 1.15625 -4.046875 C 1.0625 -3.867188 1.015625 -3.625 1.015625 -3.3125 L 0.359375 -3.3125 C 0.359375 -3.75 0.4375 -4.109375 0.59375 -4.390625 C 0.875 -4.890625 1.367188 -5.140625 2.078125 -5.140625 C 2.660156 -5.140625 3.085938 -4.976562 3.359375 -4.65625 C 3.628906 -4.34375 3.765625 -3.992188 3.765625 -3.609375 C 3.765625 -3.191406 3.625 -2.84375 3.34375 -2.5625 C 3.175781 -2.382812 2.875 -2.175781 2.4375 -1.9375 L 1.953125 -1.671875 C 1.710938 -1.535156 1.53125 -1.410156 1.40625 -1.296875 C 1.164062 -1.085938 1.015625 -0.859375 0.953125 -0.609375 L 3.75 -0.609375 L 3.75 0 Z M 0.234375 0 "/>
</g>
<g id="glyph-1-6">
<path d="M 1.90625 0.140625 C 1.300781 0.140625 0.859375 -0.0234375 0.578125 -0.359375 C 0.304688 -0.691406 0.171875 -1.097656 0.171875 -1.578125 L 0.84375 -1.578125 C 0.875 -1.242188 0.9375 -1.003906 1.03125 -0.859375 C 1.195312 -0.585938 1.5 -0.453125 1.9375 -0.453125 C 2.28125 -0.453125 2.550781 -0.539062 2.75 -0.71875 C 2.957031 -0.894531 3.0625 -1.128906 3.0625 -1.421875 C 3.0625 -1.773438 2.953125 -2.019531 2.734375 -2.15625 C 2.523438 -2.300781 2.226562 -2.375 1.84375 -2.375 C 1.800781 -2.375 1.753906 -2.375 1.703125 -2.375 C 1.660156 -2.375 1.617188 -2.367188 1.578125 -2.359375 L 1.578125 -2.9375 C 1.640625 -2.925781 1.691406 -2.921875 1.734375 -2.921875 C 1.785156 -2.921875 1.835938 -2.921875 1.890625 -2.921875 C 2.128906 -2.921875 2.328125 -2.957031 2.484375 -3.03125 C 2.753906 -3.164062 2.890625 -3.40625 2.890625 -3.75 C 2.890625 -4 2.796875 -4.191406 2.609375 -4.328125 C 2.429688 -4.472656 2.222656 -4.546875 1.984375 -4.546875 C 1.554688 -4.546875 1.257812 -4.398438 1.09375 -4.109375 C 1 -3.953125 0.945312 -3.726562 0.9375 -3.4375 L 0.296875 -3.4375 C 0.296875 -3.820312 0.375 -4.148438 0.53125 -4.421875 C 0.789062 -4.890625 1.253906 -5.125 1.921875 -5.125 C 2.441406 -5.125 2.84375 -5.007812 3.125 -4.78125 C 3.414062 -4.550781 3.5625 -4.210938 3.5625 -3.765625 C 3.5625 -3.453125 3.476562 -3.195312 3.3125 -3 C 3.207031 -2.882812 3.066406 -2.789062 2.890625 -2.71875 C 3.160156 -2.644531 3.367188 -2.5 3.515625 -2.28125 C 3.671875 -2.070312 3.75 -1.816406 3.75 -1.515625 C 3.75 -1.023438 3.585938 -0.625 3.265625 -0.3125 C 2.953125 -0.0078125 2.5 0.140625 1.90625 0.140625 Z M 1.90625 0.140625 "/>
</g>
<g id="glyph-1-7">
<path d="M 2.421875 -1.8125 L 2.421875 -4.140625 L 0.78125 -1.8125 Z M 2.4375 0 L 2.4375 -1.25 L 0.1875 -1.25 L 0.1875 -1.875 L 2.53125 -5.140625 L 3.078125 -5.140625 L 3.078125 -1.8125 L 3.828125 -1.8125 L 3.828125 -1.25 L 3.078125 -1.25 L 3.078125 0 Z M 2.4375 0 "/>
</g>
<g id="glyph-1-8">
<path d="M 0.46875 -3.8125 L 1.125 -3.8125 L 1.125 0 L 0.46875 0 Z M 0.46875 -5.25 L 1.125 -5.25 L 1.125 -4.53125 L 0.46875 -4.53125 Z M 0.46875 -5.25 "/>
</g>
<g id="glyph-1-9">
<path d="M 0.46875 -3.828125 L 1.078125 -3.828125 L 1.078125 -3.28125 C 1.265625 -3.507812 1.457031 -3.671875 1.65625 -3.765625 C 1.863281 -3.867188 2.09375 -3.921875 2.34375 -3.921875 C 2.882812 -3.921875 3.25 -3.726562 3.4375 -3.34375 C 3.539062 -3.132812 3.59375 -2.835938 3.59375 -2.453125 L 3.59375 0 L 2.9375 0 L 2.9375 -2.421875 C 2.9375 -2.648438 2.90625 -2.835938 2.84375 -2.984375 C 2.726562 -3.222656 2.519531 -3.34375 2.21875 -3.34375 C 2.0625 -3.34375 1.9375 -3.328125 1.84375 -3.296875 C 1.664062 -3.242188 1.507812 -3.140625 1.375 -2.984375 C 1.269531 -2.847656 1.195312 -2.710938 1.15625 -2.578125 C 1.125 -2.453125 1.109375 -2.257812 1.109375 -2 L 1.109375 0 L 0.46875 0 Z M 1.984375 -3.921875 Z M 1.984375 -3.921875 "/>
</g>
<g id="glyph-1-10">
<path d="M 0.859375 -1.203125 C 0.878906 -0.984375 0.929688 -0.816406 1.015625 -0.703125 C 1.179688 -0.492188 1.460938 -0.390625 1.859375 -0.390625 C 2.097656 -0.390625 2.304688 -0.441406 2.484375 -0.546875 C 2.671875 -0.648438 2.765625 -0.8125 2.765625 -1.03125 C 2.765625 -1.195312 2.691406 -1.320312 2.546875 -1.40625 C 2.453125 -1.457031 2.269531 -1.519531 2 -1.59375 L 1.484375 -1.71875 C 1.148438 -1.800781 0.910156 -1.894531 0.765625 -2 C 0.484375 -2.164062 0.34375 -2.40625 0.34375 -2.71875 C 0.34375 -3.082031 0.472656 -3.375 0.734375 -3.59375 C 0.992188 -3.820312 1.347656 -3.9375 1.796875 -3.9375 C 2.367188 -3.9375 2.78125 -3.765625 3.03125 -3.421875 C 3.195312 -3.210938 3.273438 -2.984375 3.265625 -2.734375 L 2.65625 -2.734375 C 2.644531 -2.878906 2.597656 -3.007812 2.515625 -3.125 C 2.359375 -3.289062 2.097656 -3.375 1.734375 -3.375 C 1.492188 -3.375 1.3125 -3.328125 1.1875 -3.234375 C 1.0625 -3.148438 1 -3.03125 1 -2.875 C 1 -2.707031 1.082031 -2.570312 1.25 -2.46875 C 1.34375 -2.414062 1.484375 -2.363281 1.671875 -2.3125 L 2.09375 -2.21875 C 2.550781 -2.101562 2.863281 -1.992188 3.03125 -1.890625 C 3.28125 -1.722656 3.40625 -1.460938 3.40625 -1.109375 C 3.40625 -0.765625 3.273438 -0.46875 3.015625 -0.21875 C 2.753906 0.0195312 2.359375 0.140625 1.828125 0.140625 C 1.253906 0.140625 0.847656 0.0117188 0.609375 -0.234375 C 0.378906 -0.492188 0.253906 -0.816406 0.234375 -1.203125 Z M 1.8125 -3.921875 Z M 1.8125 -3.921875 "/>
</g>
<g id="glyph-1-11">
<path d="M 2.0625 -3.921875 C 2.332031 -3.921875 2.59375 -3.851562 2.84375 -3.71875 C 3.101562 -3.59375 3.300781 -3.429688 3.4375 -3.234375 C 3.570312 -3.035156 3.660156 -2.8125 3.703125 -2.5625 C 3.734375 -2.382812 3.75 -2.097656 3.75 -1.703125 L 0.953125 -1.703125 C 0.960938 -1.316406 1.050781 -1.003906 1.21875 -0.765625 C 1.394531 -0.535156 1.660156 -0.421875 2.015625 -0.421875 C 2.359375 -0.421875 2.628906 -0.53125 2.828125 -0.75 C 2.941406 -0.882812 3.019531 -1.035156 3.0625 -1.203125 L 3.703125 -1.203125 C 3.679688 -1.054688 3.625 -0.894531 3.53125 -0.71875 C 3.4375 -0.550781 3.332031 -0.414062 3.21875 -0.3125 C 3.019531 -0.113281 2.78125 0.015625 2.5 0.078125 C 2.34375 0.117188 2.164062 0.140625 1.96875 0.140625 C 1.488281 0.140625 1.082031 -0.03125 0.75 -0.375 C 0.414062 -0.726562 0.25 -1.21875 0.25 -1.84375 C 0.25 -2.457031 0.414062 -2.957031 0.75 -3.34375 C 1.09375 -3.726562 1.53125 -3.921875 2.0625 -3.921875 Z M 3.09375 -2.21875 C 3.070312 -2.5 3.007812 -2.722656 2.90625 -2.890625 C 2.726562 -3.203125 2.4375 -3.359375 2.03125 -3.359375 C 1.726562 -3.359375 1.476562 -3.25 1.28125 -3.03125 C 1.082031 -2.820312 0.976562 -2.550781 0.96875 -2.21875 Z M 2 -3.921875 Z M 2 -3.921875 "/>
</g>
<g id="glyph-1-12">
<path d="M 0.484375 -3.828125 L 1.109375 -3.828125 L 1.109375 -3.171875 C 1.148438 -3.296875 1.269531 -3.453125 1.46875 -3.640625 C 1.664062 -3.828125 1.890625 -3.921875 2.140625 -3.921875 C 2.160156 -3.921875 2.179688 -3.914062 2.203125 -3.90625 C 2.234375 -3.90625 2.285156 -3.90625 2.359375 -3.90625 L 2.359375 -3.21875 C 2.316406 -3.226562 2.28125 -3.234375 2.25 -3.234375 C 2.21875 -3.234375 2.179688 -3.234375 2.140625 -3.234375 C 1.816406 -3.234375 1.566406 -3.128906 1.390625 -2.921875 C 1.222656 -2.710938 1.140625 -2.472656 1.140625 -2.203125 L 1.140625 0 L 0.484375 0 Z M 0.484375 -3.828125 "/>
</g>
<g id="glyph-1-13">
<path d="M 0.59375 -4.90625 L 1.25 -4.90625 L 1.25 -3.828125 L 1.859375 -3.828125 L 1.859375 -3.3125 L 1.25 -3.3125 L 1.25 -0.8125 C 1.25 -0.675781 1.296875 -0.582031 1.390625 -0.53125 C 1.441406 -0.507812 1.523438 -0.5 1.640625 -0.5 C 1.671875 -0.5 1.703125 -0.5 1.734375 -0.5 C 1.773438 -0.5 1.816406 -0.503906 1.859375 -0.515625 L 1.859375 0 C 1.785156 0.0195312 1.707031 0.0351562 1.625 0.046875 C 1.550781 0.0546875 1.46875 0.0625 1.375 0.0625 C 1.070312 0.0625 0.863281 -0.015625 0.75 -0.171875 C 0.644531 -0.328125 0.59375 -0.523438 0.59375 -0.765625 L 0.59375 -3.3125 L 0.078125 -3.3125 L 0.078125 -3.828125 L 0.59375 -3.828125 Z M 0.59375 -4.90625 "/>
</g>
<g id="glyph-1-14">
<path d="M 1.109375 -3.828125 L 1.109375 -1.28125 C 1.109375 -1.09375 1.140625 -0.9375 1.203125 -0.8125 C 1.316406 -0.582031 1.53125 -0.46875 1.84375 -0.46875 C 2.289062 -0.46875 2.597656 -0.664062 2.765625 -1.0625 C 2.847656 -1.28125 2.890625 -1.578125 2.890625 -1.953125 L 2.890625 -3.828125 L 3.546875 -3.828125 L 3.546875 0 L 2.9375 0 L 2.9375 -0.5625 C 2.851562 -0.414062 2.75 -0.296875 2.625 -0.203125 C 2.382812 0.00390625 2.085938 0.109375 1.734375 0.109375 C 1.191406 0.109375 0.820312 -0.0703125 0.625 -0.4375 C 0.507812 -0.632812 0.453125 -0.898438 0.453125 -1.234375 L 0.453125 -3.828125 Z M 2 -3.921875 Z M 2 -3.921875 "/>
</g>
<g id="glyph-1-15">
<path d="M 2.09375 -0.4375 C 2.394531 -0.4375 2.644531 -0.5625 2.84375 -0.8125 C 3.039062 -1.0625 3.140625 -1.4375 3.140625 -1.9375 C 3.140625 -2.238281 3.09375 -2.503906 3 -2.734375 C 2.832031 -3.148438 2.53125 -3.359375 2.09375 -3.359375 C 1.644531 -3.359375 1.335938 -3.132812 1.171875 -2.6875 C 1.085938 -2.445312 1.046875 -2.144531 1.046875 -1.78125 C 1.046875 -1.488281 1.085938 -1.238281 1.171875 -1.03125 C 1.335938 -0.632812 1.644531 -0.4375 2.09375 -0.4375 Z M 0.421875 -3.8125 L 1.046875 -3.8125 L 1.046875 -3.3125 C 1.171875 -3.476562 1.3125 -3.609375 1.46875 -3.703125 C 1.6875 -3.847656 1.941406 -3.921875 2.234375 -3.921875 C 2.671875 -3.921875 3.039062 -3.753906 3.34375 -3.421875 C 3.644531 -3.085938 3.796875 -2.613281 3.796875 -2 C 3.796875 -1.164062 3.578125 -0.570312 3.140625 -0.21875 C 2.867188 0.0078125 2.546875 0.125 2.171875 0.125 C 1.890625 0.125 1.648438 0.0585938 1.453125 -0.0625 C 1.335938 -0.132812 1.207031 -0.253906 1.0625 -0.421875 L 1.0625 1.53125 L 0.421875 1.53125 Z M 0.421875 -3.8125 "/>
</g>
<g id="glyph-1-16">
<path d="M 0.875 -1.875 C 0.875 -1.457031 0.960938 -1.109375 1.140625 -0.828125 C 1.316406 -0.554688 1.597656 -0.421875 1.984375 -0.421875 C 2.273438 -0.421875 2.515625 -0.546875 2.703125 -0.796875 C 2.898438 -1.054688 3 -1.429688 3 -1.921875 C 3 -2.398438 2.898438 -2.753906 2.703125 -2.984375 C 2.503906 -3.222656 2.257812 -3.34375 1.96875 -3.34375 C 1.644531 -3.34375 1.378906 -3.21875 1.171875 -2.96875 C 0.972656 -2.71875 0.875 -2.351562 0.875 -1.875 Z M 1.84375 -3.90625 C 2.144531 -3.90625 2.394531 -3.84375 2.59375 -3.71875 C 2.707031 -3.644531 2.835938 -3.519531 2.984375 -3.34375 L 2.984375 -5.28125 L 3.59375 -5.28125 L 3.59375 0 L 3.015625 0 L 3.015625 -0.53125 C 2.867188 -0.289062 2.691406 -0.117188 2.484375 -0.015625 C 2.273438 0.0859375 2.039062 0.140625 1.78125 0.140625 C 1.351562 0.140625 0.984375 -0.0351562 0.671875 -0.390625 C 0.359375 -0.753906 0.203125 -1.234375 0.203125 -1.828125 C 0.203125 -2.390625 0.34375 -2.875 0.625 -3.28125 C 0.914062 -3.695312 1.320312 -3.90625 1.84375 -3.90625 Z M 1.84375 -3.90625 "/>
</g>
<g id="glyph-1-17">
<path d="M 0.96875 -1.015625 C 0.96875 -0.828125 1.035156 -0.679688 1.171875 -0.578125 C 1.304688 -0.472656 1.46875 -0.421875 1.65625 -0.421875 C 1.882812 -0.421875 2.101562 -0.472656 2.3125 -0.578125 C 2.664062 -0.753906 2.84375 -1.039062 2.84375 -1.4375 L 2.84375 -1.953125 C 2.769531 -1.898438 2.671875 -1.859375 2.546875 -1.828125 C 2.421875 -1.796875 2.296875 -1.769531 2.171875 -1.75 L 1.796875 -1.703125 C 1.554688 -1.671875 1.378906 -1.625 1.265625 -1.5625 C 1.066406 -1.445312 0.96875 -1.265625 0.96875 -1.015625 Z M 2.53125 -2.328125 C 2.675781 -2.335938 2.773438 -2.398438 2.828125 -2.515625 C 2.847656 -2.566406 2.859375 -2.644531 2.859375 -2.75 C 2.859375 -2.96875 2.78125 -3.125 2.625 -3.21875 C 2.46875 -3.320312 2.242188 -3.375 1.953125 -3.375 C 1.617188 -3.375 1.382812 -3.285156 1.25 -3.109375 C 1.164062 -3.003906 1.113281 -2.851562 1.09375 -2.65625 L 0.484375 -2.65625 C 0.503906 -3.132812 0.660156 -3.460938 0.953125 -3.640625 C 1.242188 -3.828125 1.582031 -3.921875 1.96875 -3.921875 C 2.425781 -3.921875 2.796875 -3.835938 3.078125 -3.671875 C 3.359375 -3.492188 3.5 -3.222656 3.5 -2.859375 L 3.5 -0.65625 C 3.5 -0.59375 3.507812 -0.539062 3.53125 -0.5 C 3.5625 -0.457031 3.617188 -0.4375 3.703125 -0.4375 C 3.734375 -0.4375 3.765625 -0.4375 3.796875 -0.4375 C 3.835938 -0.445312 3.878906 -0.453125 3.921875 -0.453125 L 3.921875 0.015625 C 3.816406 0.046875 3.738281 0.0625 3.6875 0.0625 C 3.632812 0.0703125 3.5625 0.078125 3.46875 0.078125 C 3.25 0.078125 3.085938 0 2.984375 -0.15625 C 2.929688 -0.238281 2.894531 -0.359375 2.875 -0.515625 C 2.75 -0.335938 2.5625 -0.1875 2.3125 -0.0625 C 2.070312 0.0585938 1.800781 0.125 1.5 0.125 C 1.144531 0.125 0.851562 0.0195312 0.625 -0.1875 C 0.40625 -0.40625 0.296875 -0.675781 0.296875 -1 C 0.296875 -1.351562 0.40625 -1.628906 0.625 -1.828125 C 0.84375 -2.023438 1.132812 -2.144531 1.5 -2.1875 Z M 2 -3.921875 Z M 2 -3.921875 "/>
</g>
<g id="glyph-1-18">
<path d="M 0.484375 -5.25 L 1.140625 -5.25 L 1.140625 0 L 0.484375 0 Z M 0.484375 -5.25 "/>
</g>
<g id="glyph-1-19">
<path d="M 1.828125 -3.90625 C 2.128906 -3.90625 2.390625 -3.828125 2.609375 -3.671875 C 2.734375 -3.585938 2.859375 -3.46875 2.984375 -3.3125 L 2.984375 -3.796875 L 3.578125 -3.796875 L 3.578125 -0.3125 C 3.578125 0.175781 3.503906 0.5625 3.359375 0.84375 C 3.097656 1.363281 2.59375 1.625 1.84375 1.625 C 1.4375 1.625 1.09375 1.53125 0.8125 1.34375 C 0.53125 1.15625 0.375 0.863281 0.34375 0.46875 L 0.984375 0.46875 C 1.015625 0.644531 1.078125 0.78125 1.171875 0.875 C 1.316406 1.019531 1.546875 1.09375 1.859375 1.09375 C 2.359375 1.09375 2.679688 0.914062 2.828125 0.5625 C 2.921875 0.351562 2.960938 -0.0078125 2.953125 -0.53125 C 2.828125 -0.332031 2.671875 -0.1875 2.484375 -0.09375 C 2.304688 0 2.070312 0.046875 1.78125 0.046875 C 1.363281 0.046875 1 -0.0976562 0.6875 -0.390625 C 0.375 -0.691406 0.21875 -1.179688 0.21875 -1.859375 C 0.21875 -2.492188 0.375 -2.992188 0.6875 -3.359375 C 1 -3.722656 1.378906 -3.90625 1.828125 -3.90625 Z M 2.984375 -1.9375 C 2.984375 -2.40625 2.882812 -2.753906 2.6875 -2.984375 C 2.488281 -3.210938 2.238281 -3.328125 1.9375 -3.328125 C 1.488281 -3.328125 1.179688 -3.113281 1.015625 -2.6875 C 0.921875 -2.46875 0.875 -2.171875 0.875 -1.796875 C 0.875 -1.367188 0.960938 -1.039062 1.140625 -0.8125 C 1.316406 -0.59375 1.550781 -0.484375 1.84375 -0.484375 C 2.3125 -0.484375 2.640625 -0.691406 2.828125 -1.109375 C 2.929688 -1.335938 2.984375 -1.613281 2.984375 -1.9375 Z M 1.90625 -3.921875 Z M 1.90625 -3.921875 "/>
</g>
<g id="glyph-1-20">
<path d="M 2.578125 -0.609375 C 2.816406 -0.609375 3.015625 -0.632812 3.171875 -0.6875 C 3.441406 -0.78125 3.664062 -0.957031 3.84375 -1.21875 C 3.988281 -1.425781 4.09375 -1.695312 4.15625 -2.03125 C 4.1875 -2.226562 4.203125 -2.414062 4.203125 -2.59375 C 4.203125 -3.238281 4.070312 -3.738281 3.8125 -4.09375 C 3.5625 -4.457031 3.144531 -4.640625 2.5625 -4.640625 L 1.3125 -4.640625 L 1.3125 -0.609375 Z M 0.59375 -5.25 L 2.71875 -5.25 C 3.4375 -5.25 4 -4.992188 4.40625 -4.484375 C 4.757812 -4.023438 4.9375 -3.429688 4.9375 -2.703125 C 4.9375 -2.148438 4.832031 -1.644531 4.625 -1.1875 C 4.25 -0.394531 3.613281 0 2.71875 0 L 0.59375 0 Z M 0.59375 -5.25 "/>
</g>
<g id="glyph-1-21">
<path d="M 0.1875 -0.515625 L 2.453125 -3.25 L 0.359375 -3.25 L 0.359375 -3.828125 L 3.328125 -3.828125 L 3.328125 -3.3125 L 1.0625 -0.578125 L 3.390625 -0.578125 L 3.390625 0 L 0.1875 0 Z M 1.84375 -3.921875 Z M 1.84375 -3.921875 "/>
</g>
<g id="glyph-1-22">
<path d="M 0.46875 -5.28125 L 1.109375 -5.28125 L 1.109375 -3.3125 C 1.265625 -3.507812 1.40625 -3.644531 1.53125 -3.71875 C 1.738281 -3.851562 1.992188 -3.921875 2.296875 -3.921875 C 2.859375 -3.921875 3.238281 -3.726562 3.4375 -3.34375 C 3.539062 -3.132812 3.59375 -2.835938 3.59375 -2.453125 L 3.59375 0 L 2.9375 0 L 2.9375 -2.421875 C 2.9375 -2.703125 2.898438 -2.90625 2.828125 -3.03125 C 2.710938 -3.238281 2.492188 -3.34375 2.171875 -3.34375 C 1.898438 -3.34375 1.65625 -3.25 1.4375 -3.0625 C 1.21875 -2.882812 1.109375 -2.539062 1.109375 -2.03125 L 1.109375 0 L 0.46875 0 Z M 0.46875 -5.28125 "/>
</g>
<g id="glyph-1-23">
<path d="M 2 -0.421875 C 2.425781 -0.421875 2.71875 -0.582031 2.875 -0.90625 C 3.03125 -1.226562 3.109375 -1.585938 3.109375 -1.984375 C 3.109375 -2.335938 3.050781 -2.628906 2.9375 -2.859375 C 2.757812 -3.203125 2.445312 -3.375 2 -3.375 C 1.601562 -3.375 1.316406 -3.222656 1.140625 -2.921875 C 0.960938 -2.628906 0.875 -2.269531 0.875 -1.84375 C 0.875 -1.4375 0.960938 -1.097656 1.140625 -0.828125 C 1.316406 -0.554688 1.601562 -0.421875 2 -0.421875 Z M 2.015625 -3.9375 C 2.515625 -3.9375 2.929688 -3.769531 3.265625 -3.4375 C 3.609375 -3.113281 3.78125 -2.632812 3.78125 -2 C 3.78125 -1.375 3.628906 -0.859375 3.328125 -0.453125 C 3.023438 -0.0546875 2.5625 0.140625 1.9375 0.140625 C 1.40625 0.140625 0.984375 -0.0351562 0.671875 -0.390625 C 0.367188 -0.753906 0.21875 -1.234375 0.21875 -1.828125 C 0.21875 -2.472656 0.378906 -2.984375 0.703125 -3.359375 C 1.023438 -3.742188 1.460938 -3.9375 2.015625 -3.9375 Z M 2 -3.921875 Z M 2 -3.921875 "/>
</g>
<g id="glyph-2-0">
<path d="M 1.71875 -4.109375 C 2.175781 -4.109375 2.492188 -3.988281 2.671875 -3.75 C 2.847656 -3.519531 2.9375 -3.28125 2.9375 -3.03125 L 2.4375 -3.03125 C 2.40625 -3.1875 2.351562 -3.3125 2.28125 -3.40625 C 2.15625 -3.570312 1.96875 -3.65625 1.71875 -3.65625 C 1.4375 -3.65625 1.207031 -3.519531 1.03125 -3.25 C 0.863281 -2.988281 0.769531 -2.613281 0.75 -2.125 C 0.875 -2.289062 1.023438 -2.421875 1.203125 -2.515625 C 1.359375 -2.585938 1.539062 -2.625 1.75 -2.625 C 2.09375 -2.625 2.390625 -2.515625 2.640625 -2.296875 C 2.898438 -2.078125 3.03125 -1.75 3.03125 -1.3125 C 3.03125 -0.9375 2.90625 -0.601562 2.65625 -0.3125 C 2.414062 -0.03125 2.070312 0.109375 1.625 0.109375 C 1.25 0.109375 0.921875 -0.0351562 0.640625 -0.328125 C 0.359375 -0.617188 0.21875 -1.109375 0.21875 -1.796875 C 0.21875 -2.304688 0.28125 -2.738281 0.40625 -3.09375 C 0.644531 -3.769531 1.082031 -4.109375 1.71875 -4.109375 Z M 1.671875 -0.359375 C 1.941406 -0.359375 2.144531 -0.445312 2.28125 -0.625 C 2.414062 -0.800781 2.484375 -1.015625 2.484375 -1.265625 C 2.484375 -1.472656 2.421875 -1.671875 2.296875 -1.859375 C 2.179688 -2.054688 1.96875 -2.15625 1.65625 -2.15625 C 1.425781 -2.15625 1.226562 -2.082031 1.0625 -1.9375 C 0.894531 -1.789062 0.8125 -1.566406 0.8125 -1.265625 C 0.8125 -1.003906 0.882812 -0.785156 1.03125 -0.609375 C 1.1875 -0.441406 1.398438 -0.359375 1.671875 -0.359375 Z M 1.671875 -0.359375 "/>
</g>
<g id="glyph-2-1">
<path d="M 3.0625 -4.03125 L 3.0625 -3.578125 C 2.925781 -3.453125 2.75 -3.226562 2.53125 -2.90625 C 2.320312 -2.59375 2.128906 -2.253906 1.953125 -1.890625 C 1.785156 -1.535156 1.660156 -1.207031 1.578125 -0.90625 C 1.523438 -0.71875 1.457031 -0.414062 1.375 0 L 0.796875 0 C 0.929688 -0.78125 1.21875 -1.554688 1.65625 -2.328125 C 1.914062 -2.785156 2.191406 -3.179688 2.484375 -3.515625 L 0.21875 -3.515625 L 0.21875 -4.03125 Z M 3.0625 -4.03125 "/>
</g>
<g id="glyph-3-0">
<path d="M -0.421875 -2 C -0.421875 -2.425781 -0.582031 -2.71875 -0.90625 -2.875 C -1.226562 -3.03125 -1.585938 -3.109375 -1.984375 -3.109375 C -2.335938 -3.109375 -2.628906 -3.050781 -2.859375 -2.9375 C -3.203125 -2.757812 -3.375 -2.445312 -3.375 -2 C -3.375 -1.601562 -3.222656 -1.316406 -2.921875 -1.140625 C -2.628906 -0.960938 -2.269531 -0.875 -1.84375 -0.875 C -1.4375 -0.875 -1.097656 -0.960938 -0.828125 -1.140625 C -0.554688 -1.316406 -0.421875 -1.601562 -0.421875 -2 Z M -3.9375 -2.015625 C -3.9375 -2.515625 -3.769531 -2.929688 -3.4375 -3.265625 C -3.113281 -3.609375 -2.632812 -3.78125 -2 -3.78125 C -1.375 -3.78125 -0.859375 -3.628906 -0.453125 -3.328125 C -0.0546875 -3.023438 0.140625 -2.5625 0.140625 -1.9375 C 0.140625 -1.40625 -0.0351562 -0.984375 -0.390625 -0.671875 C -0.753906 -0.367188 -1.234375 -0.21875 -1.828125 -0.21875 C -2.472656 -0.21875 -2.984375 -0.378906 -3.359375 -0.703125 C -3.742188 -1.023438 -3.9375 -1.460938 -3.9375 -2.015625 Z M -3.921875 -2 Z M -3.921875 -2 "/>
</g>
<g id="glyph-3-1">
<path d="M -0.4375 -2.09375 C -0.4375 -2.394531 -0.5625 -2.644531 -0.8125 -2.84375 C -1.0625 -3.039062 -1.4375 -3.140625 -1.9375 -3.140625 C -2.238281 -3.140625 -2.503906 -3.09375 -2.734375 -3 C -3.148438 -2.832031 -3.359375 -2.53125 -3.359375 -2.09375 C -3.359375 -1.644531 -3.132812 -1.335938 -2.6875 -1.171875 C -2.445312 -1.085938 -2.144531 -1.046875 -1.78125 -1.046875 C -1.488281 -1.046875 -1.238281 -1.085938 -1.03125 -1.171875 C -0.632812 -1.335938 -0.4375 -1.644531 -0.4375 -2.09375 Z M -3.8125 -0.421875 L -3.8125 -1.046875 L -3.3125 -1.046875 C -3.476562 -1.171875 -3.609375 -1.3125 -3.703125 -1.46875 C -3.847656 -1.6875 -3.921875 -1.941406 -3.921875 -2.234375 C -3.921875 -2.671875 -3.753906 -3.039062 -3.421875 -3.34375 C -3.085938 -3.644531 -2.613281 -3.796875 -2 -3.796875 C -1.164062 -3.796875 -0.570312 -3.578125 -0.21875 -3.140625 C 0.0078125 -2.867188 0.125 -2.546875 0.125 -2.171875 C 0.125 -1.890625 0.0585938 -1.648438 -0.0625 -1.453125 C -0.132812 -1.335938 -0.253906 -1.207031 -0.421875 -1.0625 L 1.53125 -1.0625 L 1.53125 -0.421875 Z M -3.8125 -0.421875 "/>
</g>
<g id="glyph-3-2">
<path d="M -1.203125 -0.859375 C -0.984375 -0.878906 -0.816406 -0.929688 -0.703125 -1.015625 C -0.492188 -1.179688 -0.390625 -1.460938 -0.390625 -1.859375 C -0.390625 -2.097656 -0.441406 -2.304688 -0.546875 -2.484375 C -0.648438 -2.671875 -0.8125 -2.765625 -1.03125 -2.765625 C -1.195312 -2.765625 -1.320312 -2.691406 -1.40625 -2.546875 C -1.457031 -2.453125 -1.519531 -2.269531 -1.59375 -2 L -1.71875 -1.484375 C -1.800781 -1.148438 -1.894531 -0.910156 -2 -0.765625 C -2.164062 -0.484375 -2.40625 -0.34375 -2.71875 -0.34375 C -3.082031 -0.34375 -3.375 -0.472656 -3.59375 -0.734375 C -3.820312 -0.992188 -3.9375 -1.347656 -3.9375 -1.796875 C -3.9375 -2.367188 -3.765625 -2.78125 -3.421875 -3.03125 C -3.210938 -3.195312 -2.984375 -3.273438 -2.734375 -3.265625 L -2.734375 -2.65625 C -2.878906 -2.644531 -3.007812 -2.597656 -3.125 -2.515625 C -3.289062 -2.359375 -3.375 -2.097656 -3.375 -1.734375 C -3.375 -1.492188 -3.328125 -1.3125 -3.234375 -1.1875 C -3.148438 -1.0625 -3.03125 -1 -2.875 -1 C -2.707031 -1 -2.570312 -1.082031 -2.46875 -1.25 C -2.414062 -1.34375 -2.363281 -1.484375 -2.3125 -1.671875 L -2.21875 -2.09375 C -2.101562 -2.550781 -1.992188 -2.863281 -1.890625 -3.03125 C -1.722656 -3.28125 -1.460938 -3.40625 -1.109375 -3.40625 C -0.765625 -3.40625 -0.46875 -3.273438 -0.21875 -3.015625 C 0.0195312 -2.753906 0.140625 -2.359375 0.140625 -1.828125 C 0.140625 -1.253906 0.0117188 -0.847656 -0.234375 -0.609375 C -0.492188 -0.378906 -0.816406 -0.253906 -1.203125 -0.234375 Z M -3.921875 -1.8125 Z M -3.921875 -1.8125 "/>
</g>
<g id="glyph-3-3">
<path d="M -5.25 -1.671875 L -5.25 -2.21875 L 0 -0.546875 L 0 0 Z M -5.25 -1.671875 "/>
</g>
</g>
</defs>
<path fill="none" stroke-width="0.25" stroke-linecap="butt" stroke-linejoin="miter" stroke="rgb(0%, 0%, 0%)" stroke-opacity="1" stroke-dasharray="0.2 2" stroke-miterlimit="3.8" d="M 50.671875 336.046875 L 511.363281 336.046875 "/>
<path fill="none" stroke-width="0.6" stroke-linecap="butt" stroke-linejoin="miter" stroke="rgb(0%, 0%, 0%)" stroke-opacity="1" stroke-miterlimit="3.8" d="M 50.671875 336.046875 L 53.601562 336.046875 "/>
<path fill="none" stroke-width="0.6" stroke-linecap="butt" stroke-linejoin="miter" stroke="rgb(0%, 0%, 0%)" stroke-opacity="1" stroke-miterlimit="3.8" d="M 511.363281 336.046875 L 508.433594 336.046875 "/>
<g fill="rgb(0%, 0%, 0%)" fill-opacity="1">
<use xlink:href="#glyph-0-0" x="40.475" y="338.796558"/>
</g>
<g fill="rgb(0%, 0%, 0%)" fill-opacity="1">
<use xlink:href="#glyph-1-0" x="42.512344" y="338.796558"/>
</g>
<path fill="none" stroke-width="0.25" stroke-linecap="butt" stroke-linejoin="miter" stroke="rgb(0%, 0%, 0%)" stroke-opacity="1" stroke-dasharray="0.2 2" stroke-miterlimit="3.8" d="M 50.671875 296.851562 L 511.363281 296.851562 "/>
<path fill="none" stroke-width="0.6" stroke-linecap="butt" stroke-linejoin="miter" stroke="rgb(0%, 0%, 0%)" stroke-opacity="1" stroke-miterlimit="3.8" d="M 50.671875 296.851562 L 53.601562 296.851562 "/>
<path fill="none" stroke-width="0.6" stroke-linecap="butt" stroke-linejoin="miter" stroke="rgb(0%, 0%, 0%)" stroke-opacity="1" stroke-miterlimit="3.8" d="M 511.363281 296.851562 L 508.433594 296.851562 "/>
<g fill="rgb(0%, 0%, 0%)" fill-opacity="1">
<use xlink:href="#glyph-0-0" x="25.385" y="299.602095"/>
</g>
<g fill="rgb(0%, 0%, 0%)" fill-opacity="1">
<use xlink:href="#glyph-1-1" x="27.422344" y="299.602095"/>
<use xlink:href="#glyph-1-2" x="31.500614" y="299.602095"/>
<use xlink:href="#glyph-1-3" x="35.167118" y="299.602095"/>
<use xlink:href="#glyph-1-0" x="39.245387" y="299.602095"/>
</g>
<g fill="rgb(0%, 0%, 0%)" fill-opacity="1">
<use xlink:href="#glyph-2-0" x="43.325" y="296.852095"/>
</g>
<path fill="none" stroke-width="0.25" stroke-linecap="butt" stroke-linejoin="miter" stroke="rgb(0%, 0%, 0%)" stroke-opacity="1" stroke-dasharray="0.2 2" stroke-miterlimit="3.8" d="M 50.671875 257.65625 L 511.363281 257.65625 "/>
<path fill="none" stroke-width="0.6" stroke-linecap="butt" stroke-linejoin="miter" stroke="rgb(0%, 0%, 0%)" stroke-opacity="1" stroke-miterlimit="3.8" d="M 50.671875 257.65625 L 53.601562 257.65625 "/>
<path fill="none" stroke-width="0.6" stroke-linecap="butt" stroke-linejoin="miter" stroke="rgb(0%, 0%, 0%)" stroke-opacity="1" stroke-miterlimit="3.8" d="M 511.363281 257.65625 L 508.433594 257.65625 "/>
<g fill="rgb(0%, 0%, 0%)" fill-opacity="1">
<use xlink:href="#glyph-0-0" x="25.385" y="260.407095"/>
</g>
<g fill="rgb(0%, 0%, 0%)" fill-opacity="1">
<use xlink:href="#glyph-1-3" x="27.422344" y="260.407095"/>
<use xlink:href="#glyph-1-2" x="31.500614" y="260.407095"/>
<use xlink:href="#glyph-1-3" x="35.167118" y="260.407095"/>
<use xlink:href="#glyph-1-0" x="39.245387" y="260.407095"/>
</g>
<g fill="rgb(0%, 0%, 0%)" fill-opacity="1">
<use xlink:href="#glyph-2-1" x="43.325" y="257.657095"/>
</g>
<path fill="none" stroke-width="0.25" stroke-linecap="butt" stroke-linejoin="miter" stroke="rgb(0%, 0%, 0%)" stroke-opacity="1" stroke-dasharray="0.2 2" stroke-miterlimit="3.8" d="M 50.671875 218.464844 L 511.363281 218.464844 "/>
<path fill="none" stroke-width="0.6" stroke-linecap="butt" stroke-linejoin="miter" stroke="rgb(0%, 0%, 0%)" stroke-opacity="1" stroke-miterlimit="3.8" d="M 50.671875 218.464844 L 53.601562 218.464844 "/>
<path fill="none" stroke-width="0.6" stroke-linecap="butt" stroke-linejoin="miter" stroke="rgb(0%, 0%, 0%)" stroke-opacity="1" stroke-miterlimit="3.8" d="M 511.363281 218.464844 L 508.433594 218.464844 "/>
<g fill="rgb(0%, 0%, 0%)" fill-opacity="1">
<use xlink:href="#glyph-0-0" x="19.27" y="221.217095"/>
</g>
<g fill="rgb(0%, 0%, 0%)" fill-opacity="1">
<use xlink:href="#glyph-1-3" x="21.307344" y="221.217095"/>
<use xlink:href="#glyph-1-4" x="25.385614" y="221.217095"/>
<use xlink:href="#glyph-1-1" x="27.422958" y="221.217095"/>
<use xlink:href="#glyph-1-2" x="31.501228" y="221.217095"/>
<use xlink:href="#glyph-1-3" x="35.167732" y="221.217095"/>
<use xlink:href="#glyph-1-0" x="39.246002" y="221.217095"/>
</g>
<g fill="rgb(0%, 0%, 0%)" fill-opacity="1">
<use xlink:href="#glyph-2-1" x="43.325" y="218.467095"/>
</g>
<path fill="none" stroke-width="0.25" stroke-linecap="butt" stroke-linejoin="miter" stroke="rgb(0%, 0%, 0%)" stroke-opacity="1" stroke-dasharray="0.2 2" stroke-miterlimit="3.8" d="M 50.671875 179.269531 L 511.363281 179.269531 "/>
<path fill="none" stroke-width="0.6" stroke-linecap="butt" stroke-linejoin="miter" stroke="rgb(0%, 0%, 0%)" stroke-opacity="1" stroke-miterlimit="3.8" d="M 50.671875 179.269531 L 53.601562 179.269531 "/>
<path fill="none" stroke-width="0.6" stroke-linecap="butt" stroke-linejoin="miter" stroke="rgb(0%, 0%, 0%)" stroke-opacity="1" stroke-miterlimit="3.8" d="M 511.363281 179.269531 L 508.433594 179.269531 "/>
<g fill="rgb(0%, 0%, 0%)" fill-opacity="1">
<use xlink:href="#glyph-0-0" x="25.385" y="182.022095"/>
</g>
<g fill="rgb(0%, 0%, 0%)" fill-opacity="1">
<use xlink:href="#glyph-1-5" x="27.422344" y="182.022095"/>
<use xlink:href="#glyph-1-2" x="31.500614" y="182.022095"/>
<use xlink:href="#glyph-1-3" x="35.167118" y="182.022095"/>
<use xlink:href="#glyph-1-0" x="39.245387" y="182.022095"/>
</g>
<g fill="rgb(0%, 0%, 0%)" fill-opacity="1">
<use xlink:href="#glyph-2-1" x="43.325" y="179.272095"/>
</g>
<path fill="none" stroke-width="0.25" stroke-linecap="butt" stroke-linejoin="miter" stroke="rgb(0%, 0%, 0%)" stroke-opacity="1" stroke-dasharray="0.2 2" stroke-miterlimit="3.8" d="M 50.671875 140.074219 L 511.363281 140.074219 "/>
<path fill="none" stroke-width="0.6" stroke-linecap="butt" stroke-linejoin="miter" stroke="rgb(0%, 0%, 0%)" stroke-opacity="1" stroke-miterlimit="3.8" d="M 50.671875 140.074219 L 53.601562 140.074219 "/>
<path fill="none" stroke-width="0.6" stroke-linecap="butt" stroke-linejoin="miter" stroke="rgb(0%, 0%, 0%)" stroke-opacity="1" stroke-miterlimit="3.8" d="M 511.363281 140.074219 L 508.433594 140.074219 "/>
<g fill="rgb(0%, 0%, 0%)" fill-opacity="1">
<use xlink:href="#glyph-0-0" x="19.27" y="142.827095"/>
</g>
<g fill="rgb(0%, 0%, 0%)" fill-opacity="1">
<use xlink:href="#glyph-1-5" x="21.307344" y="142.827095"/>
<use xlink:href="#glyph-1-4" x="25.385614" y="142.827095"/>
<use xlink:href="#glyph-1-1" x="27.422958" y="142.827095"/>
<use xlink:href="#glyph-1-2" x="31.501228" y="142.827095"/>
<use xlink:href="#glyph-1-3" x="35.167732" y="142.827095"/>
<use xlink:href="#glyph-1-0" x="39.246002" y="142.827095"/>
</g>
<g fill="rgb(0%, 0%, 0%)" fill-opacity="1">
<use xlink:href="#glyph-2-1" x="43.325" y="140.077095"/>
</g>
<path fill="none" stroke-width="0.25" stroke-linecap="butt" stroke-linejoin="miter" stroke="rgb(0%, 0%, 0%)" stroke-opacity="1" stroke-dasharray="0.2 2" stroke-miterlimit="3.8" d="M 50.671875 100.878906 L 511.363281 100.878906 "/>
<path fill="none" stroke-width="0.6" stroke-linecap="butt" stroke-linejoin="miter" stroke="rgb(0%, 0%, 0%)" stroke-opacity="1" stroke-miterlimit="3.8" d="M 50.671875 100.878906 L 53.601562 100.878906 "/>
<path fill="none" stroke-width="0.6" stroke-linecap="butt" stroke-linejoin="miter" stroke="rgb(0%, 0%, 0%)" stroke-opacity="1" stroke-miterlimit="3.8" d="M 511.363281 100.878906 L 508.433594 100.878906 "/>
<g fill="rgb(0%, 0%, 0%)" fill-opacity="1">
<use xlink:href="#glyph-0-0" x="25.385" y="103.632095"/>
</g>
<g fill="rgb(0%, 0%, 0%)" fill-opacity="1">
<use xlink:href="#glyph-1-6" x="27.422344" y="103.632095"/>
<use xlink:href="#glyph-1-2" x="31.500614" y="103.632095"/>
<use xlink:href="#glyph-1-3" x="35.167118" y="103.632095"/>
<use xlink:href="#glyph-1-0" x="39.245387" y="103.632095"/>
</g>
<g fill="rgb(0%, 0%, 0%)" fill-opacity="1">
<use xlink:href="#glyph-2-1" x="43.325" y="100.882095"/>
</g>
<path fill="none" stroke-width="0.25" stroke-linecap="butt" stroke-linejoin="miter" stroke="rgb(0%, 0%, 0%)" stroke-opacity="1" stroke-dasharray="0.2 2" stroke-miterlimit="3.8" d="M 50.671875 61.691406 L 511.363281 61.691406 "/>
<path fill="none" stroke-width="0.6" stroke-linecap="butt" stroke-linejoin="miter" stroke="rgb(0%, 0%, 0%)" stroke-opacity="1" stroke-miterlimit="3.8" d="M 50.671875 61.691406 L 53.601562 61.691406 "/>
<path fill="none" stroke-width="0.6" stroke-linecap="butt" stroke-linejoin="miter" stroke="rgb(0%, 0%, 0%)" stroke-opacity="1" stroke-miterlimit="3.8" d="M 511.363281 61.691406 L 508.433594 61.691406 "/>
<g fill="rgb(0%, 0%, 0%)" fill-opacity="1">
<use xlink:href="#glyph-0-0" x="19.27" y="64.442095"/>
</g>
<g fill="rgb(0%, 0%, 0%)" fill-opacity="1">
<use xlink:href="#glyph-1-6" x="21.307344" y="64.442095"/>
<use xlink:href="#glyph-1-4" x="25.385614" y="64.442095"/>
<use xlink:href="#glyph-1-1" x="27.422958" y="64.442095"/>
<use xlink:href="#glyph-1-2" x="31.501228" y="64.442095"/>
<use xlink:href="#glyph-1-3" x="35.167732" y="64.442095"/>
<use xlink:href="#glyph-1-0" x="39.246002" y="64.442095"/>
</g>
<g fill="rgb(0%, 0%, 0%)" fill-opacity="1">
<use xlink:href="#glyph-2-1" x="43.325" y="61.692095"/>
</g>
<path fill="none" stroke-width="0.25" stroke-linecap="butt" stroke-linejoin="miter" stroke="rgb(0%, 0%, 0%)" stroke-opacity="1" stroke-dasharray="0.2 2" stroke-miterlimit="3.8" d="M 50.671875 22.496094 L 511.363281 22.496094 "/>
<path fill="none" stroke-width="0.6" stroke-linecap="butt" stroke-linejoin="miter" stroke="rgb(0%, 0%, 0%)" stroke-opacity="1" stroke-miterlimit="3.8" d="M 50.671875 22.496094 L 53.601562 22.496094 "/>
<path fill="none" stroke-width="0.6" stroke-linecap="butt" stroke-linejoin="miter" stroke="rgb(0%, 0%, 0%)" stroke-opacity="1" stroke-miterlimit="3.8" d="M 511.363281 22.496094 L 508.433594 22.496094 "/>
<g fill="rgb(0%, 0%, 0%)" fill-opacity="1">
<use xlink:href="#glyph-0-0" x="25.385" y="25.247095"/>
</g>
<g fill="rgb(0%, 0%, 0%)" fill-opacity="1">
<use xlink:href="#glyph-1-7" x="27.422344" y="25.247095"/>
<use xlink:href="#glyph-1-2" x="31.500614" y="25.247095"/>
<use xlink:href="#glyph-1-3" x="35.167118" y="25.247095"/>
<use xlink:href="#glyph-1-0" x="39.245387" y="25.247095"/>
</g>
<g fill="rgb(0%, 0%, 0%)" fill-opacity="1">
<use xlink:href="#glyph-2-1" x="43.325" y="22.497095"/>
</g>
<path fill="none" stroke-width="0.25" stroke-linecap="butt" stroke-linejoin="miter" stroke="rgb(0%, 0%, 0%)" stroke-opacity="1" stroke-dasharray="0.2 2" stroke-miterlimit="3.8" d="M 50.671875 336.046875 L 50.671875 22.496094 "/>
<path fill="none" stroke-width="0.6" stroke-linecap="butt" stroke-linejoin="miter" stroke="rgb(0%, 0%, 0%)" stroke-opacity="1" stroke-miterlimit="3.8" d="M 50.671875 336.046875 L 50.671875 333.113281 "/>
<path fill="none" stroke-width="0.6" stroke-linecap="butt" stroke-linejoin="miter" stroke="rgb(0%, 0%, 0%)" stroke-opacity="1" stroke-miterlimit="3.8" d="M 50.671875 22.496094 L 50.671875 25.425781 "/>
<g fill="rgb(0%, 0%, 0%)" fill-opacity="1">
<use xlink:href="#glyph-0-0" x="41.4925" y="346.126558"/>
</g>
<g fill="rgb(0%, 0%, 0%)" fill-opacity="1">
<use xlink:href="#glyph-1-3" x="43.529844" y="346.126558"/>
<use xlink:href="#glyph-1-0" x="47.608114" y="346.126558"/>
<use xlink:href="#glyph-1-0" x="51.686383" y="346.126558"/>
<use xlink:href="#glyph-1-0" x="55.764653" y="346.126558"/>
</g>
<path fill="none" stroke-width="0.6" stroke-linecap="butt" stroke-linejoin="miter" stroke="rgb(0%, 0%, 0%)" stroke-opacity="1" stroke-miterlimit="3.8" d="M 96.898438 336.046875 L 96.898438 334.578125 "/>
<path fill="none" stroke-width="0.6" stroke-linecap="butt" stroke-linejoin="miter" stroke="rgb(0%, 0%, 0%)" stroke-opacity="1" stroke-miterlimit="3.8" d="M 96.898438 22.496094 L 96.898438 23.960938 "/>
<path fill="none" stroke-width="0.6" stroke-linecap="butt" stroke-linejoin="miter" stroke="rgb(0%, 0%, 0%)" stroke-opacity="1" stroke-miterlimit="3.8" d="M 123.941406 336.046875 L 123.941406 334.578125 "/>
<path fill="none" stroke-width="0.6" stroke-linecap="butt" stroke-linejoin="miter" stroke="rgb(0%, 0%, 0%)" stroke-opacity="1" stroke-miterlimit="3.8" d="M 123.941406 22.496094 L 123.941406 23.960938 "/>
<path fill="none" stroke-width="0.6" stroke-linecap="butt" stroke-linejoin="miter" stroke="rgb(0%, 0%, 0%)" stroke-opacity="1" stroke-miterlimit="3.8" d="M 143.125 336.046875 L 143.125 334.578125 "/>
<path fill="none" stroke-width="0.6" stroke-linecap="butt" stroke-linejoin="miter" stroke="rgb(0%, 0%, 0%)" stroke-opacity="1" stroke-miterlimit="3.8" d="M 143.125 22.496094 L 143.125 23.960938 "/>
<path fill="none" stroke-width="0.6" stroke-linecap="butt" stroke-linejoin="miter" stroke="rgb(0%, 0%, 0%)" stroke-opacity="1" stroke-miterlimit="3.8" d="M 158.003906 336.046875 L 158.003906 334.578125 "/>
<path fill="none" stroke-width="0.6" stroke-linecap="butt" stroke-linejoin="miter" stroke="rgb(0%, 0%, 0%)" stroke-opacity="1" stroke-miterlimit="3.8" d="M 158.003906 22.496094 L 158.003906 23.960938 "/>
<path fill="none" stroke-width="0.6" stroke-linecap="butt" stroke-linejoin="miter" stroke="rgb(0%, 0%, 0%)" stroke-opacity="1" stroke-miterlimit="3.8" d="M 170.164062 336.046875 L 170.164062 334.578125 "/>
<path fill="none" stroke-width="0.6" stroke-linecap="butt" stroke-linejoin="miter" stroke="rgb(0%, 0%, 0%)" stroke-opacity="1" stroke-miterlimit="3.8" d="M 170.164062 22.496094 L 170.164062 23.960938 "/>
<path fill="none" stroke-width="0.6" stroke-linecap="butt" stroke-linejoin="miter" stroke="rgb(0%, 0%, 0%)" stroke-opacity="1" stroke-miterlimit="3.8" d="M 180.445312 336.046875 L 180.445312 334.578125 "/>
<path fill="none" stroke-width="0.6" stroke-linecap="butt" stroke-linejoin="miter" stroke="rgb(0%, 0%, 0%)" stroke-opacity="1" stroke-miterlimit="3.8" d="M 180.445312 22.496094 L 180.445312 23.960938 "/>
<path fill="none" stroke-width="0.6" stroke-linecap="butt" stroke-linejoin="miter" stroke="rgb(0%, 0%, 0%)" stroke-opacity="1" stroke-miterlimit="3.8" d="M 189.355469 336.046875 L 189.355469 334.578125 "/>
<path fill="none" stroke-width="0.6" stroke-linecap="butt" stroke-linejoin="miter" stroke="rgb(0%, 0%, 0%)" stroke-opacity="1" stroke-miterlimit="3.8" d="M 189.355469 22.496094 L 189.355469 23.960938 "/>
<path fill="none" stroke-width="0.6" stroke-linecap="butt" stroke-linejoin="miter" stroke="rgb(0%, 0%, 0%)" stroke-opacity="1" stroke-miterlimit="3.8" d="M 197.210938 336.046875 L 197.210938 334.578125 "/>
<path fill="none" stroke-width="0.6" stroke-linecap="butt" stroke-linejoin="miter" stroke="rgb(0%, 0%, 0%)" stroke-opacity="1" stroke-miterlimit="3.8" d="M 197.210938 22.496094 L 197.210938 23.960938 "/>
<path fill="none" stroke-width="0.25" stroke-linecap="butt" stroke-linejoin="miter" stroke="rgb(0%, 0%, 0%)" stroke-opacity="1" stroke-dasharray="0.2 2" stroke-miterlimit="3.8" d="M 204.234375 336.046875 L 204.234375 22.496094 "/>
<path fill="none" stroke-width="0.6" stroke-linecap="butt" stroke-linejoin="miter" stroke="rgb(0%, 0%, 0%)" stroke-opacity="1" stroke-miterlimit="3.8" d="M 204.234375 336.046875 L 204.234375 333.113281 "/>
<path fill="none" stroke-width="0.6" stroke-linecap="butt" stroke-linejoin="miter" stroke="rgb(0%, 0%, 0%)" stroke-opacity="1" stroke-miterlimit="3.8" d="M 204.234375 22.496094 L 204.234375 25.425781 "/>
<g fill="rgb(0%, 0%, 0%)" fill-opacity="1">
<use xlink:href="#glyph-0-0" x="193.0175" y="346.126558"/>
</g>
<g fill="rgb(0%, 0%, 0%)" fill-opacity="1">
<use xlink:href="#glyph-1-3" x="195.054844" y="346.126558"/>
<use xlink:href="#glyph-1-0" x="199.133114" y="346.126558"/>
<use xlink:href="#glyph-1-0" x="203.211383" y="346.126558"/>
<use xlink:href="#glyph-1-0" x="207.289653" y="346.126558"/>
<use xlink:href="#glyph-1-0" x="211.367923" y="346.126558"/>
</g>
<path fill="none" stroke-width="0.6" stroke-linecap="butt" stroke-linejoin="miter" stroke="rgb(0%, 0%, 0%)" stroke-opacity="1" stroke-miterlimit="3.8" d="M 250.464844 336.046875 L 250.464844 334.578125 "/>
<path fill="none" stroke-width="0.6" stroke-linecap="butt" stroke-linejoin="miter" stroke="rgb(0%, 0%, 0%)" stroke-opacity="1" stroke-miterlimit="3.8" d="M 250.464844 22.496094 L 250.464844 23.960938 "/>
<path fill="none" stroke-width="0.6" stroke-linecap="butt" stroke-linejoin="miter" stroke="rgb(0%, 0%, 0%)" stroke-opacity="1" stroke-miterlimit="3.8" d="M 277.503906 336.046875 L 277.503906 334.578125 "/>
<path fill="none" stroke-width="0.6" stroke-linecap="butt" stroke-linejoin="miter" stroke="rgb(0%, 0%, 0%)" stroke-opacity="1" stroke-miterlimit="3.8" d="M 277.503906 22.496094 L 277.503906 23.960938 "/>
<path fill="none" stroke-width="0.6" stroke-linecap="butt" stroke-linejoin="miter" stroke="rgb(0%, 0%, 0%)" stroke-opacity="1" stroke-miterlimit="3.8" d="M 296.691406 336.046875 L 296.691406 334.578125 "/>
<path fill="none" stroke-width="0.6" stroke-linecap="butt" stroke-linejoin="miter" stroke="rgb(0%, 0%, 0%)" stroke-opacity="1" stroke-miterlimit="3.8" d="M 296.691406 22.496094 L 296.691406 23.960938 "/>
<path fill="none" stroke-width="0.6" stroke-linecap="butt" stroke-linejoin="miter" stroke="rgb(0%, 0%, 0%)" stroke-opacity="1" stroke-miterlimit="3.8" d="M 311.570312 336.046875 L 311.570312 334.578125 "/>
<path fill="none" stroke-width="0.6" stroke-linecap="butt" stroke-linejoin="miter" stroke="rgb(0%, 0%, 0%)" stroke-opacity="1" stroke-miterlimit="3.8" d="M 311.570312 22.496094 L 311.570312 23.960938 "/>
<path fill="none" stroke-width="0.6" stroke-linecap="butt" stroke-linejoin="miter" stroke="rgb(0%, 0%, 0%)" stroke-opacity="1" stroke-miterlimit="3.8" d="M 323.730469 336.046875 L 323.730469 334.578125 "/>
<path fill="none" stroke-width="0.6" stroke-linecap="butt" stroke-linejoin="miter" stroke="rgb(0%, 0%, 0%)" stroke-opacity="1" stroke-miterlimit="3.8" d="M 323.730469 22.496094 L 323.730469 23.960938 "/>
<path fill="none" stroke-width="0.6" stroke-linecap="butt" stroke-linejoin="miter" stroke="rgb(0%, 0%, 0%)" stroke-opacity="1" stroke-miterlimit="3.8" d="M 334.011719 336.046875 L 334.011719 334.578125 "/>
<path fill="none" stroke-width="0.6" stroke-linecap="butt" stroke-linejoin="miter" stroke="rgb(0%, 0%, 0%)" stroke-opacity="1" stroke-miterlimit="3.8" d="M 334.011719 22.496094 L 334.011719 23.960938 "/>
<path fill="none" stroke-width="0.6" stroke-linecap="butt" stroke-linejoin="miter" stroke="rgb(0%, 0%, 0%)" stroke-opacity="1" stroke-miterlimit="3.8" d="M 342.921875 336.046875 L 342.921875 334.578125 "/>
<path fill="none" stroke-width="0.6" stroke-linecap="butt" stroke-linejoin="miter" stroke="rgb(0%, 0%, 0%)" stroke-opacity="1" stroke-miterlimit="3.8" d="M 342.921875 22.496094 L 342.921875 23.960938 "/>
<path fill="none" stroke-width="0.6" stroke-linecap="butt" stroke-linejoin="miter" stroke="rgb(0%, 0%, 0%)" stroke-opacity="1" stroke-miterlimit="3.8" d="M 350.773438 336.046875 L 350.773438 334.578125 "/>
<path fill="none" stroke-width="0.6" stroke-linecap="butt" stroke-linejoin="miter" stroke="rgb(0%, 0%, 0%)" stroke-opacity="1" stroke-miterlimit="3.8" d="M 350.773438 22.496094 L 350.773438 23.960938 "/>
<path fill="none" stroke-width="0.25" stroke-linecap="butt" stroke-linejoin="miter" stroke="rgb(0%, 0%, 0%)" stroke-opacity="1" stroke-dasharray="0.2 2" stroke-miterlimit="3.8" d="M 357.800781 336.046875 L 357.800781 22.496094 "/>
<path fill="none" stroke-width="0.6" stroke-linecap="butt" stroke-linejoin="miter" stroke="rgb(0%, 0%, 0%)" stroke-opacity="1" stroke-miterlimit="3.8" d="M 357.800781 336.046875 L 357.800781 333.113281 "/>
<path fill="none" stroke-width="0.6" stroke-linecap="butt" stroke-linejoin="miter" stroke="rgb(0%, 0%, 0%)" stroke-opacity="1" stroke-miterlimit="3.8" d="M 357.800781 22.496094 L 357.800781 25.425781 "/>
<g fill="rgb(0%, 0%, 0%)" fill-opacity="1">
<use xlink:href="#glyph-0-0" x="344.5425" y="346.126558"/>
</g>
<g fill="rgb(0%, 0%, 0%)" fill-opacity="1">
<use xlink:href="#glyph-1-3" x="346.579844" y="346.126558"/>
<use xlink:href="#glyph-1-0" x="350.658114" y="346.126558"/>
<use xlink:href="#glyph-1-0" x="354.736383" y="346.126558"/>
<use xlink:href="#glyph-1-0" x="358.814653" y="346.126558"/>
<use xlink:href="#glyph-1-0" x="362.892923" y="346.126558"/>
<use xlink:href="#glyph-1-0" x="366.971192" y="346.126558"/>
</g>
<path fill="none" stroke-width="0.6" stroke-linecap="butt" stroke-linejoin="miter" stroke="rgb(0%, 0%, 0%)" stroke-opacity="1" stroke-miterlimit="3.8" d="M 404.03125 336.046875 L 404.03125 334.578125 "/>
<path fill="none" stroke-width="0.6" stroke-linecap="butt" stroke-linejoin="miter" stroke="rgb(0%, 0%, 0%)" stroke-opacity="1" stroke-miterlimit="3.8" d="M 404.03125 22.496094 L 404.03125 23.960938 "/>
<path fill="none" stroke-width="0.6" stroke-linecap="butt" stroke-linejoin="miter" stroke="rgb(0%, 0%, 0%)" stroke-opacity="1" stroke-miterlimit="3.8" d="M 431.070312 336.046875 L 431.070312 334.578125 "/>
<path fill="none" stroke-width="0.6" stroke-linecap="butt" stroke-linejoin="miter" stroke="rgb(0%, 0%, 0%)" stroke-opacity="1" stroke-miterlimit="3.8" d="M 431.070312 22.496094 L 431.070312 23.960938 "/>
<path fill="none" stroke-width="0.6" stroke-linecap="butt" stroke-linejoin="miter" stroke="rgb(0%, 0%, 0%)" stroke-opacity="1" stroke-miterlimit="3.8" d="M 450.253906 336.046875 L 450.253906 334.578125 "/>
<path fill="none" stroke-width="0.6" stroke-linecap="butt" stroke-linejoin="miter" stroke="rgb(0%, 0%, 0%)" stroke-opacity="1" stroke-miterlimit="3.8" d="M 450.253906 22.496094 L 450.253906 23.960938 "/>
<path fill="none" stroke-width="0.6" stroke-linecap="butt" stroke-linejoin="miter" stroke="rgb(0%, 0%, 0%)" stroke-opacity="1" stroke-miterlimit="3.8" d="M 465.136719 336.046875 L 465.136719 334.578125 "/>
<path fill="none" stroke-width="0.6" stroke-linecap="butt" stroke-linejoin="miter" stroke="rgb(0%, 0%, 0%)" stroke-opacity="1" stroke-miterlimit="3.8" d="M 465.136719 22.496094 L 465.136719 23.960938 "/>
<path fill="none" stroke-width="0.6" stroke-linecap="butt" stroke-linejoin="miter" stroke="rgb(0%, 0%, 0%)" stroke-opacity="1" stroke-miterlimit="3.8" d="M 477.296875 336.046875 L 477.296875 334.578125 "/>
<path fill="none" stroke-width="0.6" stroke-linecap="butt" stroke-linejoin="miter" stroke="rgb(0%, 0%, 0%)" stroke-opacity="1" stroke-miterlimit="3.8" d="M 477.296875 22.496094 L 477.296875 23.960938 "/>
<path fill="none" stroke-width="0.6" stroke-linecap="butt" stroke-linejoin="miter" stroke="rgb(0%, 0%, 0%)" stroke-opacity="1" stroke-miterlimit="3.8" d="M 487.574219 336.046875 L 487.574219 334.578125 "/>
<path fill="none" stroke-width="0.6" stroke-linecap="butt" stroke-linejoin="miter" stroke="rgb(0%, 0%, 0%)" stroke-opacity="1" stroke-miterlimit="3.8" d="M 487.574219 22.496094 L 487.574219 23.960938 "/>
<path fill="none" stroke-width="0.6" stroke-linecap="butt" stroke-linejoin="miter" stroke="rgb(0%, 0%, 0%)" stroke-opacity="1" stroke-miterlimit="3.8" d="M 496.484375 336.046875 L 496.484375 334.578125 "/>
<path fill="none" stroke-width="0.6" stroke-linecap="butt" stroke-linejoin="miter" stroke="rgb(0%, 0%, 0%)" stroke-opacity="1" stroke-miterlimit="3.8" d="M 496.484375 22.496094 L 496.484375 23.960938 "/>
<path fill="none" stroke-width="0.6" stroke-linecap="butt" stroke-linejoin="miter" stroke="rgb(0%, 0%, 0%)" stroke-opacity="1" stroke-miterlimit="3.8" d="M 504.339844 336.046875 L 504.339844 334.578125 "/>
<path fill="none" stroke-width="0.6" stroke-linecap="butt" stroke-linejoin="miter" stroke="rgb(0%, 0%, 0%)" stroke-opacity="1" stroke-miterlimit="3.8" d="M 504.339844 22.496094 L 504.339844 23.960938 "/>
<path fill="none" stroke-width="0.25" stroke-linecap="butt" stroke-linejoin="miter" stroke="rgb(0%, 0%, 0%)" stroke-opacity="1" stroke-dasharray="0.2 2" stroke-miterlimit="3.8" d="M 511.363281 336.046875 L 511.363281 22.496094 "/>
<path fill="none" stroke-width="0.6" stroke-linecap="butt" stroke-linejoin="miter" stroke="rgb(0%, 0%, 0%)" stroke-opacity="1" stroke-miterlimit="3.8" d="M 511.363281 336.046875 L 511.363281 333.113281 "/>
<path fill="none" stroke-width="0.6" stroke-linecap="butt" stroke-linejoin="miter" stroke="rgb(0%, 0%, 0%)" stroke-opacity="1" stroke-miterlimit="3.8" d="M 511.363281 22.496094 L 511.363281 25.425781 "/>
<g fill="rgb(0%, 0%, 0%)" fill-opacity="1">
<use xlink:href="#glyph-0-0" x="500.7625" y="346.127095"/>
</g>
<g fill="rgb(0%, 0%, 0%)" fill-opacity="1">
<use xlink:href="#glyph-1-3" x="502.799844" y="346.127095"/>
<use xlink:href="#glyph-1-2" x="506.878114" y="346.127095"/>
<use xlink:href="#glyph-1-3" x="510.544618" y="346.127095"/>
<use xlink:href="#glyph-1-0" x="514.622887" y="346.127095"/>
</g>
<g fill="rgb(0%, 0%, 0%)" fill-opacity="1">
<use xlink:href="#glyph-2-0" x="518.7025" y="343.377095"/>
</g>
<path fill="none" stroke-width="0.6" stroke-linecap="butt" stroke-linejoin="miter" stroke="rgb(0%, 0%, 0%)" stroke-opacity="1" stroke-miterlimit="3.8" d="M 50.671875 22.496094 L 511.363281 22.496094 L 511.363281 336.046875 L 50.671875 336.046875 Z M 50.671875 22.496094 "/>
<g fill="rgb(0%, 0%, 0%)" fill-opacity="1">
<use xlink:href="#glyph-1-8" x="526.075" y="28.911558"/>
<use xlink:href="#glyph-1-9" x="527.704159" y="28.911558"/>
<use xlink:href="#glyph-1-10" x="531.782429" y="28.911558"/>
<use xlink:href="#glyph-1-11" x="535.448933" y="28.911558"/>
<use xlink:href="#glyph-1-12" x="539.527203" y="28.911558"/>
<use xlink:href="#glyph-1-13" x="541.969152" y="28.911558"/>
</g>
<path fill="none" stroke-width="1" stroke-linecap="butt" stroke-linejoin="miter" stroke="rgb(58.03833%, 0%, 82.743835%)" stroke-opacity="1" stroke-miterlimit="3.8" d="M 548.085938 26.160156 L 567.335938 26.160156 "/>
<path fill="none" stroke-width="1" stroke-linecap="butt" stroke-linejoin="miter" stroke="rgb(58.03833%, 0%, 82.743835%)" stroke-opacity="1" stroke-miterlimit="3.8" d="M 50.671875 155.5 L 158.003906 160.320312 L 204.234375 165.078125 L 311.570312 177.960938 L 357.800781 199.40625 L 465.136719 272.648438 L 511.363281 299.425781 "/>
<path fill="none" stroke-width="1" stroke-linecap="butt" stroke-linejoin="miter" stroke="rgb(58.03833%, 0%, 82.743835%)" stroke-opacity="1" stroke-miterlimit="3.8" d="M 47.070312 155.5 L 54.269531 155.5 "/>
<path fill="none" stroke-width="1" stroke-linecap="butt" stroke-linejoin="miter" stroke="rgb(58.03833%, 0%, 82.743835%)" stroke-opacity="1" stroke-miterlimit="3.8" d="M 50.671875 151.898438 L 50.671875 159.101562 "/>
<path fill="none" stroke-width="1" stroke-linecap="butt" stroke-linejoin="miter" stroke="rgb(58.03833%, 0%, 82.743835%)" stroke-opacity="1" stroke-miterlimit="3.8" d="M 154.40625 160.320312 L 161.605469 160.320312 "/>
<path fill="none" stroke-width="1" stroke-linecap="butt" stroke-linejoin="miter" stroke="rgb(58.03833%, 0%, 82.743835%)" stroke-opacity="1" stroke-miterlimit="3.8" d="M 158.003906 156.71875 L 158.003906 163.921875 "/>
<path fill="none" stroke-width="1" stroke-linecap="butt" stroke-linejoin="miter" stroke="rgb(58.03833%, 0%, 82.743835%)" stroke-opacity="1" stroke-miterlimit="3.8" d="M 200.636719 165.078125 L 207.835938 165.078125 "/>
<path fill="none" stroke-width="1" stroke-linecap="butt" stroke-linejoin="miter" stroke="rgb(58.03833%, 0%, 82.743835%)" stroke-opacity="1" stroke-miterlimit="3.8" d="M 204.234375 161.480469 L 204.234375 168.679688 "/>
<path fill="none" stroke-width="1" stroke-linecap="butt" stroke-linejoin="miter" stroke="rgb(58.03833%, 0%, 82.743835%)" stroke-opacity="1" stroke-miterlimit="3.8" d="M 307.96875 177.960938 L 315.171875 177.960938 "/>
<path fill="none" stroke-width="1" stroke-linecap="butt" stroke-linejoin="miter" stroke="rgb(58.03833%, 0%, 82.743835%)" stroke-opacity="1" stroke-miterlimit="3.8" d="M 311.570312 174.359375 L 311.570312 181.558594 "/>
<path fill="none" stroke-width="1" stroke-linecap="butt" stroke-linejoin="miter" stroke="rgb(58.03833%, 0%, 82.743835%)" stroke-opacity="1" stroke-miterlimit="3.8" d="M 354.199219 199.40625 L 361.398438 199.40625 "/>
<path fill="none" stroke-width="1" stroke-linecap="butt" stroke-linejoin="miter" stroke="rgb(58.03833%, 0%, 82.743835%)" stroke-opacity="1" stroke-miterlimit="3.8" d="M 357.800781 195.804688 L 357.800781 203.003906 "/>
<path fill="none" stroke-width="1" stroke-linecap="butt" stroke-linejoin="miter" stroke="rgb(58.03833%, 0%, 82.743835%)" stroke-opacity="1" stroke-miterlimit="3.8" d="M 461.535156 272.648438 L 468.734375 272.648438 "/>
<path fill="none" stroke-width="1" stroke-linecap="butt" stroke-linejoin="miter" stroke="rgb(58.03833%, 0%, 82.743835%)" stroke-opacity="1" stroke-miterlimit="3.8" d="M 465.136719 269.050781 L 465.136719 276.25 "/>
<path fill="none" stroke-width="1" stroke-linecap="butt" stroke-linejoin="miter" stroke="rgb(58.03833%, 0%, 82.743835%)" stroke-opacity="1" stroke-miterlimit="3.8" d="M 507.765625 299.425781 L 514.964844 299.425781 "/>
<path fill="none" stroke-width="1" stroke-linecap="butt" stroke-linejoin="miter" stroke="rgb(58.03833%, 0%, 82.743835%)" stroke-opacity="1" stroke-miterlimit="3.8" d="M 511.363281 295.824219 L 511.363281 303.023438 "/>
<path fill="none" stroke-width="1" stroke-linecap="butt" stroke-linejoin="miter" stroke="rgb(58.03833%, 0%, 82.743835%)" stroke-opacity="1" stroke-miterlimit="3.8" d="M 554.109375 26.160156 L 561.308594 26.160156 "/>
<path fill="none" stroke-width="1" stroke-linecap="butt" stroke-linejoin="miter" stroke="rgb(58.03833%, 0%, 82.743835%)" stroke-opacity="1" stroke-miterlimit="3.8" d="M 557.710938 22.558594 L 557.710938 29.761719 "/>
<g fill="rgb(0%, 0%, 0%)" fill-opacity="1">
<use xlink:href="#glyph-1-14" x="521.57" y="36.241558"/>
<use xlink:href="#glyph-1-15" x="525.64827" y="36.241558"/>
<use xlink:href="#glyph-1-16" x="529.726539" y="36.241558"/>
<use xlink:href="#glyph-1-17" x="533.804809" y="36.241558"/>
<use xlink:href="#glyph-1-13" x="537.883078" y="36.241558"/>
<use xlink:href="#glyph-1-11" x="539.920423" y="36.241558"/>
</g>
<path fill="none" stroke-width="1" stroke-linecap="butt" stroke-linejoin="miter" stroke="rgb(0%, 61.959839%, 45.097351%)" stroke-opacity="1" stroke-miterlimit="3.8" d="M 548.085938 33.488281 L 567.335938 33.488281 "/>
<path fill="none" stroke-width="1" stroke-linecap="butt" stroke-linejoin="miter" stroke="rgb(0%, 61.959839%, 45.097351%)" stroke-opacity="1" stroke-miterlimit="3.8" d="M 50.671875 95.699219 L 158.003906 33.183594 L 204.234375 50.675781 L 311.570312 82.019531 L 357.800781 91.296875 L 465.136719 120.171875 L 511.363281 190.941406 "/>
<path fill="none" stroke-width="1" stroke-linecap="butt" stroke-linejoin="miter" stroke="rgb(0%, 61.959839%, 45.097351%)" stroke-opacity="1" stroke-miterlimit="3.8" d="M 47.070312 92.101562 L 54.269531 99.300781 "/>
<path fill="none" stroke-width="1" stroke-linecap="butt" stroke-linejoin="miter" stroke="rgb(0%, 61.959839%, 45.097351%)" stroke-opacity="1" stroke-miterlimit="3.8" d="M 47.070312 99.300781 L 54.269531 92.101562 "/>
<path fill="none" stroke-width="1" stroke-linecap="butt" stroke-linejoin="miter" stroke="rgb(0%, 61.959839%, 45.097351%)" stroke-opacity="1" stroke-miterlimit="3.8" d="M 154.40625 29.585938 L 161.605469 36.785156 "/>
<path fill="none" stroke-width="1" stroke-linecap="butt" stroke-linejoin="miter" stroke="rgb(0%, 61.959839%, 45.097351%)" stroke-opacity="1" stroke-miterlimit="3.8" d="M 154.40625 36.785156 L 161.605469 29.585938 "/>
<path fill="none" stroke-width="1" stroke-linecap="butt" stroke-linejoin="miter" stroke="rgb(0%, 61.959839%, 45.097351%)" stroke-opacity="1" stroke-miterlimit="3.8" d="M 200.636719 47.074219 L 207.835938 54.273438 "/>
<path fill="none" stroke-width="1" stroke-linecap="butt" stroke-linejoin="miter" stroke="rgb(0%, 61.959839%, 45.097351%)" stroke-opacity="1" stroke-miterlimit="3.8" d="M 200.636719 54.273438 L 207.835938 47.074219 "/>
<path fill="none" stroke-width="1" stroke-linecap="butt" stroke-linejoin="miter" stroke="rgb(0%, 61.959839%, 45.097351%)" stroke-opacity="1" stroke-miterlimit="3.8" d="M 307.96875 78.421875 L 315.171875 85.621094 "/>
<path fill="none" stroke-width="1" stroke-linecap="butt" stroke-linejoin="miter" stroke="rgb(0%, 61.959839%, 45.097351%)" stroke-opacity="1" stroke-miterlimit="3.8" d="M 307.96875 85.621094 L 315.171875 78.421875 "/>
<path fill="none" stroke-width="1" stroke-linecap="butt" stroke-linejoin="miter" stroke="rgb(0%, 61.959839%, 45.097351%)" stroke-opacity="1" stroke-miterlimit="3.8" d="M 354.199219 87.695312 L 361.398438 94.894531 "/>
<path fill="none" stroke-width="1" stroke-linecap="butt" stroke-linejoin="miter" stroke="rgb(0%, 61.959839%, 45.097351%)" stroke-opacity="1" stroke-miterlimit="3.8" d="M 354.199219 94.894531 L 361.398438 87.695312 "/>
<path fill="none" stroke-width="1" stroke-linecap="butt" stroke-linejoin="miter" stroke="rgb(0%, 61.959839%, 45.097351%)" stroke-opacity="1" stroke-miterlimit="3.8" d="M 461.535156 116.570312 L 468.734375 123.769531 "/>
<path fill="none" stroke-width="1" stroke-linecap="butt" stroke-linejoin="miter" stroke="rgb(0%, 61.959839%, 45.097351%)" stroke-opacity="1" stroke-miterlimit="3.8" d="M 461.535156 123.769531 L 468.734375 116.570312 "/>
<path fill="none" stroke-width="1" stroke-linecap="butt" stroke-linejoin="miter" stroke="rgb(0%, 61.959839%, 45.097351%)" stroke-opacity="1" stroke-miterlimit="3.8" d="M 507.765625 187.339844 L 514.964844 194.539062 "/>
<path fill="none" stroke-width="1" stroke-linecap="butt" stroke-linejoin="miter" stroke="rgb(0%, 61.959839%, 45.097351%)" stroke-opacity="1" stroke-miterlimit="3.8" d="M 507.765625 194.539062 L 514.964844 187.339844 "/>
<path fill="none" stroke-width="1" stroke-linecap="butt" stroke-linejoin="miter" stroke="rgb(0%, 61.959839%, 45.097351%)" stroke-opacity="1" stroke-miterlimit="3.8" d="M 554.109375 29.890625 L 561.308594 37.089844 "/>
<path fill="none" stroke-width="1" stroke-linecap="butt" stroke-linejoin="miter" stroke="rgb(0%, 61.959839%, 45.097351%)" stroke-opacity="1" stroke-miterlimit="3.8" d="M 554.109375 37.089844 L 561.308594 29.890625 "/>
<g fill="rgb(0%, 0%, 0%)" fill-opacity="1">
<use xlink:href="#glyph-1-16" x="524.02" y="43.571558"/>
<use xlink:href="#glyph-1-11" x="528.09827" y="43.571558"/>
<use xlink:href="#glyph-1-18" x="532.176539" y="43.571558"/>
<use xlink:href="#glyph-1-11" x="533.805699" y="43.571558"/>
<use xlink:href="#glyph-1-13" x="537.883968" y="43.571558"/>
<use xlink:href="#glyph-1-11" x="539.921313" y="43.571558"/>
</g>
<path fill="none" stroke-width="1" stroke-linecap="butt" stroke-linejoin="miter" stroke="rgb(33.724976%, 70.587158%, 91.371155%)" stroke-opacity="1" stroke-miterlimit="3.8" d="M 548.085938 40.820312 L 567.335938 40.820312 "/>
<path fill="none" stroke-width="1" stroke-linecap="butt" stroke-linejoin="miter" stroke="rgb(33.724976%, 70.587158%, 91.371155%)" stroke-opacity="1" stroke-miterlimit="3.8" d="M 50.671875 144.191406 L 158.003906 114.433594 L 204.234375 141.816406 L 311.570312 224.929688 L 357.800781 253.449219 L 465.136719 310.820312 L 511.363281 322.039062 "/>
<path fill="none" stroke-width="1" stroke-linecap="butt" stroke-linejoin="miter" stroke="rgb(33.724976%, 70.587158%, 91.371155%)" stroke-opacity="1" stroke-miterlimit="3.8" d="M 47.070312 144.191406 L 54.269531 144.191406 "/>
<path fill="none" stroke-width="1" stroke-linecap="butt" stroke-linejoin="miter" stroke="rgb(33.724976%, 70.587158%, 91.371155%)" stroke-opacity="1" stroke-miterlimit="3.8" d="M 50.671875 140.589844 L 50.671875 147.789062 "/>
<path fill="none" stroke-width="1" stroke-linecap="butt" stroke-linejoin="miter" stroke="rgb(33.724976%, 70.587158%, 91.371155%)" stroke-opacity="1" stroke-miterlimit="3.8" d="M 47.070312 140.589844 L 54.269531 147.789062 "/>
<path fill="none" stroke-width="1" stroke-linecap="butt" stroke-linejoin="miter" stroke="rgb(33.724976%, 70.587158%, 91.371155%)" stroke-opacity="1" stroke-miterlimit="3.8" d="M 47.070312 147.789062 L 54.269531 140.589844 "/>
<path fill="none" stroke-width="1" stroke-linecap="butt" stroke-linejoin="miter" stroke="rgb(33.724976%, 70.587158%, 91.371155%)" stroke-opacity="1" stroke-miterlimit="3.8" d="M 154.40625 114.433594 L 161.605469 114.433594 "/>
<path fill="none" stroke-width="1" stroke-linecap="butt" stroke-linejoin="miter" stroke="rgb(33.724976%, 70.587158%, 91.371155%)" stroke-opacity="1" stroke-miterlimit="3.8" d="M 158.003906 110.835938 L 158.003906 118.035156 "/>
<path fill="none" stroke-width="1" stroke-linecap="butt" stroke-linejoin="miter" stroke="rgb(33.724976%, 70.587158%, 91.371155%)" stroke-opacity="1" stroke-miterlimit="3.8" d="M 154.40625 110.835938 L 161.605469 118.035156 "/>
<path fill="none" stroke-width="1" stroke-linecap="butt" stroke-linejoin="miter" stroke="rgb(33.724976%, 70.587158%, 91.371155%)" stroke-opacity="1" stroke-miterlimit="3.8" d="M 154.40625 118.035156 L 161.605469 110.835938 "/>
<path fill="none" stroke-width="1" stroke-linecap="butt" stroke-linejoin="miter" stroke="rgb(33.724976%, 70.587158%, 91.371155%)" stroke-opacity="1" stroke-miterlimit="3.8" d="M 200.636719 141.816406 L 207.835938 141.816406 "/>
<path fill="none" stroke-width="1" stroke-linecap="butt" stroke-linejoin="miter" stroke="rgb(33.724976%, 70.587158%, 91.371155%)" stroke-opacity="1" stroke-miterlimit="3.8" d="M 204.234375 138.214844 L 204.234375 145.414062 "/>
<path fill="none" stroke-width="1" stroke-linecap="butt" stroke-linejoin="miter" stroke="rgb(33.724976%, 70.587158%, 91.371155%)" stroke-opacity="1" stroke-miterlimit="3.8" d="M 200.636719 138.214844 L 207.835938 145.414062 "/>
<path fill="none" stroke-width="1" stroke-linecap="butt" stroke-linejoin="miter" stroke="rgb(33.724976%, 70.587158%, 91.371155%)" stroke-opacity="1" stroke-miterlimit="3.8" d="M 200.636719 145.414062 L 207.835938 138.214844 "/>
<path fill="none" stroke-width="1" stroke-linecap="butt" stroke-linejoin="miter" stroke="rgb(33.724976%, 70.587158%, 91.371155%)" stroke-opacity="1" stroke-miterlimit="3.8" d="M 307.96875 224.929688 L 315.171875 224.929688 "/>
<path fill="none" stroke-width="1" stroke-linecap="butt" stroke-linejoin="miter" stroke="rgb(33.724976%, 70.587158%, 91.371155%)" stroke-opacity="1" stroke-miterlimit="3.8" d="M 311.570312 221.328125 L 311.570312 228.53125 "/>
<path fill="none" stroke-width="1" stroke-linecap="butt" stroke-linejoin="miter" stroke="rgb(33.724976%, 70.587158%, 91.371155%)" stroke-opacity="1" stroke-miterlimit="3.8" d="M 307.96875 221.328125 L 315.171875 228.53125 "/>
<path fill="none" stroke-width="1" stroke-linecap="butt" stroke-linejoin="miter" stroke="rgb(33.724976%, 70.587158%, 91.371155%)" stroke-opacity="1" stroke-miterlimit="3.8" d="M 307.96875 228.53125 L 315.171875 221.328125 "/>
<path fill="none" stroke-width="1" stroke-linecap="butt" stroke-linejoin="miter" stroke="rgb(33.724976%, 70.587158%, 91.371155%)" stroke-opacity="1" stroke-miterlimit="3.8" d="M 354.199219 253.449219 L 361.398438 253.449219 "/>
<path fill="none" stroke-width="1" stroke-linecap="butt" stroke-linejoin="miter" stroke="rgb(33.724976%, 70.587158%, 91.371155%)" stroke-opacity="1" stroke-miterlimit="3.8" d="M 357.800781 249.851562 L 357.800781 257.050781 "/>
<path fill="none" stroke-width="1" stroke-linecap="butt" stroke-linejoin="miter" stroke="rgb(33.724976%, 70.587158%, 91.371155%)" stroke-opacity="1" stroke-miterlimit="3.8" d="M 354.199219 249.851562 L 361.398438 257.050781 "/>
<path fill="none" stroke-width="1" stroke-linecap="butt" stroke-linejoin="miter" stroke="rgb(33.724976%, 70.587158%, 91.371155%)" stroke-opacity="1" stroke-miterlimit="3.8" d="M 354.199219 257.050781 L 361.398438 249.851562 "/>
<path fill="none" stroke-width="1" stroke-linecap="butt" stroke-linejoin="miter" stroke="rgb(33.724976%, 70.587158%, 91.371155%)" stroke-opacity="1" stroke-miterlimit="3.8" d="M 461.535156 310.820312 L 468.734375 310.820312 "/>
<path fill="none" stroke-width="1" stroke-linecap="butt" stroke-linejoin="miter" stroke="rgb(33.724976%, 70.587158%, 91.371155%)" stroke-opacity="1" stroke-miterlimit="3.8" d="M 465.136719 307.21875 L 465.136719 314.421875 "/>
<path fill="none" stroke-width="1" stroke-linecap="butt" stroke-linejoin="miter" stroke="rgb(33.724976%, 70.587158%, 91.371155%)" stroke-opacity="1" stroke-miterlimit="3.8" d="M 461.535156 307.21875 L 468.734375 314.421875 "/>
<path fill="none" stroke-width="1" stroke-linecap="butt" stroke-linejoin="miter" stroke="rgb(33.724976%, 70.587158%, 91.371155%)" stroke-opacity="1" stroke-miterlimit="3.8" d="M 461.535156 314.421875 L 468.734375 307.21875 "/>
<path fill="none" stroke-width="1" stroke-linecap="butt" stroke-linejoin="miter" stroke="rgb(33.724976%, 70.587158%, 91.371155%)" stroke-opacity="1" stroke-miterlimit="3.8" d="M 507.765625 322.039062 L 514.964844 322.039062 "/>
<path fill="none" stroke-width="1" stroke-linecap="butt" stroke-linejoin="miter" stroke="rgb(33.724976%, 70.587158%, 91.371155%)" stroke-opacity="1" stroke-miterlimit="3.8" d="M 511.363281 318.441406 L 511.363281 325.640625 "/>
<path fill="none" stroke-width="1" stroke-linecap="butt" stroke-linejoin="miter" stroke="rgb(33.724976%, 70.587158%, 91.371155%)" stroke-opacity="1" stroke-miterlimit="3.8" d="M 507.765625 318.441406 L 514.964844 325.640625 "/>
<path fill="none" stroke-width="1" stroke-linecap="butt" stroke-linejoin="miter" stroke="rgb(33.724976%, 70.587158%, 91.371155%)" stroke-opacity="1" stroke-miterlimit="3.8" d="M 507.765625 325.640625 L 514.964844 318.441406 "/>
<path fill="none" stroke-width="1" stroke-linecap="butt" stroke-linejoin="miter" stroke="rgb(33.724976%, 70.587158%, 91.371155%)" stroke-opacity="1" stroke-miterlimit="3.8" d="M 554.109375 40.820312 L 561.308594 40.820312 "/>
<path fill="none" stroke-width="1" stroke-linecap="butt" stroke-linejoin="miter" stroke="rgb(33.724976%, 70.587158%, 91.371155%)" stroke-opacity="1" stroke-miterlimit="3.8" d="M 557.710938 37.21875 L 557.710938 44.421875 "/>
<path fill="none" stroke-width="1" stroke-linecap="butt" stroke-linejoin="miter" stroke="rgb(33.724976%, 70.587158%, 91.371155%)" stroke-opacity="1" stroke-miterlimit="3.8" d="M 554.109375 37.21875 L 561.308594 44.421875 "/>
<path fill="none" stroke-width="1" stroke-linecap="butt" stroke-linejoin="miter" stroke="rgb(33.724976%, 70.587158%, 91.371155%)" stroke-opacity="1" stroke-miterlimit="3.8" d="M 554.109375 44.421875 L 561.308594 37.21875 "/>
<g fill="rgb(0%, 0%, 0%)" fill-opacity="1">
<use xlink:href="#glyph-1-19" x="533.81" y="50.901558"/>
<use xlink:href="#glyph-1-11" x="537.88827" y="50.901558"/>
<use xlink:href="#glyph-1-13" x="541.966539" y="50.901558"/>
</g>
<path fill="none" stroke-width="1" stroke-linecap="butt" stroke-linejoin="miter" stroke="rgb(90.194702%, 62.35199%, 0%)" stroke-opacity="1" stroke-miterlimit="3.8" d="M 548.085938 48.148438 L 567.335938 48.148438 "/>
<path fill="none" stroke-width="1" stroke-linecap="butt" stroke-linejoin="miter" stroke="rgb(90.194702%, 62.35199%, 0%)" stroke-opacity="1" stroke-miterlimit="3.8" d="M 50.671875 94.195312 L 158.003906 24.550781 L 204.234375 42.738281 L 311.570312 81.644531 L 357.800781 90.09375 L 465.136719 118.011719 L 511.363281 189.363281 "/>
<path fill="none" stroke-width="1" stroke-linecap="butt" stroke-linejoin="miter" stroke="rgb(90.194702%, 62.35199%, 0%)" stroke-opacity="1" stroke-miterlimit="3.8" d="M 47.070312 90.59375 L 54.269531 90.59375 L 54.269531 97.796875 L 47.070312 97.796875 Z M 47.070312 90.59375 "/>
<path fill="none" stroke-width="1" stroke-linecap="butt" stroke-linejoin="miter" stroke="rgb(90.194702%, 62.35199%, 0%)" stroke-opacity="1" stroke-miterlimit="3.8" d="M 154.40625 20.949219 L 161.605469 20.949219 L 161.605469 28.148438 L 154.40625 28.148438 Z M 154.40625 20.949219 "/>
<path fill="none" stroke-width="1" stroke-linecap="butt" stroke-linejoin="miter" stroke="rgb(90.194702%, 62.35199%, 0%)" stroke-opacity="1" stroke-miterlimit="3.8" d="M 200.636719 39.140625 L 207.835938 39.140625 L 207.835938 46.339844 L 200.636719 46.339844 Z M 200.636719 39.140625 "/>
<path fill="none" stroke-width="1" stroke-linecap="butt" stroke-linejoin="miter" stroke="rgb(90.194702%, 62.35199%, 0%)" stroke-opacity="1" stroke-miterlimit="3.8" d="M 307.96875 78.046875 L 315.171875 78.046875 L 315.171875 85.246094 L 307.96875 85.246094 Z M 307.96875 78.046875 "/>
<path fill="none" stroke-width="1" stroke-linecap="butt" stroke-linejoin="miter" stroke="rgb(90.194702%, 62.35199%, 0%)" stroke-opacity="1" stroke-miterlimit="3.8" d="M 354.199219 86.496094 L 361.398438 86.496094 L 361.398438 93.695312 L 354.199219 93.695312 Z M 354.199219 86.496094 "/>
<path fill="none" stroke-width="1" stroke-linecap="butt" stroke-linejoin="miter" stroke="rgb(90.194702%, 62.35199%, 0%)" stroke-opacity="1" stroke-miterlimit="3.8" d="M 461.535156 114.410156 L 468.734375 114.410156 L 468.734375 121.609375 L 461.535156 121.609375 Z M 461.535156 114.410156 "/>
<path fill="none" stroke-width="1" stroke-linecap="butt" stroke-linejoin="miter" stroke="rgb(90.194702%, 62.35199%, 0%)" stroke-opacity="1" stroke-miterlimit="3.8" d="M 507.765625 185.765625 L 514.964844 185.765625 L 514.964844 192.964844 L 507.765625 192.964844 Z M 507.765625 185.765625 "/>
<path fill="none" stroke-width="1" stroke-linecap="butt" stroke-linejoin="miter" stroke="rgb(90.194702%, 62.35199%, 0%)" stroke-opacity="1" stroke-miterlimit="3.8" d="M 554.109375 44.550781 L 561.308594 44.550781 L 561.308594 51.75 L 554.109375 51.75 Z M 554.109375 44.550781 "/>
<path fill="none" stroke-width="0.6" stroke-linecap="butt" stroke-linejoin="miter" stroke="rgb(0%, 0%, 0%)" stroke-opacity="1" stroke-miterlimit="3.8" d="M 50.671875 22.496094 L 511.363281 22.496094 L 511.363281 336.046875 L 50.671875 336.046875 Z M 50.671875 22.496094 "/>
<g fill="rgb(0%, 0%, 0%)" fill-opacity="1">
<use xlink:href="#glyph-3-0" x="9.976558" y="188.0325"/>
<use xlink:href="#glyph-3-1" x="9.976558" y="183.95423"/>
<use xlink:href="#glyph-3-2" x="9.976558" y="179.875961"/>
<use xlink:href="#glyph-3-3" x="9.976558" y="176.209457"/>
</g>
<g fill="rgb(0%, 0%, 0%)" fill-opacity="1">
<use xlink:href="#glyph-3-2" x="9.976558" y="174.348105"/>
</g>
<g fill="rgb(0%, 0%, 0%)" fill-opacity="1">
<use xlink:href="#glyph-1-20" x="260.8425" y="357.121558"/>
<use xlink:href="#glyph-1-17" x="266.138163" y="357.121558"/>
<use xlink:href="#glyph-1-13" x="270.216433" y="357.121558"/>
<use xlink:href="#glyph-1-17" x="272.253778" y="357.121558"/>
<use xlink:href="#glyph-1-10" x="276.332047" y="357.121558"/>
<use xlink:href="#glyph-1-11" x="279.998551" y="357.121558"/>
<use xlink:href="#glyph-1-13" x="284.076821" y="357.121558"/>
</g>
<g fill="rgb(0%, 0%, 0%)" fill-opacity="1">
<use xlink:href="#glyph-0-0" x="286.114165" y="357.121558"/>
</g>
<g fill="rgb(0%, 0%, 0%)" fill-opacity="1">
<use xlink:href="#glyph-1-10" x="288.15151" y="357.121558"/>
<use xlink:href="#glyph-1-8" x="291.818014" y="357.121558"/>
<use xlink:href="#glyph-1-21" x="293.447173" y="357.121558"/>
<use xlink:href="#glyph-1-11" x="297.113677" y="357.121558"/>
</g>
<g fill="rgb(0%, 0%, 0%)" fill-opacity="1">
<use xlink:href="#glyph-1-13" x="263.48" y="14.251546"/>
<use xlink:href="#glyph-1-22" x="265.517344" y="14.251546"/>
<use xlink:href="#glyph-1-12" x="269.595614" y="14.251546"/>
<use xlink:href="#glyph-1-23" x="272.037563" y="14.251546"/>
<use xlink:href="#glyph-1-14" x="276.115832" y="14.251546"/>
<use xlink:href="#glyph-1-19" x="280.194102" y="14.251546"/>
<use xlink:href="#glyph-1-22" x="284.272371" y="14.251546"/>
<use xlink:href="#glyph-1-15" x="288.350641" y="14.251546"/>
<use xlink:href="#glyph-1-14" x="292.428911" y="14.251546"/>
<use xlink:href="#glyph-1-13" x="296.50718" y="14.251546"/>
</g>
</svg>
