<?xml version="1.0" encoding="UTF-8"?>
<svg xmlns="http://www.w3.org/2000/svg" xmlns:xlink="http://www.w3.org/1999/xlink" width="576pt" height="360pt" viewBox="0 0 576 360">
<rect width="100%" height="100%" fill="#ffffff"/>
<defs>
<g>
<g id="glyph-0-0">
</g>
<g id="glyph-1-0">
<path d="M 0.703125 -3.625 L 0.703125 -4.125 C 1.171875 -4.164062 1.492188 -4.238281 1.671875 -4.34375 C 1.859375 -4.457031 2 -4.710938 2.09375 -5.109375 L 2.59375 -5.109375 L 2.59375 0 L 1.90625 0 L 1.90625 -3.625 Z M 0.703125 -3.625 "/>
</g>
<g id="glyph-1-1">
<path d="M 1.984375 -5.125 C 2.648438 -5.125 3.128906 -4.847656 3.421875 -4.296875 C 3.648438 -3.878906 3.765625 -3.300781 3.765625 -2.5625 C 3.765625 -1.875 3.660156 -1.300781 3.453125 -0.84375 C 3.148438 -0.1875 2.660156 0.140625 1.984375 0.140625 C 1.367188 0.140625 0.910156 -0.125 0.609375 -0.65625 C 0.359375 -1.101562 0.234375 -1.703125 0.234375 -2.453125 C 0.234375 -3.035156 0.304688 -3.535156 0.453125 -3.953125 C 0.734375 -4.734375 1.242188 -5.125 1.984375 -5.125 Z M 1.96875 -0.453125 C 2.300781 -0.453125 2.566406 -0.597656 2.765625 -0.890625 C 2.960938 -1.179688 3.0625 -1.734375 3.0625 -2.546875 C 3.0625 -3.128906 2.988281 -3.609375 2.84375 -3.984375 C 2.707031 -4.359375 2.429688 -4.546875 2.015625 -4.546875 C 1.640625 -4.546875 1.363281 -4.363281 1.1875 -4 C 1.007812 -3.644531 0.921875 -3.125 0.921875 -2.4375 C 0.921875 -1.914062 0.976562 -1.492188 1.09375 -1.171875 C 1.269531 -0.691406 1.5625 -0.453125 1.96875 -0.453125 Z M 1.96875 -0.453125 "/>
</g>
<g id="glyph-1-2">
<path d="M 0.109375 -3.828125 L 0.9375 -3.828125 L 1.828125 -2.484375 L 2.71875 -3.828125 L 3.5 -3.8125 L 2.203125 -1.96875 L 3.546875 0 L 2.734375 0 L 1.78125 -1.4375 L 0.859375 0 L 0.046875 0 L 1.390625 -1.96875 Z M 0.109375 -3.828125 "/>
</g>
<g id="glyph-1-3">
<path d="M 0.234375 0 C 0.253906 -0.4375 0.34375 -0.816406 0.5 -1.140625 C 0.65625 -1.472656 0.96875 -1.773438 1.4375 -2.046875 L 2.125 -2.4375 C 2.425781 -2.613281 2.640625 -2.765625 2.765625 -2.890625 C 2.960938 -3.097656 3.0625 -3.328125 3.0625 -3.578125 C 3.0625 -3.878906 2.96875 -4.113281 2.78125 -4.28125 C 2.601562 -4.457031 2.367188 -4.546875 2.078125 -4.546875 C 1.628906 -4.546875 1.320312 -4.378906 1.15625 -4.046875 C 1.0625 -3.867188 1.015625 -3.625 1.015625 -3.3125 L 0.359375 -3.3125 C 0.359375 -3.75 0.4375 -4.109375 0.59375 -4.390625 C 0.875 -4.890625 1.367188 -5.140625 2.078125 -5.140625 C 2.660156 -5.140625 3.085938 -4.976562 3.359375 -4.65625 C 3.628906 -4.34375 3.765625 -3.992188 3.765625 -3.609375 C 3.765625 -3.191406 3.625 -2.84375 3.34375 -2.5625 C 3.175781 -2.382812 2.875 -2.175781 2.4375 -1.9375 L 1.953125 -1.671875 C 1.710938 -1.535156 1.53125 -1.410156 1.40625 -1.296875 C 1.164062 -1.085938 1.015625 -0.859375 0.953125 -0.609375 L 3.75 -0.609375 L 3.75 0 Z M 0.234375 0 "/>
</g>
<g id="glyph-1-4">
<path d="M 1.90625 0.140625 C 1.300781 0.140625 0.859375 -0.0234375 0.578125 -0.359375 C 0.304688 -0.691406 0.171875 -1.097656 0.171875 -1.578125 L 0.84375 -1.578125 C 0.875 -1.242188 0.9375 -1.003906 1.03125 -0.859375 C 1.195312 -0.585938 1.5 -0.453125 1.9375 -0.453125 C 2.28125 -0.453125 2.550781 -0.539062 2.75 -0.71875 C 2.957031 -0.894531 3.0625 -1.128906 3.0625 -1.421875 C 3.0625 -1.773438 2.953125 -2.019531 2.734375 -2.15625 C 2.523438 -2.300781 2.226562 -2.375 1.84375 -2.375 C 1.800781 -2.375 1.753906 -2.375 1.703125 -2.375 C 1.660156 -2.375 1.617188 -2.367188 1.578125 -2.359375 L 1.578125 -2.9375 C 1.640625 -2.925781 1.691406 -2.921875 1.734375 -2.921875 C 1.785156 -2.921875 1.835938 -2.921875 1.890625 -2.921875 C 2.128906 -2.921875 2.328125 -2.957031 2.484375 -3.03125 C 2.753906 -3.164062 2.890625 -3.40625 2.890625 -3.75 C 2.890625 -4 2.796875 -4.191406 2.609375 -4.328125 C 2.429688 -4.472656 2.222656 -4.546875 1.984375 -4.546875 C 1.554688 -4.546875 1.257812 -4.398438 1.09375 -4.109375 C 1 -3.953125 0.945312 -3.726562 0.9375 -3.4375 L 0.296875 -3.4375 C 0.296875 -3.820312 0.375 -4.148438 0.53125 -4.421875 C 0.789062 -4.890625 1.253906 -5.125 1.921875 -5.125 C 2.441406 -5.125 2.84375 -5.007812 3.125 -4.78125 C 3.414062 -4.550781 3.5625 -4.210938 3.5625 -3.765625 C 3.5625 -3.453125 3.476562 -3.195312 3.3125 -3 C 3.207031 -2.882812 3.066406 -2.789062 2.890625 -2.71875 C 3.160156 -2.644531 3.367188 -2.5 3.515625 -2.28125 C 3.671875 -2.070312 3.75 -1.816406 3.75 -1.515625 C 3.75 -1.023438 3.585938 -0.625 3.265625 -0.3125 C 2.953125 -0.0078125 2.5 0.140625 1.90625 0.140625 Z M 1.90625 0.140625 "/>
</g>
<g id="glyph-1-5">
<path d="M 2.421875 -1.8125 L 2.421875 -4.140625 L 0.78125 -1.8125 Z M 2.4375 0 L 2.4375 -1.25 L 0.1875 -1.25 L 0.1875 -1.875 L 2.53125 -5.140625 L 3.078125 -5.140625 L 3.078125 -1.8125 L 3.828125 -1.8125 L 3.828125 -1.25 L 3.078125 -1.25 L 3.078125 0 Z M 2.4375 0 "/>
</g>
<g id="glyph-1-6">
<path d="M 0.90625 -1.3125 C 0.945312 -0.9375 1.117188 -0.679688 1.421875 -0.546875 C 1.566406 -0.472656 1.742188 -0.4375 1.953125 -0.4375 C 2.328125 -0.4375 2.601562 -0.554688 2.78125 -0.796875 C 2.96875 -1.046875 3.0625 -1.316406 3.0625 -1.609375 C 3.0625 -1.960938 2.953125 -2.238281 2.734375 -2.4375 C 2.523438 -2.632812 2.265625 -2.734375 1.953125 -2.734375 C 1.734375 -2.734375 1.546875 -2.6875 1.390625 -2.59375 C 1.234375 -2.507812 1.097656 -2.394531 0.984375 -2.25 L 0.421875 -2.28125 L 0.8125 -5.03125 L 3.46875 -5.03125 L 3.46875 -4.421875 L 1.296875 -4.421875 L 1.078125 -2.984375 C 1.191406 -3.078125 1.304688 -3.148438 1.421875 -3.203125 C 1.609375 -3.273438 1.828125 -3.3125 2.078125 -3.3125 C 2.546875 -3.3125 2.941406 -3.160156 3.265625 -2.859375 C 3.597656 -2.554688 3.765625 -2.171875 3.765625 -1.703125 C 3.765625 -1.222656 3.613281 -0.796875 3.3125 -0.421875 C 3.007812 -0.0546875 2.53125 0.125 1.875 0.125 C 1.457031 0.125 1.085938 0.0078125 0.765625 -0.21875 C 0.453125 -0.457031 0.273438 -0.820312 0.234375 -1.3125 Z M 0.90625 -1.3125 "/>
</g>
<g id="glyph-1-7">
<path d="M 2.140625 -5.140625 C 2.710938 -5.140625 3.109375 -4.988281 3.328125 -4.6875 C 3.554688 -4.394531 3.671875 -4.09375 3.671875 -3.78125 L 3.046875 -3.78125 C 3.003906 -3.988281 2.941406 -4.148438 2.859375 -4.265625 C 2.703125 -4.472656 2.46875 -4.578125 2.15625 -4.578125 C 1.789062 -4.578125 1.503906 -4.410156 1.296875 -4.078125 C 1.085938 -3.742188 0.96875 -3.269531 0.9375 -2.65625 C 1.082031 -2.875 1.269531 -3.035156 1.5 -3.140625 C 1.707031 -3.234375 1.9375 -3.28125 2.1875 -3.28125 C 2.613281 -3.28125 2.988281 -3.140625 3.3125 -2.859375 C 3.632812 -2.585938 3.796875 -2.179688 3.796875 -1.640625 C 3.796875 -1.171875 3.640625 -0.757812 3.328125 -0.40625 C 3.023438 -0.0507812 2.597656 0.125 2.046875 0.125 C 1.566406 0.125 1.148438 -0.0507812 0.796875 -0.40625 C 0.453125 -0.769531 0.28125 -1.382812 0.28125 -2.25 C 0.28125 -2.882812 0.359375 -3.425781 0.515625 -3.875 C 0.804688 -4.71875 1.347656 -5.140625 2.140625 -5.140625 Z M 2.09375 -0.4375 C 2.4375 -0.4375 2.691406 -0.550781 2.859375 -0.78125 C 3.023438 -1.007812 3.109375 -1.28125 3.109375 -1.59375 C 3.109375 -1.851562 3.03125 -2.097656 2.875 -2.328125 C 2.726562 -2.566406 2.457031 -2.6875 2.0625 -2.6875 C 1.789062 -2.6875 1.546875 -2.59375 1.328125 -2.40625 C 1.117188 -2.226562 1.015625 -1.957031 1.015625 -1.59375 C 1.015625 -1.269531 1.109375 -0.992188 1.296875 -0.765625 C 1.492188 -0.546875 1.757812 -0.4375 2.09375 -0.4375 Z M 2.09375 -0.4375 "/>
</g>
<g id="glyph-1-8">
<path d="M 3.828125 -5.03125 L 3.828125 -4.46875 C 3.660156 -4.3125 3.441406 -4.035156 3.171875 -3.640625 C 2.898438 -3.242188 2.660156 -2.816406 2.453125 -2.359375 C 2.242188 -1.910156 2.085938 -1.503906 1.984375 -1.140625 C 1.910156 -0.898438 1.816406 -0.519531 1.703125 0 L 1 0 C 1.15625 -0.976562 1.515625 -1.953125 2.078125 -2.921875 C 2.398438 -3.484375 2.742188 -3.972656 3.109375 -4.390625 L 0.265625 -4.390625 L 0.265625 -5.03125 Z M 3.828125 -5.03125 "/>
</g>
<g id="glyph-1-9">
<path d="M 2 -2.984375 C 2.28125 -2.984375 2.5 -3.0625 2.65625 -3.21875 C 2.8125 -3.375 2.890625 -3.5625 2.890625 -3.78125 C 2.890625 -3.96875 2.8125 -4.140625 2.65625 -4.296875 C 2.507812 -4.460938 2.28125 -4.546875 1.96875 -4.546875 C 1.65625 -4.546875 1.429688 -4.460938 1.296875 -4.296875 C 1.160156 -4.140625 1.09375 -3.957031 1.09375 -3.75 C 1.09375 -3.507812 1.179688 -3.320312 1.359375 -3.1875 C 1.535156 -3.050781 1.75 -2.984375 2 -2.984375 Z M 2.03125 -0.4375 C 2.332031 -0.4375 2.578125 -0.515625 2.765625 -0.671875 C 2.960938 -0.835938 3.0625 -1.082031 3.0625 -1.40625 C 3.0625 -1.738281 2.960938 -1.988281 2.765625 -2.15625 C 2.566406 -2.332031 2.304688 -2.421875 1.984375 -2.421875 C 1.679688 -2.421875 1.429688 -2.332031 1.234375 -2.15625 C 1.035156 -1.976562 0.9375 -1.734375 0.9375 -1.421875 C 0.9375 -1.148438 1.023438 -0.914062 1.203125 -0.71875 C 1.378906 -0.53125 1.65625 -0.4375 2.03125 -0.4375 Z M 1.109375 -2.734375 C 0.929688 -2.804688 0.796875 -2.894531 0.703125 -3 C 0.515625 -3.1875 0.421875 -3.4375 0.421875 -3.75 C 0.421875 -4.125 0.554688 -4.445312 0.828125 -4.71875 C 1.109375 -5 1.5 -5.140625 2 -5.140625 C 2.5 -5.140625 2.882812 -5.007812 3.15625 -4.75 C 3.4375 -4.488281 3.578125 -4.1875 3.578125 -3.84375 C 3.578125 -3.519531 3.5 -3.257812 3.34375 -3.0625 C 3.25 -2.945312 3.109375 -2.835938 2.921875 -2.734375 C 3.128906 -2.640625 3.296875 -2.53125 3.421875 -2.40625 C 3.640625 -2.164062 3.75 -1.851562 3.75 -1.46875 C 3.75 -1.019531 3.597656 -0.640625 3.296875 -0.328125 C 2.992188 -0.015625 2.566406 0.140625 2.015625 0.140625 C 1.515625 0.140625 1.09375 0.00390625 0.75 -0.265625 C 0.40625 -0.535156 0.234375 -0.925781 0.234375 -1.4375 C 0.234375 -1.738281 0.304688 -2 0.453125 -2.21875 C 0.609375 -2.445312 0.828125 -2.617188 1.109375 -2.734375 Z M 1.109375 -2.734375 "/>
</g>
<g id="glyph-1-10">
<path d="M 0.96875 -1.234375 C 0.988281 -0.878906 1.128906 -0.632812 1.390625 -0.5 C 1.515625 -0.425781 1.660156 -0.390625 1.828125 -0.390625 C 2.140625 -0.390625 2.398438 -0.515625 2.609375 -0.765625 C 2.828125 -1.023438 2.984375 -1.550781 3.078125 -2.34375 C 2.929688 -2.113281 2.753906 -1.953125 2.546875 -1.859375 C 2.335938 -1.765625 2.109375 -1.71875 1.859375 -1.71875 C 1.367188 -1.71875 0.976562 -1.867188 0.6875 -2.171875 C 0.40625 -2.484375 0.265625 -2.882812 0.265625 -3.375 C 0.265625 -3.84375 0.40625 -4.25 0.6875 -4.59375 C 0.96875 -4.945312 1.382812 -5.125 1.9375 -5.125 C 2.6875 -5.125 3.203125 -4.789062 3.484375 -4.125 C 3.640625 -3.75 3.71875 -3.285156 3.71875 -2.734375 C 3.71875 -2.109375 3.625 -1.550781 3.4375 -1.0625 C 3.125 -0.257812 2.597656 0.140625 1.859375 0.140625 C 1.359375 0.140625 0.976562 0.0078125 0.71875 -0.25 C 0.457031 -0.507812 0.328125 -0.835938 0.328125 -1.234375 Z M 1.953125 -2.296875 C 2.203125 -2.296875 2.429688 -2.378906 2.640625 -2.546875 C 2.859375 -2.710938 2.96875 -3.003906 2.96875 -3.421875 C 2.96875 -3.796875 2.867188 -4.078125 2.671875 -4.265625 C 2.484375 -4.453125 2.242188 -4.546875 1.953125 -4.546875 C 1.640625 -4.546875 1.390625 -4.4375 1.203125 -4.21875 C 1.023438 -4.007812 0.9375 -3.726562 0.9375 -3.375 C 0.9375 -3.039062 1.015625 -2.773438 1.171875 -2.578125 C 1.335938 -2.390625 1.597656 -2.296875 1.953125 -2.296875 Z M 1.953125 -2.296875 "/>
</g>
<g id="glyph-1-11">
<path d="M 0.421875 -5.28125 L 1.046875 -5.28125 L 1.046875 -3.359375 C 1.191406 -3.546875 1.359375 -3.6875 1.546875 -3.78125 C 1.742188 -3.882812 1.957031 -3.9375 2.1875 -3.9375 C 2.664062 -3.9375 3.050781 -3.769531 3.34375 -3.4375 C 3.644531 -3.113281 3.796875 -2.628906 3.796875 -1.984375 C 3.796875 -1.378906 3.648438 -0.875 3.359375 -0.46875 C 3.066406 -0.0703125 2.660156 0.125 2.140625 0.125 C 1.847656 0.125 1.601562 0.0507812 1.40625 -0.09375 C 1.28125 -0.175781 1.148438 -0.304688 1.015625 -0.484375 L 1.015625 0 L 0.421875 0 Z M 2.09375 -0.453125 C 2.445312 -0.453125 2.707031 -0.585938 2.875 -0.859375 C 3.050781 -1.140625 3.140625 -1.503906 3.140625 -1.953125 C 3.140625 -2.359375 3.050781 -2.691406 2.875 -2.953125 C 2.707031 -3.222656 2.453125 -3.359375 2.109375 -3.359375 C 1.816406 -3.359375 1.5625 -3.25 1.34375 -3.03125 C 1.125 -2.8125 1.015625 -2.453125 1.015625 -1.953125 C 1.015625 -1.597656 1.0625 -1.304688 1.15625 -1.078125 C 1.320312 -0.660156 1.632812 -0.453125 2.09375 -0.453125 Z M 2.09375 -0.453125 "/>
</g>
<g id="glyph-1-12">
<path d="M 1.109375 -3.828125 L 1.109375 -1.28125 C 1.109375 -1.09375 1.140625 -0.9375 1.203125 -0.8125 C 1.316406 -0.582031 1.53125 -0.46875 1.84375 -0.46875 C 2.289062 -0.46875 2.597656 -0.664062 2.765625 -1.0625 C 2.847656 -1.28125 2.890625 -1.578125 2.890625 -1.953125 L 2.890625 -3.828125 L 3.546875 -3.828125 L 3.546875 0 L 2.9375 0 L 2.9375 -0.5625 C 2.851562 -0.414062 2.75 -0.296875 2.625 -0.203125 C 2.382812 0.00390625 2.085938 0.109375 1.734375 0.109375 C 1.191406 0.109375 0.820312 -0.0703125 0.625 -0.4375 C 0.507812 -0.632812 0.453125 -0.898438 0.453125 -1.234375 L 0.453125 -3.828125 Z M 2 -3.921875 Z M 2 -3.921875 "/>
</g>
<g id="glyph-1-13">
<path d="M 0.46875 -3.8125 L 1.125 -3.8125 L 1.125 0 L 0.46875 0 Z M 0.46875 -5.25 L 1.125 -5.25 L 1.125 -4.53125 L 0.46875 -4.53125 Z M 0.46875 -5.25 "/>
</g>
<g id="glyph-1-14">
<path d="M 0.484375 -5.25 L 1.140625 -5.25 L 1.140625 0 L 0.484375 0 Z M 0.484375 -5.25 "/>
</g>
<g id="glyph-1-15">
<path d="M 0.875 -1.875 C 0.875 -1.457031 0.960938 -1.109375 1.140625 -0.828125 C 1.316406 -0.554688 1.597656 -0.421875 1.984375 -0.421875 C 2.273438 -0.421875 2.515625 -0.546875 2.703125 -0.796875 C 2.898438 -1.054688 3 -1.429688 3 -1.921875 C 3 -2.398438 2.898438 -2.753906 2.703125 -2.984375 C 2.503906 -3.222656 2.257812 -3.34375 1.96875 -3.34375 C 1.644531 -3.34375 1.378906 -3.21875 1.171875 -2.96875 C 0.972656 -2.71875 0.875 -2.351562 0.875 -1.875 Z M 1.84375 -3.90625 C 2.144531 -3.90625 2.394531 -3.84375 2.59375 -3.71875 C 2.707031 -3.644531 2.835938 -3.519531 2.984375 -3.34375 L 2.984375 -5.28125 L 3.59375 -5.28125 L 3.59375 0 L 3.015625 0 L 3.015625 -0.53125 C 2.867188 -0.289062 2.691406 -0.117188 2.484375 -0.015625 C 2.273438 0.0859375 2.039062 0.140625 1.78125 0.140625 C 1.351562 0.140625 0.984375 -0.0351562 0.671875 -0.390625 C 0.359375 -0.753906 0.203125 -1.234375 0.203125 -1.828125 C 0.203125 -2.390625 0.34375 -2.875 0.625 -3.28125 C 0.914062 -3.695312 1.320312 -3.90625 1.84375 -3.90625 Z M 1.84375 -3.90625 "/>
</g>
<g id="glyph-1-16">
<path d="M 0.96875 -1.015625 C 0.96875 -0.828125 1.035156 -0.679688 1.171875 -0.578125 C 1.304688 -0.472656 1.46875 -0.421875 1.65625 -0.421875 C 1.882812 -0.421875 2.101562 -0.472656 2.3125 -0.578125 C 2.664062 -0.753906 2.84375 -1.039062 2.84375 -1.4375 L 2.84375 -1.953125 C 2.769531 -1.898438 2.671875 -1.859375 2.546875 -1.828125 C 2.421875 -1.796875 2.296875 -1.769531 2.171875 -1.75 L 1.796875 -1.703125 C 1.554688 -1.671875 1.378906 -1.625 1.265625 -1.5625 C 1.066406 -1.445312 0.96875 -1.265625 0.96875 -1.015625 Z M 2.53125 -2.328125 C 2.675781 -2.335938 2.773438 -2.398438 2.828125 -2.515625 C 2.847656 -2.566406 2.859375 -2.644531 2.859375 -2.75 C 2.859375 -2.96875 2.78125 -3.125 2.625 -3.21875 C 2.46875 -3.320312 2.242188 -3.375 1.953125 -3.375 C 1.617188 -3.375 1.382812 -3.285156 1.25 -3.109375 C 1.164062 -3.003906 1.113281 -2.851562 1.09375 -2.65625 L 0.484375 -2.65625 C 0.503906 -3.132812 0.660156 -3.460938 0.953125 -3.640625 C 1.242188 -3.828125 1.582031 -3.921875 1.96875 -3.921875 C 2.425781 -3.921875 2.796875 -3.835938 3.078125 -3.671875 C 3.359375 -3.492188 3.5 -3.222656 3.5 -2.859375 L 3.5 -0.65625 C 3.5 -0.59375 3.507812 -0.539062 3.53125 -0.5 C 3.5625 -0.457031 3.617188 -0.4375 3.703125 -0.4375 C 3.734375 -0.4375 3.765625 -0.4375 3.796875 -0.4375 C 3.835938 -0.445312 3.878906 -0.453125 3.921875 -0.453125 L 3.921875 0.015625 C 3.816406 0.046875 3.738281 0.0625 3.6875 0.0625 C 3.632812 0.0703125 3.5625 0.078125 3.46875 0.078125 C 3.25 0.078125 3.085938 0 2.984375 -0.15625 C 2.929688 -0.238281 2.894531 -0.359375 2.875 -0.515625 C 2.75 -0.335938 2.5625 -0.1875 2.3125 -0.0625 C 2.070312 0.0585938 1.800781 0.125 1.5 0.125 C 1.144531 0.125 0.851562 0.0195312 0.625 -0.1875 C 0.40625 -0.40625 0.296875 -0.675781 0.296875 -1 C 0.296875 -1.351562 0.40625 -1.628906 0.625 -1.828125 C 0.84375 -2.023438 1.132812 -2.144531 1.5 -2.1875 Z M 2 -3.921875 Z M 2 -3.921875 "/>
</g>
<g id="glyph-1-17">
<path d="M 0.640625 -4.421875 C 0.640625 -4.679688 0.679688 -4.875 0.765625 -5 C 0.921875 -5.21875 1.210938 -5.328125 1.640625 -5.328125 C 1.679688 -5.328125 1.722656 -5.328125 1.765625 -5.328125 C 1.804688 -5.328125 1.859375 -5.320312 1.921875 -5.3125 L 1.921875 -4.734375 C 1.847656 -4.734375 1.796875 -4.734375 1.765625 -4.734375 C 1.734375 -4.734375 1.707031 -4.734375 1.6875 -4.734375 C 1.488281 -4.734375 1.367188 -4.679688 1.328125 -4.578125 C 1.296875 -4.484375 1.28125 -4.226562 1.28125 -3.8125 L 1.921875 -3.8125 L 1.921875 -3.3125 L 1.265625 -3.3125 L 1.265625 0 L 0.640625 0 L 0.640625 -3.3125 L 0.09375 -3.3125 L 0.09375 -3.8125 L 0.640625 -3.8125 Z M 0.640625 -4.421875 "/>
</g>
<g id="glyph-1-18">
<path d="M 0.859375 -1.203125 C 0.878906 -0.984375 0.929688 -0.816406 1.015625 -0.703125 C 1.179688 -0.492188 1.460938 -0.390625 1.859375 -0.390625 C 2.097656 -0.390625 2.304688 -0.441406 2.484375 -0.546875 C 2.671875 -0.648438 2.765625 -0.8125 2.765625 -1.03125 C 2.765625 -1.195312 2.691406 -1.320312 2.546875 -1.40625 C 2.453125 -1.457031 2.269531 -1.519531 2 -1.59375 L 1.484375 -1.71875 C 1.148438 -1.800781 0.910156 -1.894531 0.765625 -2 C 0.484375 -2.164062 0.34375 -2.40625 0.34375 -2.71875 C 0.34375 -3.082031 0.472656 -3.375 0.734375 -3.59375 C 0.992188 -3.820312 1.347656 -3.9375 1.796875 -3.9375 C 2.367188 -3.9375 2.78125 -3.765625 3.03125 -3.421875 C 3.195312 -3.210938 3.273438 -2.984375 3.265625 -2.734375 L 2.65625 -2.734375 C 2.644531 -2.878906 2.597656 -3.007812 2.515625 -3.125 C 2.359375 -3.289062 2.097656 -3.375 1.734375 -3.375 C 1.492188 -3.375 1.3125 -3.328125 1.1875 -3.234375 C 1.0625 -3.148438 1 -3.03125 1 -2.875 C 1 -2.707031 1.082031 -2.570312 1.25 -2.46875 C 1.34375 -2.414062 1.484375 -2.363281 1.671875 -2.3125 L 2.09375 -2.21875 C 2.550781 -2.101562 2.863281 -1.992188 3.03125 -1.890625 C 3.28125 -1.722656 3.40625 -1.460938 3.40625 -1.109375 C 3.40625 -0.765625 3.273438 -0.46875 3.015625 -0.21875 C 2.753906 0.0195312 2.359375 0.140625 1.828125 0.140625 C 1.253906 0.140625 0.847656 0.0117188 0.609375 -0.234375 C 0.378906 -0.492188 0.253906 -0.816406 0.234375 -1.203125 Z M 1.8125 -3.921875 Z M 1.8125 -3.921875 "/>
</g>
<g id="glyph-1-19">
<path d="M 1.953125 -3.9375 C 2.378906 -3.9375 2.726562 -3.832031 3 -3.625 C 3.269531 -3.414062 3.4375 -3.054688 3.5 -2.546875 L 2.859375 -2.546875 C 2.828125 -2.773438 2.742188 -2.96875 2.609375 -3.125 C 2.472656 -3.28125 2.253906 -3.359375 1.953125 -3.359375 C 1.535156 -3.359375 1.238281 -3.160156 1.0625 -2.765625 C 0.945312 -2.503906 0.890625 -2.179688 0.890625 -1.796875 C 0.890625 -1.421875 0.972656 -1.097656 1.140625 -0.828125 C 1.304688 -0.566406 1.5625 -0.4375 1.90625 -0.4375 C 2.175781 -0.4375 2.390625 -0.519531 2.546875 -0.6875 C 2.703125 -0.851562 2.804688 -1.078125 2.859375 -1.359375 L 3.5 -1.359375 C 3.425781 -0.847656 3.242188 -0.472656 2.953125 -0.234375 C 2.671875 -0.00390625 2.304688 0.109375 1.859375 0.109375 C 1.359375 0.109375 0.957031 -0.0703125 0.65625 -0.4375 C 0.363281 -0.800781 0.21875 -1.257812 0.21875 -1.8125 C 0.21875 -2.476562 0.378906 -3 0.703125 -3.375 C 1.023438 -3.75 1.441406 -3.9375 1.953125 -3.9375 Z M 1.84375 -3.921875 Z M 1.84375 -3.921875 "/>
</g>
<g id="glyph-1-20">
<path d="M 0.46875 -3.828125 L 1.078125 -3.828125 L 1.078125 -3.28125 C 1.265625 -3.507812 1.457031 -3.671875 1.65625 -3.765625 C 1.863281 -3.867188 2.09375 -3.921875 2.34375 -3.921875 C 2.882812 -3.921875 3.25 -3.726562 3.4375 -3.34375 C 3.539062 -3.132812 3.59375 -2.835938 3.59375 -2.453125 L 3.59375 0 L 2.9375 0 L 2.9375 -2.421875 C 2.9375 -2.648438 2.90625 -2.835938 2.84375 -2.984375 C 2.726562 -3.222656 2.519531 -3.34375 2.21875 -3.34375 C 2.0625 -3.34375 1.9375 -3.328125 1.84375 -3.296875 C 1.664062 -3.242188 1.507812 -3.140625 1.375 -2.984375 C 1.269531 -2.847656 1.195312 -2.710938 1.15625 -2.578125 C 1.125 -2.453125 1.109375 -2.257812 1.109375 -2 L 1.109375 0 L 0.46875 0 Z M 1.984375 -3.921875 Z M 1.984375 -3.921875 "/>
</g>
<g id="glyph-1-21">
<path d="M 2.578125 -0.609375 C 2.816406 -0.609375 3.015625 -0.632812 3.171875 -0.6875 C 3.441406 -0.78125 3.664062 -0.957031 3.84375 -1.21875 C 3.988281 -1.425781 4.09375 -1.695312 4.15625 -2.03125 C 4.1875 -2.226562 4.203125 -2.414062 4.203125 -2.59375 C 4.203125 -3.238281 4.070312 -3.738281 3.8125 -4.09375 C 3.5625 -4.457031 3.144531 -4.640625 2.5625 -4.640625 L 1.3125 -4.640625 L 1.3125 -0.609375 Z M 0.59375 -5.25 L 2.71875 -5.25 C 3.4375 -5.25 4 -4.992188 4.40625 -4.484375 C 4.757812 -4.023438 4.9375 -3.429688 4.9375 -2.703125 C 4.9375 -2.148438 4.832031 -1.644531 4.625 -1.1875 C 4.25 -0.394531 3.613281 0 2.71875 0 L 0.59375 0 Z M 0.59375 -5.25 "/>
</g>
<g id="glyph-1-22">
<path d="M 0.59375 -4.90625 L 1.25 -4.90625 L 1.25 -3.828125 L 1.859375 -3.828125 L 1.859375 -3.3125 L 1.25 -3.3125 L 1.25 -0.8125 C 1.25 -0.675781 1.296875 -0.582031 1.390625 -0.53125 C 1.441406 -0.507812 1.523438 -0.5 1.640625 -0.5 C 1.671875 -0.5 1.703125 -0.5 1.734375 -0.5 C 1.773438 -0.5 1.816406 -0.503906 1.859375 -0.515625 L 1.859375 0 C 1.785156 0.0195312 1.707031 0.0351562 1.625 0.046875 C 1.550781 0.0546875 1.46875 0.0625 1.375 0.0625 C 1.070312 0.0625 0.863281 -0.015625 0.75 -0.171875 C 0.644531 -0.328125 0.59375 -0.523438 0.59375 -0.765625 L 0.59375 -3.3125 L 0.078125 -3.3125 L 0.078125 -3.828125 L 0.59375 -3.828125 Z M 0.59375 -4.90625 "/>
</g>
<g id="glyph-1-23">
<path d="M 2.0625 -3.921875 C 2.332031 -3.921875 2.59375 -3.851562 2.84375 -3.71875 C 3.101562 -3.59375 3.300781 -3.429688 3.4375 -3.234375 C 3.570312 -3.035156 3.660156 -2.8125 3.703125 -2.5625 C 3.734375 -2.382812 3.75 -2.097656 3.75 -1.703125 L 0.953125 -1.703125 C 0.960938 -1.316406 1.050781 -1.003906 1.21875 -0.765625 C 1.394531 -0.535156 1.660156 -0.421875 2.015625 -0.421875 C 2.359375 -0.421875 2.628906 -0.53125 2.828125 -0.75 C 2.941406 -0.882812 3.019531 -1.035156 3.0625 -1.203125 L 3.703125 -1.203125 C 3.679688 -1.054688 3.625 -0.894531 3.53125 -0.71875 C 3.4375 -0.550781 3.332031 -0.414062 3.21875 -0.3125 C 3.019531 -0.113281 2.78125 0.015625 2.5 0.078125 C 2.34375 0.117188 2.164062 0.140625 1.96875 0.140625 C 1.488281 0.140625 1.082031 -0.03125 0.75 -0.375 C 0.414062 -0.726562 0.25 -1.21875 0.25 -1.84375 C 0.25 -2.457031 0.414062 -2.957031 0.75 -3.34375 C 1.09375 -3.726562 1.53125 -3.921875 2.0625 -3.921875 Z M 3.09375 -2.21875 C 3.070312 -2.5 3.007812 -2.722656 2.90625 -2.890625 C 2.726562 -3.203125 2.4375 -3.359375 2.03125 -3.359375 C 1.726562 -3.359375 1.476562 -3.25 1.28125 -3.03125 C 1.082031 -2.820312 0.976562 -2.550781 0.96875 -2.21875 Z M 2 -3.921875 Z M 2 -3.921875 "/>
</g>
<g id="glyph-1-24">
<path d="M 0.1875 -0.515625 L 2.453125 -3.25 L 0.359375 -3.25 L 0.359375 -3.828125 L 3.328125 -3.828125 L 3.328125 -3.3125 L 1.0625 -0.578125 L 3.390625 -0.578125 L 3.390625 0 L 0.1875 0 Z M 1.84375 -3.921875 Z M 1.84375 -3.921875 "/>
</g>
<g id="glyph-1-25">
<path d="M 2 -0.421875 C 2.425781 -0.421875 2.71875 -0.582031 2.875 -0.90625 C 3.03125 -1.226562 3.109375 -1.585938 3.109375 -1.984375 C 3.109375 -2.335938 3.050781 -2.628906 2.9375 -2.859375 C 2.757812 -3.203125 2.445312 -3.375 2 -3.375 C 1.601562 -3.375 1.316406 -3.222656 1.140625 -2.921875 C 0.960938 -2.628906 0.875 -2.269531 0.875 -1.84375 C 0.875 -1.4375 0.960938 -1.097656 1.140625 -0.828125 C 1.316406 -0.554688 1.601562 -0.421875 2 -0.421875 Z M 2.015625 -3.9375 C 2.515625 -3.9375 2.929688 -3.769531 3.265625 -3.4375 C 3.609375 -3.113281 3.78125 -2.632812 3.78125 -2 C 3.78125 -1.375 3.628906 -0.859375 3.328125 -0.453125 C 3.023438 -0.0546875 2.5625 0.140625 1.9375 0.140625 C 1.40625 0.140625 0.984375 -0.0351562 0.671875 -0.390625 C 0.367188 -0.753906 0.21875 -1.234375 0.21875 -1.828125 C 0.21875 -2.472656 0.378906 -2.984375 0.703125 -3.359375 C 1.023438 -3.742188 1.460938 -3.9375 2.015625 -3.9375 Z M 2 -3.921875 Z M 2 -3.921875 "/>
</g>
<g id="glyph-2-0">
<path d="M 1.71875 -4.109375 C 2.175781 -4.109375 2.492188 -3.988281 2.671875 -3.75 C 2.847656 -3.519531 2.9375 -3.28125 2.9375 -3.03125 L 2.4375 -3.03125 C 2.40625 -3.1875 2.351562 -3.3125 2.28125 -3.40625 C 2.15625 -3.570312 1.96875 -3.65625 1.71875 -3.65625 C 1.4375 -3.65625 1.207031 -3.519531 1.03125 -3.25 C 0.863281 -2.988281 0.769531 -2.613281 0.75 -2.125 C 0.875 -2.289062 1.023438 -2.421875 1.203125 -2.515625 C 1.359375 -2.585938 1.539062 -2.625 1.75 -2.625 C 2.09375 -2.625 2.390625 -2.515625 2.640625 -2.296875 C 2.898438 -2.078125 3.03125 -1.75 3.03125 -1.3125 C 3.03125 -0.9375 2.90625 -0.601562 2.65625 -0.3125 C 2.414062 -0.03125 2.070312 0.109375 1.625 0.109375 C 1.25 0.109375 0.921875 -0.0351562 0.640625 -0.328125 C 0.359375 -0.617188 0.21875 -1.109375 0.21875 -1.796875 C 0.21875 -2.304688 0.28125 -2.738281 0.40625 -3.09375 C 0.644531 -3.769531 1.082031 -4.109375 1.71875 -4.109375 Z M 1.671875 -0.359375 C 1.941406 -0.359375 2.144531 -0.445312 2.28125 -0.625 C 2.414062 -0.800781 2.484375 -1.015625 2.484375 -1.265625 C 2.484375 -1.472656 2.421875 -1.671875 2.296875 -1.859375 C 2.179688 -2.054688 1.96875 -2.15625 1.65625 -2.15625 C 1.425781 -2.15625 1.226562 -2.082031 1.0625 -1.9375 C 0.894531 -1.789062 0.8125 -1.566406 0.8125 -1.265625 C 0.8125 -1.003906 0.882812 -0.785156 1.03125 -0.609375 C 1.1875 -0.441406 1.398438 -0.359375 1.671875 -0.359375 Z M 1.671875 -0.359375 "/>
</g>
<g id="glyph-2-1">
<path d="M 3.0625 -4.03125 L 3.0625 -3.578125 C 2.925781 -3.453125 2.75 -3.226562 2.53125 -2.90625 C 2.320312 -2.59375 2.128906 -2.253906 1.953125 -1.890625 C 1.785156 -1.535156 1.660156 -1.207031 1.578125 -0.90625 C 1.523438 -0.71875 1.457031 -0.414062 1.375 0 L 0.796875 0 C 0.929688 -0.78125 1.21875 -1.554688 1.65625 -2.328125 C 1.914062 -2.785156 2.191406 -3.179688 2.484375 -3.515625 L 0.21875 -3.515625 L 0.21875 -4.03125 Z M 3.0625 -4.03125 "/>
</g>
<g id="glyph-3-0">
<path d="M -1.015625 -0.96875 C -0.828125 -0.96875 -0.679688 -1.035156 -0.578125 -1.171875 C -0.472656 -1.304688 -0.421875 -1.46875 -0.421875 -1.65625 C -0.421875 -1.882812 -0.472656 -2.101562 -0.578125 -2.3125 C -0.753906 -2.664062 -1.039062 -2.84375 -1.4375 -2.84375 L -1.953125 -2.84375 C -1.898438 -2.769531 -1.859375 -2.671875 -1.828125 -2.546875 C -1.796875 -2.421875 -1.769531 -2.296875 -1.75 -2.171875 L -1.703125 -1.796875 C -1.671875 -1.554688 -1.625 -1.378906 -1.5625 -1.265625 C -1.445312 -1.066406 -1.265625 -0.96875 -1.015625 -0.96875 Z M -2.328125 -2.53125 C -2.335938 -2.675781 -2.398438 -2.773438 -2.515625 -2.828125 C -2.566406 -2.847656 -2.644531 -2.859375 -2.75 -2.859375 C -2.96875 -2.859375 -3.125 -2.78125 -3.21875 -2.625 C -3.320312 -2.46875 -3.375 -2.242188 -3.375 -1.953125 C -3.375 -1.617188 -3.285156 -1.382812 -3.109375 -1.25 C -3.003906 -1.164062 -2.851562 -1.113281 -2.65625 -1.09375 L -2.65625 -0.484375 C -3.132812 -0.503906 -3.460938 -0.660156 -3.640625 -0.953125 C -3.828125 -1.242188 -3.921875 -1.582031 -3.921875 -1.96875 C -3.921875 -2.425781 -3.835938 -2.796875 -3.671875 -3.078125 C -3.492188 -3.359375 -3.222656 -3.5 -2.859375 -3.5 L -0.65625 -3.5 C -0.59375 -3.5 -0.539062 -3.507812 -0.5 -3.53125 C -0.457031 -3.5625 -0.4375 -3.617188 -0.4375 -3.703125 C -0.4375 -3.734375 -0.4375 -3.765625 -0.4375 -3.796875 C -0.445312 -3.835938 -0.453125 -3.878906 -0.453125 -3.921875 L 0.015625 -3.921875 C 0.046875 -3.816406 0.0625 -3.738281 0.0625 -3.6875 C 0.0703125 -3.632812 0.078125 -3.5625 0.078125 -3.46875 C 0.078125 -3.25 0 -3.085938 -0.15625 -2.984375 C -0.238281 -2.929688 -0.359375 -2.894531 -0.515625 -2.875 C -0.335938 -2.75 -0.1875 -2.5625 -0.0625 -2.3125 C 0.0585938 -2.070312 0.125 -1.800781 0.125 -1.5 C 0.125 -1.144531 0.0195312 -0.851562 -0.1875 -0.625 C -0.40625 -0.40625 -0.675781 -0.296875 -1 -0.296875 C -1.351562 -0.296875 -1.628906 -0.40625 -1.828125 -0.625 C -2.023438 -0.84375 -2.144531 -1.132812 -2.1875 -1.5 Z M -3.921875 -2 Z M -3.921875 -2 "/>
</g>
<g id="glyph-3-1">
<path d="M -5.25 -0.484375 L -5.25 -1.140625 L 0 -1.140625 L 0 -0.484375 Z M -5.25 -0.484375 "/>
</g>
<g id="glyph-3-2">
<path d="M -0.421875 -2 C -0.421875 -2.425781 -0.582031 -2.71875 -0.90625 -2.875 C -1.226562 -3.03125 -1.585938 -3.109375 -1.984375 -3.109375 C -2.335938 -3.109375 -2.628906 -3.050781 -2.859375 -2.9375 C -3.203125 -2.757812 -3.375 -2.445312 -3.375 -2 C -3.375 -1.601562 -3.222656 -1.316406 -2.921875 -1.140625 C -2.628906 -0.960938 -2.269531 -0.875 -1.84375 -0.875 C -1.4375 -0.875 -1.097656 -0.960938 -0.828125 -1.140625 C -0.554688 -1.316406 -0.421875 -1.601562 -0.421875 -2 Z M -3.9375 -2.015625 C -3.9375 -2.515625 -3.769531 -2.929688 -3.4375 -3.265625 C -3.113281 -3.609375 -2.632812 -3.78125 -2 -3.78125 C -1.375 -3.78125 -0.859375 -3.628906 -0.453125 -3.328125 C -0.0546875 -3.023438 0.140625 -2.5625 0.140625 -1.9375 C 0.140625 -1.40625 -0.0351562 -0.984375 -0.390625 -0.671875 C -0.753906 -0.367188 -1.234375 -0.21875 -1.828125 -0.21875 C -2.472656 -0.21875 -2.984375 -0.378906 -3.359375 -0.703125 C -3.742188 -1.023438 -3.9375 -1.460938 -3.9375 -2.015625 Z M -3.921875 -2 Z M -3.921875 -2 "/>
</g>
<g id="glyph-3-3">
<path d="M -3.9375 -1.953125 C -3.9375 -2.378906 -3.832031 -2.726562 -3.625 -3 C -3.414062 -3.269531 -3.054688 -3.4375 -2.546875 -3.5 L -2.546875 -2.859375 C -2.773438 -2.828125 -2.96875 -2.742188 -3.125 -2.609375 C -3.28125 -2.472656 -3.359375 -2.253906 -3.359375 -1.953125 C -3.359375 -1.535156 -3.160156 -1.238281 -2.765625 -1.0625 C -2.503906 -0.945312 -2.179688 -0.890625 -1.796875 -0.890625 C -1.421875 -0.890625 -1.097656 -0.972656 -0.828125 -1.140625 C -0.566406 -1.304688 -0.4375 -1.5625 -0.4375 -1.90625 C -0.4375 -2.175781 -0.519531 -2.390625 -0.6875 -2.546875 C -0.851562 -2.703125 -1.078125 -2.804688 -1.359375 -2.859375 L -1.359375 -3.5 C -0.847656 -3.425781 -0.472656 -3.242188 -0.234375 -2.953125 C -0.00390625 -2.671875 0.109375 -2.304688 0.109375 -1.859375 C 0.109375 -1.359375 -0.0703125 -0.957031 -0.4375 -0.65625 C -0.800781 -0.363281 -1.257812 -0.21875 -1.8125 -0.21875 C -2.476562 -0.21875 -3 -0.378906 -3.375 -0.703125 C -3.75 -1.023438 -3.9375 -1.441406 -3.9375 -1.953125 Z M -3.921875 -1.84375 Z M -3.921875 -1.84375 "/>
</g>
<g id="glyph-3-4">
<path d="M -4.90625 -0.59375 L -4.90625 -1.25 L -3.828125 -1.25 L -3.828125 -1.859375 L -3.3125 -1.859375 L -3.3125 -1.25 L -0.8125 -1.25 C -0.675781 -1.25 -0.582031 -1.296875 -0.53125 -1.390625 C -0.507812 -1.441406 -0.5 -1.523438 -0.5 -1.640625 C -0.5 -1.671875 -0.5 -1.703125 -0.5 -1.734375 C -0.5 -1.773438 -0.503906 -1.816406 -0.515625 -1.859375 L 0 -1.859375 C 0.0195312 -1.785156 0.0351562 -1.707031 0.046875 -1.625 C 0.0546875 -1.550781 0.0625 -1.46875 0.0625 -1.375 C 0.0625 -1.070312 -0.015625 -0.863281 -0.171875 -0.75 C -0.328125 -0.644531 -0.523438 -0.59375 -0.765625 -0.59375 L -3.3125 -0.59375 L -3.3125 -0.078125 L -3.828125 -0.078125 L -3.828125 -0.59375 Z M -4.90625 -0.59375 "/>
</g>
<g id="glyph-3-5">
<path d="M -3.8125 -0.46875 L -3.8125 -1.125 L 0 -1.125 L 0 -0.46875 Z M -5.25 -0.46875 L -5.25 -1.125 L -4.53125 -1.125 L -4.53125 -0.46875 Z M -5.25 -0.46875 "/>
</g>
<g id="glyph-3-6">
<path d="M -3.828125 -0.46875 L -3.828125 -1.078125 L -3.28125 -1.078125 C -3.507812 -1.265625 -3.671875 -1.457031 -3.765625 -1.65625 C -3.867188 -1.863281 -3.921875 -2.09375 -3.921875 -2.34375 C -3.921875 -2.882812 -3.726562 -3.25 -3.34375 -3.4375 C -3.132812 -3.539062 -2.835938 -3.59375 -2.453125 -3.59375 L 0 -3.59375 L 0 -2.9375 L -2.421875 -2.9375 C -2.648438 -2.9375 -2.835938 -2.90625 -2.984375 -2.84375 C -3.222656 -2.726562 -3.34375 -2.519531 -3.34375 -2.21875 C -3.34375 -2.0625 -3.328125 -1.9375 -3.296875 -1.84375 C -3.242188 -1.664062 -3.140625 -1.507812 -2.984375 -1.375 C -2.847656 -1.269531 -2.710938 -1.195312 -2.578125 -1.15625 C -2.453125 -1.125 -2.257812 -1.109375 -2 -1.109375 L 0 -1.109375 L 0 -0.46875 Z M -3.921875 -1.984375 Z M -3.921875 -1.984375 "/>
</g>
<g id="glyph-3-7">
<path d="M -1.203125 -0.859375 C -0.984375 -0.878906 -0.816406 -0.929688 -0.703125 -1.015625 C -0.492188 -1.179688 -0.390625 -1.460938 -0.390625 -1.859375 C -0.390625 -2.097656 -0.441406 -2.304688 -0.546875 -2.484375 C -0.648438 -2.671875 -0.8125 -2.765625 -1.03125 -2.765625 C -1.195312 -2.765625 -1.320312 -2.691406 -1.40625 -2.546875 C -1.457031 -2.453125 -1.519531 -2.269531 -1.59375 -2 L -1.71875 -1.484375 C -1.800781 -1.148438 -1.894531 -0.910156 -2 -0.765625 C -2.164062 -0.484375 -2.40625 -0.34375 -2.71875 -0.34375 C -3.082031 -0.34375 -3.375 -0.472656 -3.59375 -0.734375 C -3.820312 -0.992188 -3.9375 -1.347656 -3.9375 -1.796875 C -3.9375 -2.367188 -3.765625 -2.78125 -3.421875 -3.03125 C -3.210938 -3.195312 -2.984375 -3.273438 -2.734375 -3.265625 L -2.734375 -2.65625 C -2.878906 -2.644531 -3.007812 -2.597656 -3.125 -2.515625 C -3.289062 -2.359375 -3.375 -2.097656 -3.375 -1.734375 C -3.375 -1.492188 -3.328125 -1.3125 -3.234375 -1.1875 C -3.148438 -1.0625 -3.03125 -1 -2.875 -1 C -2.707031 -1 -2.570312 -1.082031 -2.46875 -1.25 C -2.414062 -1.34375 -2.363281 -1.484375 -2.3125 -1.671875 L -2.21875 -2.09375 C -2.101562 -2.550781 -1.992188 -2.863281 -1.890625 -3.03125 C -1.722656 -3.28125 -1.460938 -3.40625 -1.109375 -3.40625 C -0.765625 -3.40625 -0.46875 -3.273438 -0.21875 -3.015625 C 0.0195312 -2.753906 0.140625 -2.359375 0.140625 -1.828125 C 0.140625 -1.253906 0.0117188 -0.847656 -0.234375 -0.609375 C -0.492188 -0.378906 -0.816406 -0.253906 -1.203125 -0.234375 Z M -3.921875 -1.8125 Z M -3.921875 -1.8125 "/>
</g>
</g>
</defs>
<path fill="none" stroke-width="0.25" stroke-linecap="butt" stroke-linejoin="miter" stroke="rgb(0%, 0%, 0%)" stroke-opacity="1" stroke-dasharray="0.2 2" stroke-miterlimit="3.8" d="M 46.589844 336.046875 L 503.203125 336.046875 "/>
<path fill="none" stroke-width="0.6" stroke-linecap="butt" stroke-linejoin="miter" stroke="rgb(0%, 0%, 0%)" stroke-opacity="1" stroke-miterlimit="3.8" d="M 46.589844 336.046875 L 49.519531 336.046875 "/>
<path fill="none" stroke-width="0.6" stroke-linecap="butt" stroke-linejoin="miter" stroke="rgb(0%, 0%, 0%)" stroke-opacity="1" stroke-miterlimit="3.8" d="M 503.203125 336.046875 L 500.273438 336.046875 "/>
<g fill="rgb(0%, 0%, 0%)" fill-opacity="1">
<use xlink:href="#glyph-0-0" x="20.075" y="338.796558"/>
</g>
<g fill="rgb(0%, 0%, 0%)" fill-opacity="1">
<use xlink:href="#glyph-1-0" x="22.112344" y="338.796558"/>
<use xlink:href="#glyph-1-1" x="26.190614" y="338.796558"/>
<use xlink:href="#glyph-1-1" x="30.268883" y="338.796558"/>
<use xlink:href="#glyph-1-1" x="34.347153" y="338.796558"/>
<use xlink:href="#glyph-1-1" x="38.425423" y="338.796558"/>
</g>
<path fill="none" stroke-width="0.6" stroke-linecap="butt" stroke-linejoin="miter" stroke="rgb(0%, 0%, 0%)" stroke-opacity="1" stroke-miterlimit="3.8" d="M 46.589844 304.578125 L 48.054688 304.578125 "/>
<path fill="none" stroke-width="0.6" stroke-linecap="butt" stroke-linejoin="miter" stroke="rgb(0%, 0%, 0%)" stroke-opacity="1" stroke-miterlimit="3.8" d="M 503.203125 304.578125 L 501.738281 304.578125 "/>
<path fill="none" stroke-width="0.6" stroke-linecap="butt" stroke-linejoin="miter" stroke="rgb(0%, 0%, 0%)" stroke-opacity="1" stroke-miterlimit="3.8" d="M 46.589844 286.179688 L 48.054688 286.179688 "/>
<path fill="none" stroke-width="0.6" stroke-linecap="butt" stroke-linejoin="miter" stroke="rgb(0%, 0%, 0%)" stroke-opacity="1" stroke-miterlimit="3.8" d="M 503.203125 286.179688 L 501.738281 286.179688 "/>
<path fill="none" stroke-width="0.6" stroke-linecap="butt" stroke-linejoin="miter" stroke="rgb(0%, 0%, 0%)" stroke-opacity="1" stroke-miterlimit="3.8" d="M 46.589844 273.121094 L 48.054688 273.121094 "/>
<path fill="none" stroke-width="0.6" stroke-linecap="butt" stroke-linejoin="miter" stroke="rgb(0%, 0%, 0%)" stroke-opacity="1" stroke-miterlimit="3.8" d="M 503.203125 273.121094 L 501.738281 273.121094 "/>
<path fill="none" stroke-width="0.6" stroke-linecap="butt" stroke-linejoin="miter" stroke="rgb(0%, 0%, 0%)" stroke-opacity="1" stroke-miterlimit="3.8" d="M 46.589844 262.988281 L 48.054688 262.988281 "/>
<path fill="none" stroke-width="0.6" stroke-linecap="butt" stroke-linejoin="miter" stroke="rgb(0%, 0%, 0%)" stroke-opacity="1" stroke-miterlimit="3.8" d="M 503.203125 262.988281 L 501.738281 262.988281 "/>
<path fill="none" stroke-width="0.6" stroke-linecap="butt" stroke-linejoin="miter" stroke="rgb(0%, 0%, 0%)" stroke-opacity="1" stroke-miterlimit="3.8" d="M 46.589844 254.714844 L 48.054688 254.714844 "/>
<path fill="none" stroke-width="0.6" stroke-linecap="butt" stroke-linejoin="miter" stroke="rgb(0%, 0%, 0%)" stroke-opacity="1" stroke-miterlimit="3.8" d="M 503.203125 254.714844 L 501.738281 254.714844 "/>
<path fill="none" stroke-width="0.6" stroke-linecap="butt" stroke-linejoin="miter" stroke="rgb(0%, 0%, 0%)" stroke-opacity="1" stroke-miterlimit="3.8" d="M 46.589844 247.71875 L 48.054688 247.71875 "/>
<path fill="none" stroke-width="0.6" stroke-linecap="butt" stroke-linejoin="miter" stroke="rgb(0%, 0%, 0%)" stroke-opacity="1" stroke-miterlimit="3.8" d="M 503.203125 247.71875 L 501.738281 247.71875 "/>
<path fill="none" stroke-width="0.6" stroke-linecap="butt" stroke-linejoin="miter" stroke="rgb(0%, 0%, 0%)" stroke-opacity="1" stroke-miterlimit="3.8" d="M 46.589844 241.65625 L 48.054688 241.65625 "/>
<path fill="none" stroke-width="0.6" stroke-linecap="butt" stroke-linejoin="miter" stroke="rgb(0%, 0%, 0%)" stroke-opacity="1" stroke-miterlimit="3.8" d="M 503.203125 241.65625 L 501.738281 241.65625 "/>
<path fill="none" stroke-width="0.6" stroke-linecap="butt" stroke-linejoin="miter" stroke="rgb(0%, 0%, 0%)" stroke-opacity="1" stroke-miterlimit="3.8" d="M 46.589844 236.308594 L 48.054688 236.308594 "/>
<path fill="none" stroke-width="0.6" stroke-linecap="butt" stroke-linejoin="miter" stroke="rgb(0%, 0%, 0%)" stroke-opacity="1" stroke-miterlimit="3.8" d="M 503.203125 236.308594 L 501.738281 236.308594 "/>
<path fill="none" stroke-width="0.25" stroke-linecap="butt" stroke-linejoin="miter" stroke="rgb(0%, 0%, 0%)" stroke-opacity="1" stroke-dasharray="0.2 2" stroke-miterlimit="3.8" d="M 46.589844 231.53125 L 503.203125 231.53125 "/>
<path fill="none" stroke-width="0.6" stroke-linecap="butt" stroke-linejoin="miter" stroke="rgb(0%, 0%, 0%)" stroke-opacity="1" stroke-miterlimit="3.8" d="M 46.589844 231.53125 L 49.519531 231.53125 "/>
<path fill="none" stroke-width="0.6" stroke-linecap="butt" stroke-linejoin="miter" stroke="rgb(0%, 0%, 0%)" stroke-opacity="1" stroke-miterlimit="3.8" d="M 503.203125 231.53125 L 500.273438 231.53125 "/>
<g fill="rgb(0%, 0%, 0%)" fill-opacity="1">
<use xlink:href="#glyph-0-0" x="15.995" y="234.281558"/>
</g>
<g fill="rgb(0%, 0%, 0%)" fill-opacity="1">
<use xlink:href="#glyph-1-0" x="18.032344" y="234.281558"/>
<use xlink:href="#glyph-1-1" x="22.110614" y="234.281558"/>
<use xlink:href="#glyph-1-1" x="26.188883" y="234.281558"/>
<use xlink:href="#glyph-1-1" x="30.267153" y="234.281558"/>
<use xlink:href="#glyph-1-1" x="34.345423" y="234.281558"/>
<use xlink:href="#glyph-1-1" x="38.423692" y="234.281558"/>
</g>
<path fill="none" stroke-width="0.6" stroke-linecap="butt" stroke-linejoin="miter" stroke="rgb(0%, 0%, 0%)" stroke-opacity="1" stroke-miterlimit="3.8" d="M 46.589844 200.066406 L 48.054688 200.066406 "/>
<path fill="none" stroke-width="0.6" stroke-linecap="butt" stroke-linejoin="miter" stroke="rgb(0%, 0%, 0%)" stroke-opacity="1" stroke-miterlimit="3.8" d="M 503.203125 200.066406 L 501.738281 200.066406 "/>
<path fill="none" stroke-width="0.6" stroke-linecap="butt" stroke-linejoin="miter" stroke="rgb(0%, 0%, 0%)" stroke-opacity="1" stroke-miterlimit="3.8" d="M 46.589844 181.660156 L 48.054688 181.660156 "/>
<path fill="none" stroke-width="0.6" stroke-linecap="butt" stroke-linejoin="miter" stroke="rgb(0%, 0%, 0%)" stroke-opacity="1" stroke-miterlimit="3.8" d="M 503.203125 181.660156 L 501.738281 181.660156 "/>
<path fill="none" stroke-width="0.6" stroke-linecap="butt" stroke-linejoin="miter" stroke="rgb(0%, 0%, 0%)" stroke-opacity="1" stroke-miterlimit="3.8" d="M 46.589844 168.605469 L 48.054688 168.605469 "/>
<path fill="none" stroke-width="0.6" stroke-linecap="butt" stroke-linejoin="miter" stroke="rgb(0%, 0%, 0%)" stroke-opacity="1" stroke-miterlimit="3.8" d="M 503.203125 168.605469 L 501.738281 168.605469 "/>
<path fill="none" stroke-width="0.6" stroke-linecap="butt" stroke-linejoin="miter" stroke="rgb(0%, 0%, 0%)" stroke-opacity="1" stroke-miterlimit="3.8" d="M 46.589844 158.476562 L 48.054688 158.476562 "/>
<path fill="none" stroke-width="0.6" stroke-linecap="butt" stroke-linejoin="miter" stroke="rgb(0%, 0%, 0%)" stroke-opacity="1" stroke-miterlimit="3.8" d="M 503.203125 158.476562 L 501.738281 158.476562 "/>
<path fill="none" stroke-width="0.6" stroke-linecap="butt" stroke-linejoin="miter" stroke="rgb(0%, 0%, 0%)" stroke-opacity="1" stroke-miterlimit="3.8" d="M 46.589844 150.199219 L 48.054688 150.199219 "/>
<path fill="none" stroke-width="0.6" stroke-linecap="butt" stroke-linejoin="miter" stroke="rgb(0%, 0%, 0%)" stroke-opacity="1" stroke-miterlimit="3.8" d="M 503.203125 150.199219 L 501.738281 150.199219 "/>
<path fill="none" stroke-width="0.6" stroke-linecap="butt" stroke-linejoin="miter" stroke="rgb(0%, 0%, 0%)" stroke-opacity="1" stroke-miterlimit="3.8" d="M 46.589844 143.199219 L 48.054688 143.199219 "/>
<path fill="none" stroke-width="0.6" stroke-linecap="butt" stroke-linejoin="miter" stroke="rgb(0%, 0%, 0%)" stroke-opacity="1" stroke-miterlimit="3.8" d="M 503.203125 143.199219 L 501.738281 143.199219 "/>
<path fill="none" stroke-width="0.6" stroke-linecap="butt" stroke-linejoin="miter" stroke="rgb(0%, 0%, 0%)" stroke-opacity="1" stroke-miterlimit="3.8" d="M 46.589844 137.140625 L 48.054688 137.140625 "/>
<path fill="none" stroke-width="0.6" stroke-linecap="butt" stroke-linejoin="miter" stroke="rgb(0%, 0%, 0%)" stroke-opacity="1" stroke-miterlimit="3.8" d="M 503.203125 137.140625 L 501.738281 137.140625 "/>
<path fill="none" stroke-width="0.6" stroke-linecap="butt" stroke-linejoin="miter" stroke="rgb(0%, 0%, 0%)" stroke-opacity="1" stroke-miterlimit="3.8" d="M 46.589844 131.796875 L 48.054688 131.796875 "/>
<path fill="none" stroke-width="0.6" stroke-linecap="butt" stroke-linejoin="miter" stroke="rgb(0%, 0%, 0%)" stroke-opacity="1" stroke-miterlimit="3.8" d="M 503.203125 131.796875 L 501.738281 131.796875 "/>
<path fill="none" stroke-width="0.25" stroke-linecap="butt" stroke-linejoin="miter" stroke="rgb(0%, 0%, 0%)" stroke-opacity="1" stroke-dasharray="0.2 2" stroke-miterlimit="3.8" d="M 46.589844 127.011719 L 503.203125 127.011719 "/>
<path fill="none" stroke-width="0.6" stroke-linecap="butt" stroke-linejoin="miter" stroke="rgb(0%, 0%, 0%)" stroke-opacity="1" stroke-miterlimit="3.8" d="M 46.589844 127.011719 L 49.519531 127.011719 "/>
<path fill="none" stroke-width="0.6" stroke-linecap="butt" stroke-linejoin="miter" stroke="rgb(0%, 0%, 0%)" stroke-opacity="1" stroke-miterlimit="3.8" d="M 503.203125 127.011719 L 500.273438 127.011719 "/>
<g fill="rgb(0%, 0%, 0%)" fill-opacity="1">
<use xlink:href="#glyph-0-0" x="21.305" y="129.762095"/>
</g>
<g fill="rgb(0%, 0%, 0%)" fill-opacity="1">
<use xlink:href="#glyph-1-0" x="23.342344" y="129.762095"/>
<use xlink:href="#glyph-1-2" x="27.420614" y="129.762095"/>
<use xlink:href="#glyph-1-0" x="31.087118" y="129.762095"/>
<use xlink:href="#glyph-1-1" x="35.165387" y="129.762095"/>
</g>
<g fill="rgb(0%, 0%, 0%)" fill-opacity="1">
<use xlink:href="#glyph-2-0" x="39.245" y="127.012095"/>
</g>
<path fill="none" stroke-width="0.6" stroke-linecap="butt" stroke-linejoin="miter" stroke="rgb(0%, 0%, 0%)" stroke-opacity="1" stroke-miterlimit="3.8" d="M 46.589844 95.550781 L 48.054688 95.550781 "/>
<path fill="none" stroke-width="0.6" stroke-linecap="butt" stroke-linejoin="miter" stroke="rgb(0%, 0%, 0%)" stroke-opacity="1" stroke-miterlimit="3.8" d="M 503.203125 95.550781 L 501.738281 95.550781 "/>
<path fill="none" stroke-width="0.6" stroke-linecap="butt" stroke-linejoin="miter" stroke="rgb(0%, 0%, 0%)" stroke-opacity="1" stroke-miterlimit="3.8" d="M 46.589844 77.144531 L 48.054688 77.144531 "/>
<path fill="none" stroke-width="0.6" stroke-linecap="butt" stroke-linejoin="miter" stroke="rgb(0%, 0%, 0%)" stroke-opacity="1" stroke-miterlimit="3.8" d="M 503.203125 77.144531 L 501.738281 77.144531 "/>
<path fill="none" stroke-width="0.6" stroke-linecap="butt" stroke-linejoin="miter" stroke="rgb(0%, 0%, 0%)" stroke-opacity="1" stroke-miterlimit="3.8" d="M 46.589844 64.085938 L 48.054688 64.085938 "/>
<path fill="none" stroke-width="0.6" stroke-linecap="butt" stroke-linejoin="miter" stroke="rgb(0%, 0%, 0%)" stroke-opacity="1" stroke-miterlimit="3.8" d="M 503.203125 64.085938 L 501.738281 64.085938 "/>
<path fill="none" stroke-width="0.6" stroke-linecap="butt" stroke-linejoin="miter" stroke="rgb(0%, 0%, 0%)" stroke-opacity="1" stroke-miterlimit="3.8" d="M 46.589844 53.960938 L 48.054688 53.960938 "/>
<path fill="none" stroke-width="0.6" stroke-linecap="butt" stroke-linejoin="miter" stroke="rgb(0%, 0%, 0%)" stroke-opacity="1" stroke-miterlimit="3.8" d="M 503.203125 53.960938 L 501.738281 53.960938 "/>
<path fill="none" stroke-width="0.6" stroke-linecap="butt" stroke-linejoin="miter" stroke="rgb(0%, 0%, 0%)" stroke-opacity="1" stroke-miterlimit="3.8" d="M 46.589844 45.679688 L 48.054688 45.679688 "/>
<path fill="none" stroke-width="0.6" stroke-linecap="butt" stroke-linejoin="miter" stroke="rgb(0%, 0%, 0%)" stroke-opacity="1" stroke-miterlimit="3.8" d="M 503.203125 45.679688 L 501.738281 45.679688 "/>
<path fill="none" stroke-width="0.6" stroke-linecap="butt" stroke-linejoin="miter" stroke="rgb(0%, 0%, 0%)" stroke-opacity="1" stroke-miterlimit="3.8" d="M 46.589844 38.683594 L 48.054688 38.683594 "/>
<path fill="none" stroke-width="0.6" stroke-linecap="butt" stroke-linejoin="miter" stroke="rgb(0%, 0%, 0%)" stroke-opacity="1" stroke-miterlimit="3.8" d="M 503.203125 38.683594 L 501.738281 38.683594 "/>
<path fill="none" stroke-width="0.6" stroke-linecap="butt" stroke-linejoin="miter" stroke="rgb(0%, 0%, 0%)" stroke-opacity="1" stroke-miterlimit="3.8" d="M 46.589844 32.625 L 48.054688 32.625 "/>
<path fill="none" stroke-width="0.6" stroke-linecap="butt" stroke-linejoin="miter" stroke="rgb(0%, 0%, 0%)" stroke-opacity="1" stroke-miterlimit="3.8" d="M 503.203125 32.625 L 501.738281 32.625 "/>
<path fill="none" stroke-width="0.6" stroke-linecap="butt" stroke-linejoin="miter" stroke="rgb(0%, 0%, 0%)" stroke-opacity="1" stroke-miterlimit="3.8" d="M 46.589844 27.273438 L 48.054688 27.273438 "/>
<path fill="none" stroke-width="0.6" stroke-linecap="butt" stroke-linejoin="miter" stroke="rgb(0%, 0%, 0%)" stroke-opacity="1" stroke-miterlimit="3.8" d="M 503.203125 27.273438 L 501.738281 27.273438 "/>
<path fill="none" stroke-width="0.25" stroke-linecap="butt" stroke-linejoin="miter" stroke="rgb(0%, 0%, 0%)" stroke-opacity="1" stroke-dasharray="0.2 2" stroke-miterlimit="3.8" d="M 46.589844 22.496094 L 503.203125 22.496094 "/>
<path fill="none" stroke-width="0.6" stroke-linecap="butt" stroke-linejoin="miter" stroke="rgb(0%, 0%, 0%)" stroke-opacity="1" stroke-miterlimit="3.8" d="M 46.589844 22.496094 L 49.519531 22.496094 "/>
<path fill="none" stroke-width="0.6" stroke-linecap="butt" stroke-linejoin="miter" stroke="rgb(0%, 0%, 0%)" stroke-opacity="1" stroke-miterlimit="3.8" d="M 503.203125 22.496094 L 500.273438 22.496094 "/>
<g fill="rgb(0%, 0%, 0%)" fill-opacity="1">
<use xlink:href="#glyph-0-0" x="21.305" y="25.247095"/>
</g>
<g fill="rgb(0%, 0%, 0%)" fill-opacity="1">
<use xlink:href="#glyph-1-0" x="23.342344" y="25.247095"/>
<use xlink:href="#glyph-1-2" x="27.420614" y="25.247095"/>
<use xlink:href="#glyph-1-0" x="31.087118" y="25.247095"/>
<use xlink:href="#glyph-1-1" x="35.165387" y="25.247095"/>
</g>
<g fill="rgb(0%, 0%, 0%)" fill-opacity="1">
<use xlink:href="#glyph-2-1" x="39.245" y="22.497095"/>
</g>
<path fill="none" stroke-width="0.25" stroke-linecap="butt" stroke-linejoin="miter" stroke="rgb(0%, 0%, 0%)" stroke-opacity="1" stroke-dasharray="0.2 2" stroke-miterlimit="3.8" d="M 46.589844 336.046875 L 46.589844 22.496094 "/>
<path fill="none" stroke-width="0.6" stroke-linecap="butt" stroke-linejoin="miter" stroke="rgb(0%, 0%, 0%)" stroke-opacity="1" stroke-miterlimit="3.8" d="M 46.589844 336.046875 L 46.589844 333.113281 "/>
<path fill="none" stroke-width="0.6" stroke-linecap="butt" stroke-linejoin="miter" stroke="rgb(0%, 0%, 0%)" stroke-opacity="1" stroke-miterlimit="3.8" d="M 46.589844 22.496094 L 46.589844 25.425781 "/>
<g fill="rgb(0%, 0%, 0%)" fill-opacity="1">
<use xlink:href="#glyph-0-0" x="43.5325" y="346.126558"/>
</g>
<g fill="rgb(0%, 0%, 0%)" fill-opacity="1">
<use xlink:href="#glyph-1-1" x="45.569844" y="346.126558"/>
</g>
<path fill="none" stroke-width="0.25" stroke-linecap="butt" stroke-linejoin="miter" stroke="rgb(0%, 0%, 0%)" stroke-opacity="1" stroke-dasharray="0.2 2" stroke-miterlimit="3.8" d="M 92.25 336.046875 L 92.25 22.496094 "/>
<path fill="none" stroke-width="0.6" stroke-linecap="butt" stroke-linejoin="miter" stroke="rgb(0%, 0%, 0%)" stroke-opacity="1" stroke-miterlimit="3.8" d="M 92.25 336.046875 L 92.25 333.113281 "/>
<path fill="none" stroke-width="0.6" stroke-linecap="butt" stroke-linejoin="miter" stroke="rgb(0%, 0%, 0%)" stroke-opacity="1" stroke-miterlimit="3.8" d="M 92.25 22.496094 L 92.25 25.425781 "/>
<g fill="rgb(0%, 0%, 0%)" fill-opacity="1">
<use xlink:href="#glyph-0-0" x="83.0725" y="346.126558"/>
</g>
<g fill="rgb(0%, 0%, 0%)" fill-opacity="1">
<use xlink:href="#glyph-1-0" x="85.109844" y="346.126558"/>
<use xlink:href="#glyph-1-1" x="89.188114" y="346.126558"/>
<use xlink:href="#glyph-1-1" x="93.266383" y="346.126558"/>
<use xlink:href="#glyph-1-1" x="97.344653" y="346.126558"/>
</g>
<path fill="none" stroke-width="0.25" stroke-linecap="butt" stroke-linejoin="miter" stroke="rgb(0%, 0%, 0%)" stroke-opacity="1" stroke-dasharray="0.2 2" stroke-miterlimit="3.8" d="M 137.914062 336.046875 L 137.914062 22.496094 "/>
<path fill="none" stroke-width="0.6" stroke-linecap="butt" stroke-linejoin="miter" stroke="rgb(0%, 0%, 0%)" stroke-opacity="1" stroke-miterlimit="3.8" d="M 137.914062 336.046875 L 137.914062 333.113281 "/>
<path fill="none" stroke-width="0.6" stroke-linecap="butt" stroke-linejoin="miter" stroke="rgb(0%, 0%, 0%)" stroke-opacity="1" stroke-miterlimit="3.8" d="M 137.914062 22.496094 L 137.914062 25.425781 "/>
<g fill="rgb(0%, 0%, 0%)" fill-opacity="1">
<use xlink:href="#glyph-0-0" x="128.7375" y="346.126558"/>
</g>
<g fill="rgb(0%, 0%, 0%)" fill-opacity="1">
<use xlink:href="#glyph-1-3" x="130.774844" y="346.126558"/>
<use xlink:href="#glyph-1-1" x="134.853114" y="346.126558"/>
<use xlink:href="#glyph-1-1" x="138.931383" y="346.126558"/>
<use xlink:href="#glyph-1-1" x="143.009653" y="346.126558"/>
</g>
<path fill="none" stroke-width="0.25" stroke-linecap="butt" stroke-linejoin="miter" stroke="rgb(0%, 0%, 0%)" stroke-opacity="1" stroke-dasharray="0.2 2" stroke-miterlimit="3.8" d="M 183.574219 336.046875 L 183.574219 22.496094 "/>
<path fill="none" stroke-width="0.6" stroke-linecap="butt" stroke-linejoin="miter" stroke="rgb(0%, 0%, 0%)" stroke-opacity="1" stroke-miterlimit="3.8" d="M 183.574219 336.046875 L 183.574219 333.113281 "/>
<path fill="none" stroke-width="0.6" stroke-linecap="butt" stroke-linejoin="miter" stroke="rgb(0%, 0%, 0%)" stroke-opacity="1" stroke-miterlimit="3.8" d="M 183.574219 22.496094 L 183.574219 25.425781 "/>
<g fill="rgb(0%, 0%, 0%)" fill-opacity="1">
<use xlink:href="#glyph-0-0" x="174.3975" y="346.126558"/>
</g>
<g fill="rgb(0%, 0%, 0%)" fill-opacity="1">
<use xlink:href="#glyph-1-4" x="176.434844" y="346.126558"/>
<use xlink:href="#glyph-1-1" x="180.513114" y="346.126558"/>
<use xlink:href="#glyph-1-1" x="184.591383" y="346.126558"/>
<use xlink:href="#glyph-1-1" x="188.669653" y="346.126558"/>
</g>
<path fill="none" stroke-width="0.25" stroke-linecap="butt" stroke-linejoin="miter" stroke="rgb(0%, 0%, 0%)" stroke-opacity="1" stroke-dasharray="0.2 2" stroke-miterlimit="3.8" d="M 229.234375 336.046875 L 229.234375 22.496094 "/>
<path fill="none" stroke-width="0.6" stroke-linecap="butt" stroke-linejoin="miter" stroke="rgb(0%, 0%, 0%)" stroke-opacity="1" stroke-miterlimit="3.8" d="M 229.234375 336.046875 L 229.234375 333.113281 "/>
<path fill="none" stroke-width="0.6" stroke-linecap="butt" stroke-linejoin="miter" stroke="rgb(0%, 0%, 0%)" stroke-opacity="1" stroke-miterlimit="3.8" d="M 229.234375 22.496094 L 229.234375 25.425781 "/>
<g fill="rgb(0%, 0%, 0%)" fill-opacity="1">
<use xlink:href="#glyph-0-0" x="220.0575" y="346.126558"/>
</g>
<g fill="rgb(0%, 0%, 0%)" fill-opacity="1">
<use xlink:href="#glyph-1-5" x="222.094844" y="346.126558"/>
<use xlink:href="#glyph-1-1" x="226.173114" y="346.126558"/>
<use xlink:href="#glyph-1-1" x="230.251383" y="346.126558"/>
<use xlink:href="#glyph-1-1" x="234.329653" y="346.126558"/>
</g>
<path fill="none" stroke-width="0.25" stroke-linecap="butt" stroke-linejoin="miter" stroke="rgb(0%, 0%, 0%)" stroke-opacity="1" stroke-dasharray="0.2 2" stroke-miterlimit="3.8" d="M 274.898438 336.046875 L 274.898438 22.496094 "/>
<path fill="none" stroke-width="0.6" stroke-linecap="butt" stroke-linejoin="miter" stroke="rgb(0%, 0%, 0%)" stroke-opacity="1" stroke-miterlimit="3.8" d="M 274.898438 336.046875 L 274.898438 333.113281 "/>
<path fill="none" stroke-width="0.6" stroke-linecap="butt" stroke-linejoin="miter" stroke="rgb(0%, 0%, 0%)" stroke-opacity="1" stroke-miterlimit="3.8" d="M 274.898438 22.496094 L 274.898438 25.425781 "/>
<g fill="rgb(0%, 0%, 0%)" fill-opacity="1">
<use xlink:href="#glyph-0-0" x="265.7225" y="346.126558"/>
</g>
<g fill="rgb(0%, 0%, 0%)" fill-opacity="1">
<use xlink:href="#glyph-1-6" x="267.759844" y="346.126558"/>
<use xlink:href="#glyph-1-1" x="271.838114" y="346.126558"/>
<use xlink:href="#glyph-1-1" x="275.916383" y="346.126558"/>
<use xlink:href="#glyph-1-1" x="279.994653" y="346.126558"/>
</g>
<path fill="none" stroke-width="0.25" stroke-linecap="butt" stroke-linejoin="miter" stroke="rgb(0%, 0%, 0%)" stroke-opacity="1" stroke-dasharray="0.2 2" stroke-miterlimit="3.8" d="M 320.558594 336.046875 L 320.558594 22.496094 "/>
<path fill="none" stroke-width="0.6" stroke-linecap="butt" stroke-linejoin="miter" stroke="rgb(0%, 0%, 0%)" stroke-opacity="1" stroke-miterlimit="3.8" d="M 320.558594 336.046875 L 320.558594 333.113281 "/>
<path fill="none" stroke-width="0.6" stroke-linecap="butt" stroke-linejoin="miter" stroke="rgb(0%, 0%, 0%)" stroke-opacity="1" stroke-miterlimit="3.8" d="M 320.558594 22.496094 L 320.558594 25.425781 "/>
<g fill="rgb(0%, 0%, 0%)" fill-opacity="1">
<use xlink:href="#glyph-0-0" x="311.3825" y="346.126558"/>
</g>
<g fill="rgb(0%, 0%, 0%)" fill-opacity="1">
<use xlink:href="#glyph-1-7" x="313.419844" y="346.126558"/>
<use xlink:href="#glyph-1-1" x="317.498114" y="346.126558"/>
<use xlink:href="#glyph-1-1" x="321.576383" y="346.126558"/>
<use xlink:href="#glyph-1-1" x="325.654653" y="346.126558"/>
</g>
<path fill="none" stroke-width="0.25" stroke-linecap="butt" stroke-linejoin="miter" stroke="rgb(0%, 0%, 0%)" stroke-opacity="1" stroke-dasharray="0.2 2" stroke-miterlimit="3.8" d="M 366.21875 336.046875 L 366.21875 22.496094 "/>
<path fill="none" stroke-width="0.6" stroke-linecap="butt" stroke-linejoin="miter" stroke="rgb(0%, 0%, 0%)" stroke-opacity="1" stroke-miterlimit="3.8" d="M 366.21875 336.046875 L 366.21875 333.113281 "/>
<path fill="none" stroke-width="0.6" stroke-linecap="butt" stroke-linejoin="miter" stroke="rgb(0%, 0%, 0%)" stroke-opacity="1" stroke-miterlimit="3.8" d="M 366.21875 22.496094 L 366.21875 25.425781 "/>
<g fill="rgb(0%, 0%, 0%)" fill-opacity="1">
<use xlink:href="#glyph-0-0" x="357.0425" y="346.126558"/>
</g>
<g fill="rgb(0%, 0%, 0%)" fill-opacity="1">
<use xlink:href="#glyph-1-8" x="359.079844" y="346.126558"/>
<use xlink:href="#glyph-1-1" x="363.158114" y="346.126558"/>
<use xlink:href="#glyph-1-1" x="367.236383" y="346.126558"/>
<use xlink:href="#glyph-1-1" x="371.314653" y="346.126558"/>
</g>
<path fill="none" stroke-width="0.25" stroke-linecap="butt" stroke-linejoin="miter" stroke="rgb(0%, 0%, 0%)" stroke-opacity="1" stroke-dasharray="0.2 2" stroke-miterlimit="3.8" d="M 411.878906 336.046875 L 411.878906 22.496094 "/>
<path fill="none" stroke-width="0.6" stroke-linecap="butt" stroke-linejoin="miter" stroke="rgb(0%, 0%, 0%)" stroke-opacity="1" stroke-miterlimit="3.8" d="M 411.878906 336.046875 L 411.878906 333.113281 "/>
<path fill="none" stroke-width="0.6" stroke-linecap="butt" stroke-linejoin="miter" stroke="rgb(0%, 0%, 0%)" stroke-opacity="1" stroke-miterlimit="3.8" d="M 411.878906 22.496094 L 411.878906 25.425781 "/>
<g fill="rgb(0%, 0%, 0%)" fill-opacity="1">
<use xlink:href="#glyph-0-0" x="402.7025" y="346.126558"/>
</g>
<g fill="rgb(0%, 0%, 0%)" fill-opacity="1">
<use xlink:href="#glyph-1-9" x="404.739844" y="346.126558"/>
<use xlink:href="#glyph-1-1" x="408.818114" y="346.126558"/>
<use xlink:href="#glyph-1-1" x="412.896383" y="346.126558"/>
<use xlink:href="#glyph-1-1" x="416.974653" y="346.126558"/>
</g>
<path fill="none" stroke-width="0.25" stroke-linecap="butt" stroke-linejoin="miter" stroke="rgb(0%, 0%, 0%)" stroke-opacity="1" stroke-dasharray="0.2 2" stroke-miterlimit="3.8" d="M 457.546875 336.046875 L 457.546875 22.496094 "/>
<path fill="none" stroke-width="0.6" stroke-linecap="butt" stroke-linejoin="miter" stroke="rgb(0%, 0%, 0%)" stroke-opacity="1" stroke-miterlimit="3.8" d="M 457.546875 336.046875 L 457.546875 333.113281 "/>
<path fill="none" stroke-width="0.6" stroke-linecap="butt" stroke-linejoin="miter" stroke="rgb(0%, 0%, 0%)" stroke-opacity="1" stroke-miterlimit="3.8" d="M 457.546875 22.496094 L 457.546875 25.425781 "/>
<g fill="rgb(0%, 0%, 0%)" fill-opacity="1">
<use xlink:href="#glyph-0-0" x="448.3675" y="346.126558"/>
</g>
<g fill="rgb(0%, 0%, 0%)" fill-opacity="1">
<use xlink:href="#glyph-1-10" x="450.404844" y="346.126558"/>
<use xlink:href="#glyph-1-1" x="454.483114" y="346.126558"/>
<use xlink:href="#glyph-1-1" x="458.561383" y="346.126558"/>
<use xlink:href="#glyph-1-1" x="462.639653" y="346.126558"/>
</g>
<path fill="none" stroke-width="0.25" stroke-linecap="butt" stroke-linejoin="miter" stroke="rgb(0%, 0%, 0%)" stroke-opacity="1" stroke-dasharray="0.2 2" stroke-miterlimit="3.8" d="M 503.203125 336.046875 L 503.203125 22.496094 "/>
<path fill="none" stroke-width="0.6" stroke-linecap="butt" stroke-linejoin="miter" stroke="rgb(0%, 0%, 0%)" stroke-opacity="1" stroke-miterlimit="3.8" d="M 503.203125 336.046875 L 503.203125 333.113281 "/>
<path fill="none" stroke-width="0.6" stroke-linecap="butt" stroke-linejoin="miter" stroke="rgb(0%, 0%, 0%)" stroke-opacity="1" stroke-miterlimit="3.8" d="M 503.203125 22.496094 L 503.203125 25.425781 "/>
<g fill="rgb(0%, 0%, 0%)" fill-opacity="1">
<use xlink:href="#glyph-0-0" x="491.9875" y="346.126558"/>
</g>
<g fill="rgb(0%, 0%, 0%)" fill-opacity="1">
<use xlink:href="#glyph-1-0" x="494.024844" y="346.126558"/>
<use xlink:href="#glyph-1-1" x="498.103114" y="346.126558"/>
<use xlink:href="#glyph-1-1" x="502.181383" y="346.126558"/>
<use xlink:href="#glyph-1-1" x="506.259653" y="346.126558"/>
<use xlink:href="#glyph-1-1" x="510.337923" y="346.126558"/>
</g>
<path fill="none" stroke-width="0.6" stroke-linecap="butt" stroke-linejoin="miter" stroke="rgb(0%, 0%, 0%)" stroke-opacity="1" stroke-miterlimit="3.8" d="M 46.589844 22.496094 L 503.203125 22.496094 L 503.203125 336.046875 L 46.589844 336.046875 Z M 46.589844 22.496094 "/>
<g fill="rgb(0%, 0%, 0%)" fill-opacity="1">
<use xlink:href="#glyph-1-11" x="528.505" y="28.911558"/>
<use xlink:href="#glyph-1-12" x="532.58327" y="28.911558"/>
<use xlink:href="#glyph-1-13" x="536.661539" y="28.911558"/>
<use xlink:href="#glyph-1-14" x="538.290699" y="28.911558"/>
<use xlink:href="#glyph-1-15" x="539.919858" y="28.911558"/>
</g>
<path fill="none" stroke-width="1" stroke-linecap="butt" stroke-linejoin="miter" stroke="rgb(58.03833%, 0%, 82.743835%)" stroke-opacity="1" stroke-miterlimit="3.8" d="M 548.085938 26.160156 L 567.335938 26.160156 "/>
<path fill="none" stroke-width="1" stroke-linecap="butt" stroke-linejoin="miter" stroke="rgb(58.03833%, 0%, 82.743835%)" stroke-opacity="1" stroke-miterlimit="3.8" d="M 69.421875 245.988281 L 92.25 214.40625 L 274.898438 141.28125 L 503.203125 109.804688 "/>
<path fill="none" stroke-width="1" stroke-linecap="butt" stroke-linejoin="miter" stroke="rgb(58.03833%, 0%, 82.743835%)" stroke-opacity="1" stroke-miterlimit="3.8" d="M 65.820312 245.988281 L 73.019531 245.988281 "/>
<path fill="none" stroke-width="1" stroke-linecap="butt" stroke-linejoin="miter" stroke="rgb(58.03833%, 0%, 82.743835%)" stroke-opacity="1" stroke-miterlimit="3.8" d="M 69.421875 242.390625 L 69.421875 249.589844 "/>
<path fill="none" stroke-width="1" stroke-linecap="butt" stroke-linejoin="miter" stroke="rgb(58.03833%, 0%, 82.743835%)" stroke-opacity="1" stroke-miterlimit="3.8" d="M 88.648438 214.40625 L 95.851562 214.40625 "/>
<path fill="none" stroke-width="1" stroke-linecap="butt" stroke-linejoin="miter" stroke="rgb(58.03833%, 0%, 82.743835%)" stroke-opacity="1" stroke-miterlimit="3.8" d="M 92.25 210.804688 L 92.25 218.003906 "/>
<path fill="none" stroke-width="1" stroke-linecap="butt" stroke-linejoin="miter" stroke="rgb(58.03833%, 0%, 82.743835%)" stroke-opacity="1" stroke-miterlimit="3.8" d="M 271.300781 141.28125 L 278.5 141.28125 "/>
<path fill="none" stroke-width="1" stroke-linecap="butt" stroke-linejoin="miter" stroke="rgb(58.03833%, 0%, 82.743835%)" stroke-opacity="1" stroke-miterlimit="3.8" d="M 274.898438 137.679688 L 274.898438 144.878906 "/>
<path fill="none" stroke-width="1" stroke-linecap="butt" stroke-linejoin="miter" stroke="rgb(58.03833%, 0%, 82.743835%)" stroke-opacity="1" stroke-miterlimit="3.8" d="M 499.605469 109.804688 L 506.804688 109.804688 "/>
<path fill="none" stroke-width="1" stroke-linecap="butt" stroke-linejoin="miter" stroke="rgb(58.03833%, 0%, 82.743835%)" stroke-opacity="1" stroke-miterlimit="3.8" d="M 503.203125 106.203125 L 503.203125 113.40625 "/>
<path fill="none" stroke-width="1" stroke-linecap="butt" stroke-linejoin="miter" stroke="rgb(58.03833%, 0%, 82.743835%)" stroke-opacity="1" stroke-miterlimit="3.8" d="M 554.109375 26.160156 L 561.308594 26.160156 "/>
<path fill="none" stroke-width="1" stroke-linecap="butt" stroke-linejoin="miter" stroke="rgb(58.03833%, 0%, 82.743835%)" stroke-opacity="1" stroke-miterlimit="3.8" d="M 557.710938 22.558594 L 557.710938 29.761719 "/>
<g fill="rgb(0%, 0%, 0%)" fill-opacity="1">
<use xlink:href="#glyph-1-16" x="531.765" y="36.241558"/>
<use xlink:href="#glyph-1-15" x="535.84327" y="36.241558"/>
<use xlink:href="#glyph-1-15" x="539.921539" y="36.241558"/>
</g>
<path fill="none" stroke-width="1" stroke-linecap="butt" stroke-linejoin="miter" stroke="rgb(0%, 61.959839%, 45.097351%)" stroke-opacity="1" stroke-miterlimit="3.8" d="M 548.085938 33.488281 L 567.335938 33.488281 "/>
<path fill="none" stroke-width="1" stroke-linecap="butt" stroke-linejoin="miter" stroke="rgb(0%, 61.959839%, 45.097351%)" stroke-opacity="1" stroke-miterlimit="3.8" d="M 69.421875 233.894531 L 92.25 202.300781 L 274.898438 129.15625 L 503.203125 97.679688 "/>
<path fill="none" stroke-width="1" stroke-linecap="butt" stroke-linejoin="miter" stroke="rgb(0%, 61.959839%, 45.097351%)" stroke-opacity="1" stroke-miterlimit="3.8" d="M 65.820312 230.296875 L 73.019531 237.496094 "/>
<path fill="none" stroke-width="1" stroke-linecap="butt" stroke-linejoin="miter" stroke="rgb(0%, 61.959839%, 45.097351%)" stroke-opacity="1" stroke-miterlimit="3.8" d="M 65.820312 237.496094 L 73.019531 230.296875 "/>
<path fill="none" stroke-width="1" stroke-linecap="butt" stroke-linejoin="miter" stroke="rgb(0%, 61.959839%, 45.097351%)" stroke-opacity="1" stroke-miterlimit="3.8" d="M 88.648438 198.699219 L 95.851562 205.898438 "/>
<path fill="none" stroke-width="1" stroke-linecap="butt" stroke-linejoin="miter" stroke="rgb(0%, 61.959839%, 45.097351%)" stroke-opacity="1" stroke-miterlimit="3.8" d="M 88.648438 205.898438 L 95.851562 198.699219 "/>
<path fill="none" stroke-width="1" stroke-linecap="butt" stroke-linejoin="miter" stroke="rgb(0%, 61.959839%, 45.097351%)" stroke-opacity="1" stroke-miterlimit="3.8" d="M 271.300781 125.554688 L 278.5 132.753906 "/>
<path fill="none" stroke-width="1" stroke-linecap="butt" stroke-linejoin="miter" stroke="rgb(0%, 61.959839%, 45.097351%)" stroke-opacity="1" stroke-miterlimit="3.8" d="M 271.300781 132.753906 L 278.5 125.554688 "/>
<path fill="none" stroke-width="1" stroke-linecap="butt" stroke-linejoin="miter" stroke="rgb(0%, 61.959839%, 45.097351%)" stroke-opacity="1" stroke-miterlimit="3.8" d="M 499.605469 94.078125 L 506.804688 101.28125 "/>
<path fill="none" stroke-width="1" stroke-linecap="butt" stroke-linejoin="miter" stroke="rgb(0%, 61.959839%, 45.097351%)" stroke-opacity="1" stroke-miterlimit="3.8" d="M 499.605469 101.28125 L 506.804688 94.078125 "/>
<path fill="none" stroke-width="1" stroke-linecap="butt" stroke-linejoin="miter" stroke="rgb(0%, 61.959839%, 45.097351%)" stroke-opacity="1" stroke-miterlimit="3.8" d="M 554.109375 29.890625 L 561.308594 37.089844 "/>
<path fill="none" stroke-width="1" stroke-linecap="butt" stroke-linejoin="miter" stroke="rgb(0%, 61.959839%, 45.097351%)" stroke-opacity="1" stroke-miterlimit="3.8" d="M 554.109375 37.089844 L 561.308594 29.890625 "/>
<g fill="rgb(0%, 0%, 0%)" fill-opacity="1">
<use xlink:href="#glyph-1-17" x="519.14" y="43.571558"/>
<use xlink:href="#glyph-1-12" x="521.177345" y="43.571558"/>
<use xlink:href="#glyph-1-14" x="525.255614" y="43.571558"/>
<use xlink:href="#glyph-1-14" x="526.884774" y="43.571558"/>
<use xlink:href="#glyph-1-18" x="528.513933" y="43.571558"/>
<use xlink:href="#glyph-1-19" x="532.180437" y="43.571558"/>
<use xlink:href="#glyph-1-16" x="535.846941" y="43.571558"/>
<use xlink:href="#glyph-1-20" x="539.925211" y="43.571558"/>
</g>
<path fill="none" stroke-width="1" stroke-linecap="butt" stroke-linejoin="miter" stroke="rgb(33.724976%, 70.587158%, 91.371155%)" stroke-opacity="1" stroke-miterlimit="3.8" d="M 548.085938 40.820312 L 567.335938 40.820312 "/>
<path fill="none" stroke-width="1" stroke-linecap="butt" stroke-linejoin="miter" stroke="rgb(33.724976%, 70.587158%, 91.371155%)" stroke-opacity="1" stroke-miterlimit="3.8" d="M 69.421875 236.394531 L 92.25 204.824219 L 274.898438 131.746094 L 503.203125 100.285156 "/>
<path fill="none" stroke-width="1" stroke-linecap="butt" stroke-linejoin="miter" stroke="rgb(33.724976%, 70.587158%, 91.371155%)" stroke-opacity="1" stroke-miterlimit="3.8" d="M 65.820312 236.394531 L 73.019531 236.394531 "/>
<path fill="none" stroke-width="1" stroke-linecap="butt" stroke-linejoin="miter" stroke="rgb(33.724976%, 70.587158%, 91.371155%)" stroke-opacity="1" stroke-miterlimit="3.8" d="M 69.421875 232.796875 L 69.421875 239.996094 "/>
<path fill="none" stroke-width="1" stroke-linecap="butt" stroke-linejoin="miter" stroke="rgb(33.724976%, 70.587158%, 91.371155%)" stroke-opacity="1" stroke-miterlimit="3.8" d="M 65.820312 232.796875 L 73.019531 239.996094 "/>
<path fill="none" stroke-width="1" stroke-linecap="butt" stroke-linejoin="miter" stroke="rgb(33.724976%, 70.587158%, 91.371155%)" stroke-opacity="1" stroke-miterlimit="3.8" d="M 65.820312 239.996094 L 73.019531 232.796875 "/>
<path fill="none" stroke-width="1" stroke-linecap="butt" stroke-linejoin="miter" stroke="rgb(33.724976%, 70.587158%, 91.371155%)" stroke-opacity="1" stroke-miterlimit="3.8" d="M 88.648438 204.824219 L 95.851562 204.824219 "/>
<path fill="none" stroke-width="1" stroke-linecap="butt" stroke-linejoin="miter" stroke="rgb(33.724976%, 70.587158%, 91.371155%)" stroke-opacity="1" stroke-miterlimit="3.8" d="M 92.25 201.226562 L 92.25 208.425781 "/>
<path fill="none" stroke-width="1" stroke-linecap="butt" stroke-linejoin="miter" stroke="rgb(33.724976%, 70.587158%, 91.371155%)" stroke-opacity="1" stroke-miterlimit="3.8" d="M 88.648438 201.226562 L 95.851562 208.425781 "/>
<path fill="none" stroke-width="1" stroke-linecap="butt" stroke-linejoin="miter" stroke="rgb(33.724976%, 70.587158%, 91.371155%)" stroke-opacity="1" stroke-miterlimit="3.8" d="M 88.648438 208.425781 L 95.851562 201.226562 "/>
<path fill="none" stroke-width="1" stroke-linecap="butt" stroke-linejoin="miter" stroke="rgb(33.724976%, 70.587158%, 91.371155%)" stroke-opacity="1" stroke-miterlimit="3.8" d="M 271.300781 131.746094 L 278.5 131.746094 "/>
<path fill="none" stroke-width="1" stroke-linecap="butt" stroke-linejoin="miter" stroke="rgb(33.724976%, 70.587158%, 91.371155%)" stroke-opacity="1" stroke-miterlimit="3.8" d="M 274.898438 128.144531 L 274.898438 135.34375 "/>
<path fill="none" stroke-width="1" stroke-linecap="butt" stroke-linejoin="miter" stroke="rgb(33.724976%, 70.587158%, 91.371155%)" stroke-opacity="1" stroke-miterlimit="3.8" d="M 271.300781 128.144531 L 278.5 135.34375 "/>
<path fill="none" stroke-width="1" stroke-linecap="butt" stroke-linejoin="miter" stroke="rgb(33.724976%, 70.587158%, 91.371155%)" stroke-opacity="1" stroke-miterlimit="3.8" d="M 271.300781 135.34375 L 278.5 128.144531 "/>
<path fill="none" stroke-width="1" stroke-linecap="butt" stroke-linejoin="miter" stroke="rgb(33.724976%, 70.587158%, 91.371155%)" stroke-opacity="1" stroke-miterlimit="3.8" d="M 499.605469 100.285156 L 506.804688 100.285156 "/>
<path fill="none" stroke-width="1" stroke-linecap="butt" stroke-linejoin="miter" stroke="rgb(33.724976%, 70.587158%, 91.371155%)" stroke-opacity="1" stroke-miterlimit="3.8" d="M 503.203125 96.683594 L 503.203125 103.886719 "/>
<path fill="none" stroke-width="1" stroke-linecap="butt" stroke-linejoin="miter" stroke="rgb(33.724976%, 70.587158%, 91.371155%)" stroke-opacity="1" stroke-miterlimit="3.8" d="M 499.605469 96.683594 L 506.804688 103.886719 "/>
<path fill="none" stroke-width="1" stroke-linecap="butt" stroke-linejoin="miter" stroke="rgb(33.724976%, 70.587158%, 91.371155%)" stroke-opacity="1" stroke-miterlimit="3.8" d="M 499.605469 103.886719 L 506.804688 96.683594 "/>
<path fill="none" stroke-width="1" stroke-linecap="butt" stroke-linejoin="miter" stroke="rgb(33.724976%, 70.587158%, 91.371155%)" stroke-opacity="1" stroke-miterlimit="3.8" d="M 554.109375 40.820312 L 561.308594 40.820312 "/>
<path fill="none" stroke-width="1" stroke-linecap="butt" stroke-linejoin="miter" stroke="rgb(33.724976%, 70.587158%, 91.371155%)" stroke-opacity="1" stroke-miterlimit="3.8" d="M 557.710938 37.21875 L 557.710938 44.421875 "/>
<path fill="none" stroke-width="1" stroke-linecap="butt" stroke-linejoin="miter" stroke="rgb(33.724976%, 70.587158%, 91.371155%)" stroke-opacity="1" stroke-miterlimit="3.8" d="M 554.109375 37.21875 L 561.308594 44.421875 "/>
<path fill="none" stroke-width="1" stroke-linecap="butt" stroke-linejoin="miter" stroke="rgb(33.724976%, 70.587158%, 91.371155%)" stroke-opacity="1" stroke-miterlimit="3.8" d="M 554.109375 44.421875 L 561.308594 37.21875 "/>
<path fill="none" stroke-width="0.6" stroke-linecap="butt" stroke-linejoin="miter" stroke="rgb(0%, 0%, 0%)" stroke-opacity="1" stroke-miterlimit="3.8" d="M 46.589844 22.496094 L 503.203125 22.496094 L 503.203125 336.046875 L 46.589844 336.046875 Z M 46.589844 22.496094 "/>
<g fill="rgb(0%, 0%, 0%)" fill-opacity="1">
<use xlink:href="#glyph-3-0" x="9.976558" y="196.5975"/>
<use xlink:href="#glyph-3-1" x="9.976558" y="192.51923"/>
<use xlink:href="#glyph-3-1" x="9.976558" y="190.890071"/>
<use xlink:href="#glyph-3-2" x="9.976558" y="189.260911"/>
<use xlink:href="#glyph-3-3" x="9.976558" y="185.182642"/>
<use xlink:href="#glyph-3-0" x="9.976558" y="181.516138"/>
<use xlink:href="#glyph-3-4" x="9.976558" y="177.437868"/>
<use xlink:href="#glyph-3-5" x="9.976558" y="175.400524"/>
<use xlink:href="#glyph-3-2" x="9.976558" y="173.771364"/>
<use xlink:href="#glyph-3-6" x="9.976558" y="169.693095"/>
<use xlink:href="#glyph-3-7" x="9.976558" y="165.614825"/>
</g>
<g fill="rgb(0%, 0%, 0%)" fill-opacity="1">
<use xlink:href="#glyph-1-21" x="254.7225" y="357.121558"/>
<use xlink:href="#glyph-1-16" x="260.018163" y="357.121558"/>
<use xlink:href="#glyph-1-22" x="264.096433" y="357.121558"/>
<use xlink:href="#glyph-1-16" x="266.133778" y="357.121558"/>
<use xlink:href="#glyph-1-18" x="270.212047" y="357.121558"/>
<use xlink:href="#glyph-1-23" x="273.878551" y="357.121558"/>
<use xlink:href="#glyph-1-22" x="277.956821" y="357.121558"/>
</g>
<g fill="rgb(0%, 0%, 0%)" fill-opacity="1">
<use xlink:href="#glyph-0-0" x="279.994165" y="357.121558"/>
</g>
<g fill="rgb(0%, 0%, 0%)" fill-opacity="1">
<use xlink:href="#glyph-1-18" x="282.03151" y="357.121558"/>
<use xlink:href="#glyph-1-13" x="285.698014" y="357.121558"/>
<use xlink:href="#glyph-1-24" x="287.327173" y="357.121558"/>
<use xlink:href="#glyph-1-23" x="290.993677" y="357.121558"/>
</g>
<g fill="rgb(0%, 0%, 0%)" fill-opacity="1">
<use xlink:href="#glyph-1-22" x="249.620002" y="14.251546"/>
<use xlink:href="#glyph-1-25" x="251.657347" y="14.251546"/>
<use xlink:href="#glyph-1-22" x="255.735616" y="14.251546"/>
<use xlink:href="#glyph-1-16" x="257.772961" y="14.251546"/>
<use xlink:href="#glyph-1-14" x="261.851231" y="14.251546"/>
</g>
<g fill="rgb(0%, 0%, 0%)" fill-opacity="1">
<use xlink:href="#glyph-0-0" x="263.48039" y="14.251546"/>
</g>
<g fill="rgb(0%, 0%, 0%)" fill-opacity="1">
<use xlink:href="#glyph-1-16" x="265.517734" y="14.251546"/>
<use xlink:href="#glyph-1-14" x="269.596004" y="14.251546"/>
<use xlink:href="#glyph-1-14" x="271.225163" y="14.251546"/>
<use xlink:href="#glyph-1-25" x="272.854323" y="14.251546"/>
<use xlink:href="#glyph-1-19" x="276.932592" y="14.251546"/>
<use xlink:href="#glyph-1-16" x="280.599096" y="14.251546"/>
<use xlink:href="#glyph-1-22" x="284.677366" y="14.251546"/>
<use xlink:href="#glyph-1-13" x="286.714711" y="14.251546"/>
<use xlink:href="#glyph-1-25" x="288.34387" y="14.251546"/>
<use xlink:href="#glyph-1-20" x="292.42214" y="14.251546"/>
<use xlink:href="#glyph-1-18" x="296.500409" y="14.251546"/>
</g>
</svg>
